<svg xmlns="http://www.w3.org/2000/svg" viewBox="20 36 210 36" enable-background="new 20 36 210 36"><linearGradient id="a" gradientUnits="userSpaceOnUse" x1="-220.77" y1="203.507" x2="-220.77" y2="188.605" gradientTransform="matrix(1 0 0 -1 244 239)"><stop offset="0" stop-color="#F6C846"/><stop offset=".494" stop-color="#F7EEB1"/><stop offset="1" stop-color="#F6C846"/></linearGradient><path fill="url(#a)" d="M20.192 51.184v-.353c.737-.058.825-.266.825-.53V36.56c0-.265-.088-.47-.825-.53v-.354h6.074v.354c-.738.06-.826.265-.826.53V50.3c0 .264.088.472.826.53v.354h-6.074z"/><path stroke="#EFA656" stroke-width=".292" d="M20.192 51.184v-.353c.737-.058.825-.266.825-.53V36.56c0-.265-.088-.47-.825-.53v-.354h6.074v.354c-.738.06-.826.265-.826.53V50.3c0 .264.088.472.826.53v.354h-6.074z" fill="none"/><linearGradient id="b" gradientUnits="userSpaceOnUse" x1="-201.474" y1="203.507" x2="-201.474" y2="188.606" gradientTransform="matrix(1 0 0 -1 244 239)"><stop offset="0" stop-color="#F6C846"/><stop offset=".494" stop-color="#F7EEB1"/><stop offset="1" stop-color="#F6C846"/></linearGradient><path fill="url(#b)" d="M37.97 50.3c0 .41.354.5.826.53v.354h-4.628v-.353c.325-.03.68-.12.68-.53V39.095c0-.413-.355-.502-.68-.53v-.354h6.396v.353c-.293.03-.558.06-.558.237 0 .294 2.18 4.568 2.416 5.158.945-1.916 2.595-4.776 2.595-5.158 0-.178-.265-.208-.56-.237v-.353h6.426v.353c-.266.03-.62.118-.62.53V50.3c0 .41.354.5.62.53v.354H45.96v-.353c.412-.03.766-.12.766-.53v-8.374h-.06l-4.393 8.52-4.246-8.52h-.058V50.3z"/><path stroke="#EFA656" stroke-width=".292" d="M37.97 50.3c0 .41.354.5.826.53v.354h-4.628v-.353c.325-.03.68-.12.68-.53V39.095c0-.413-.355-.502-.68-.53v-.354h6.396v.353c-.293.03-.558.06-.558.237 0 .294 2.18 4.568 2.416 5.158.945-1.916 2.595-4.776 2.595-5.158 0-.178-.265-.208-.56-.237v-.353h6.426v.353c-.266.03-.62.118-.62.53V50.3c0 .41.354.5.62.53v.354H45.96v-.353c.412-.03.766-.12.766-.53v-8.374h-.06l-4.393 8.52-4.246-8.52h-.058V50.3z" fill="none"/><linearGradient id="c" gradientUnits="userSpaceOnUse" x1="-178.137" y1="203.507" x2="-178.137" y2="188.606" gradientTransform="matrix(1 0 0 -1 244 239)"><stop offset="0" stop-color="#F6C846"/><stop offset=".494" stop-color="#F7EEB1"/><stop offset="1" stop-color="#F6C846"/></linearGradient><path fill="url(#c)" d="M69.52 51.184v-.353c.115 0 .382 0 .382-.266 0-.323-.65-1.475-.857-2.004h-6.84c-.176.53-.854 1.68-.854 2.004 0 .267.266.267.384.267v.354h-4.42v-.353c.234 0 .5-.088.59-.293C60.26 45.022 63 39.273 63 38.86c0-.206-.088-.266-.383-.294v-.353h6.162v.353c-.294.03-.385.088-.385.295 0 .355 4.128 8.64 5.424 11.677.092.205.356.294.59.294v.354h-4.89zm-1.477-4.747l-2.477-5.16-2.418 5.16h4.895z"/><path stroke="#EFA656" stroke-width=".292" d="M69.52 51.184v-.353c.115 0 .382 0 .382-.266 0-.323-.65-1.475-.857-2.004h-6.84c-.176.53-.854 1.68-.854 2.004 0 .267.266.267.384.267v.354h-4.42v-.353c.234 0 .5-.088.59-.293C60.26 45.022 63 39.273 63 38.86c0-.206-.088-.266-.383-.294v-.353h6.162v.353c-.294.03-.385.088-.385.295 0 .355 4.128 8.64 5.424 11.677.092.205.356.294.59.294v.354h-4.89zm-1.477-4.747l-2.477-5.16-2.418 5.16h4.895z" fill="none"/><linearGradient id="d" gradientUnits="userSpaceOnUse" x1="-156.233" y1="203.508" x2="-156.233" y2="188.606" gradientTransform="matrix(1 0 0 -1 244 239)"><stop offset="0" stop-color="#F6C846"/><stop offset=".494" stop-color="#F7EEB1"/><stop offset="1" stop-color="#F6C846"/></linearGradient><path fill="url(#d)" d="M94.842 44.107v4.04c0 .384.208.767.562.767h.265v.354c-1.83.973-5.074 2.093-8.02 2.093-4.6 0-7.786-2.062-7.786-6.662s3.775-6.663 7.785-6.663c1.502 0 2.742.207 3.684.44.944.238 1.562.444 1.77.444.295 0 .354-.148.502-.296l.353.06-1.534 3.89-.355-.177v-.206c0-.707-2.415-1.326-3.83-1.326-2.508 0-4.483 1.09-4.483 3.833 0 2.8 2.005 4.01 4.57 4.01.974 0 1.917-.12 2.86-.443v-1.916H88.71c-.47 0-.53.473-.53.707h-.355V43.4h.354c0 .236.06.708.53.708h6.132z"/><path stroke="#EFA656" stroke-width=".292" d="M94.842 44.107v4.04c0 .384.208.767.562.767h.265v.354c-1.83.973-5.074 2.093-8.02 2.093-4.6 0-7.786-2.062-7.786-6.662s3.775-6.663 7.785-6.663c1.502 0 2.742.207 3.684.44.944.238 1.562.444 1.77.444.295 0 .354-.148.502-.296l.353.06-1.534 3.89-.355-.177v-.206c0-.707-2.415-1.326-3.83-1.326-2.508 0-4.483 1.09-4.483 3.833 0 2.8 2.005 4.01 4.57 4.01.974 0 1.917-.12 2.86-.443v-1.916H88.71c-.47 0-.53.473-.53.707h-.355V43.4h.354c0 .236.06.708.53.708h6.132z" fill="none"/><linearGradient id="e" gradientUnits="userSpaceOnUse" x1="-139.368" y1="203.507" x2="-139.368" y2="188.606" gradientTransform="matrix(1 0 0 -1 244 239)"><stop offset="0" stop-color="#F6C846"/><stop offset=".494" stop-color="#F7EEB1"/><stop offset="1" stop-color="#F6C846"/></linearGradient><path fill="url(#e)" d="M107.55 38.212v.353c-.588.03-.942.118-.942.53V50.3c0 .41.354.5.943.53v.354h-5.837v-.353c.59-.03.943-.12.943-.53V39.095c0-.413-.353-.502-.943-.53v-.354h5.838z"/><path stroke="#EFA656" stroke-width=".292" d="M107.55 38.212v.353c-.588.03-.942.118-.942.53V50.3c0 .41.354.5.943.53v.354h-5.837v-.353c.59-.03.943-.12.943-.53V39.095c0-.413-.353-.502-.943-.53v-.354h5.838z" fill="none"/><linearGradient id="f" gradientUnits="userSpaceOnUse" x1="-120.898" y1="203.507" x2="-120.898" y2="188.606" gradientTransform="matrix(1 0 0 -1 244 239)"><stop offset="0" stop-color="#F6C846"/><stop offset=".494" stop-color="#F7EEB1"/><stop offset="1" stop-color="#F6C846"/></linearGradient><path fill="url(#f)" d="M118.547 50.3c0 .41.354.5.825.53v.354h-4.628v-.353c.326-.03.677-.12.677-.53V39.095c0-.413-.35-.502-.676-.53v-.354h6.397v.353c-.293.03-.56.06-.56.237 0 .294 2.184 4.568 2.418 5.158.945-1.916 2.596-4.776 2.596-5.158 0-.178-.268-.208-.562-.237v-.353h6.427v.353c-.265.03-.62.118-.62.53V50.3c0 .41.355.5.62.53v.354h-4.923v-.353c.413-.03.768-.12.768-.53v-8.374h-.06l-4.394 8.52-4.245-8.52h-.06l.002 8.373z"/><path stroke="#EFA656" stroke-width=".292" d="M118.547 50.3c0 .41.354.5.825.53v.354h-4.628v-.353c.326-.03.677-.12.677-.53V39.095c0-.413-.35-.502-.676-.53v-.354h6.397v.353c-.293.03-.56.06-.56.237 0 .294 2.184 4.568 2.418 5.158.945-1.916 2.596-4.776 2.596-5.158 0-.178-.268-.208-.562-.237v-.353h6.427v.353c-.265.03-.62.118-.62.53V50.3c0 .41.355.5.62.53v.354h-4.923v-.353c.413-.03.768-.12.768-.53v-8.374h-.06l-4.394 8.52-4.245-8.52h-.06l.002 8.373z" fill="none"/><linearGradient id="g" gradientUnits="userSpaceOnUse" x1="-97.561" y1="203.507" x2="-97.561" y2="188.606" gradientTransform="matrix(1 0 0 -1 244 239)"><stop offset="0" stop-color="#F6C846"/><stop offset=".494" stop-color="#F7EEB1"/><stop offset="1" stop-color="#F6C846"/></linearGradient><path fill="url(#g)" d="M150.098 51.184v-.353c.114 0 .38 0 .38-.266 0-.323-.647-1.475-.854-2.004h-6.84c-.178.53-.854 1.68-.854 2.004 0 .267.266.267.383.267v.354h-4.424v-.353c.235 0 .5-.088.59-.293 2.356-5.515 5.1-11.264 5.1-11.676 0-.206-.088-.266-.382-.294v-.353h6.162v.353c-.295.03-.387.088-.387.295 0 .355 4.13 8.64 5.428 11.677.09.205.355.294.59.294v.354h-4.892zm-1.476-4.747l-2.48-5.16-2.415 5.16h4.895z"/><path stroke="#EFA656" stroke-width=".292" d="M150.098 51.184v-.353c.114 0 .38 0 .38-.266 0-.323-.647-1.475-.854-2.004h-6.84c-.178.53-.854 1.68-.854 2.004 0 .267.266.267.383.267v.354h-4.424v-.353c.235 0 .5-.088.59-.293 2.356-5.515 5.1-11.264 5.1-11.676 0-.206-.088-.266-.382-.294v-.353h6.162v.353c-.295.03-.387.088-.387.295 0 .355 4.13 8.64 5.428 11.677.09.205.355.294.59.294v.354h-4.892zm-1.476-4.747l-2.48-5.16-2.415 5.16h4.895z" fill="none"/><linearGradient id="h" gradientUnits="userSpaceOnUse" x1="-76.481" y1="203.507" x2="-76.481" y2="188.606" gradientTransform="matrix(1 0 0 -1 244 239)"><stop offset="0" stop-color="#F6C846"/><stop offset=".494" stop-color="#F7EEB1"/><stop offset="1" stop-color="#F6C846"/></linearGradient><path fill="url(#h)" d="M173.71 38.212c.235 0 .53-.12.53-.648h.354v4.305h-.354c0-.532-.295-.652-.53-.652h-4.217V50.3c0 .412.356.5.68.532v.353h-5.308v-.353c.324-.032.68-.12.68-.532v-9.082h-4.218c-.235 0-.53.12-.53.65h-.354v-4.304h.354c0 .53.295.648.53.648h12.383z"/><path stroke="#EFA656" stroke-width=".292" d="M173.71 38.212c.235 0 .53-.12.53-.648h.354v4.305h-.354c0-.532-.295-.652-.53-.652h-4.217V50.3c0 .412.356.5.68.532v.353h-5.308v-.353c.324-.032.68-.12.68-.532v-9.082h-4.218c-.235 0-.53.12-.53.65h-.354v-4.304h.354c0 .53.295.648.53.648h12.383z" fill="none"/><linearGradient id="i" gradientUnits="userSpaceOnUse" x1="-60.412" y1="203.507" x2="-60.412" y2="188.606" gradientTransform="matrix(1 0 0 -1 244 239)"><stop offset="0" stop-color="#F6C846"/><stop offset=".494" stop-color="#F7EEB1"/><stop offset="1" stop-color="#F6C846"/></linearGradient><path fill="url(#i)" d="M186.507 38.212v.353c-.59.03-.944.118-.944.53V50.3c0 .41.354.5.944.53v.354h-5.837v-.353c.59-.03.94-.12.94-.53V39.095c0-.413-.353-.502-.94-.53v-.354h5.837z"/><path stroke="#EFA656" stroke-width=".292" d="M186.507 38.212v.353c-.59.03-.944.118-.944.53V50.3c0 .41.354.5.944.53v.354h-5.837v-.353c.59-.03.94-.12.94-.53V39.095c0-.413-.353-.502-.94-.53v-.354h5.837z" fill="none"/><linearGradient id="j" gradientUnits="userSpaceOnUse" x1="-43.578" y1="203.508" x2="-43.578" y2="188.606" gradientTransform="matrix(1 0 0 -1 244 239)"><stop offset="0" stop-color="#F6C846"/><stop offset=".494" stop-color="#F7EEB1"/><stop offset="1" stop-color="#F6C846"/></linearGradient><path fill="url(#j)" d="M208.294 44.698c0 4.658-4.187 6.663-7.872 6.663-3.684 0-7.87-2.004-7.87-6.662 0-4.658 4.187-6.663 7.87-6.663 3.685 0 7.872 2.005 7.872 6.663zm-11.91 0c0 2.18 1.798 3.538 4.038 3.538s4.04-1.357 4.04-3.538c0-2.18-1.8-3.538-4.04-3.538s-4.038 1.357-4.038 3.538z"/><path stroke="#EFA656" stroke-width=".292" d="M208.294 44.698c0 4.658-4.187 6.663-7.872 6.663-3.684 0-7.87-2.004-7.87-6.662 0-4.658 4.187-6.663 7.87-6.663 3.685 0 7.872 2.005 7.872 6.663zm-11.91 0c0 2.18 1.798 3.538 4.038 3.538s4.04-1.357 4.04-3.538c0-2.18-1.8-3.538-4.04-3.538s-4.038 1.357-4.038 3.538z" fill="none"/><linearGradient id="k" gradientUnits="userSpaceOnUse" x1="-21.761" y1="203.507" x2="-21.761" y2="188.606" gradientTransform="matrix(1 0 0 -1 244 239)"><stop offset="0" stop-color="#F6C846"/><stop offset=".494" stop-color="#F7EEB1"/><stop offset="1" stop-color="#F6C846"/></linearGradient><path fill="url(#k)" d="M229.463 50.3c0 .41.354.5.825.53v.354h-5.453v-.353c.294 0 .854-.03.854-.383 0-.677-3.776-4.04-7.107-7.93l-.058.058V50.3c0 .41.354.5.766.53v.354h-5.04v-.353c.383-.03.736-.12.736-.53V39.095c0-.413-.354-.502-.797-.53v-.354h7.018v.353c-.265.03-.62.118-.62.53 0 .208 2.86 3.126 5.337 5.81v-5.81c0-.412-.354-.5-.825-.53v-.353h5.188v.353c-.472.03-.825.118-.825.53V50.3z"/><path stroke="#EFA656" stroke-width=".292" d="M229.463 50.3c0 .41.354.5.825.53v.354h-5.453v-.353c.294 0 .854-.03.854-.383 0-.677-3.776-4.04-7.107-7.93l-.058.058V50.3c0 .41.354.5.766.53v.354h-5.04v-.353c.383-.03.736-.12.736-.53V39.095c0-.413-.354-.502-.797-.53v-.354h7.018v.353c-.265.03-.62.118-.62.53 0 .208 2.86 3.126 5.337 5.81v-5.81c0-.412-.354-.5-.825-.53v-.353h5.188v.353c-.472.03-.825.118-.825.53V50.3z" fill="none"/><linearGradient id="l" gradientUnits="userSpaceOnUse" x1="-98.959" y1="178.357" x2="-98.959" y2="167.39" gradientTransform="matrix(1 0 0 -1 244 239)"><stop offset="0" stop-color="#5592C9"/><stop offset=".494" stop-color="#CEDCE8"/><stop offset="1" stop-color="#5592C9"/></linearGradient><path fill="url(#l)" stroke="#006461" stroke-width=".292" d="M140.654 67.25l.205.1c-.042.103-.042.245-.042.43 0 .55 2.182 1.468 4.303 1.468 2.037 0 2.957-.49 2.957-1.387 0-1.508-8.4.165-8.4-3.77 0-2.04 1.957-3.447 4.952-3.447 2.794 0 4.813.857 5.363.857.265 0 .407-.143.55-.307l.225.082-1.404 2.835-.245-.123v-.225c0-.51-2.326-1.08-4.242-1.08-1.773 0-2.386.49-2.386.957 0 1.815 8.442-.408 8.442 4.282 0 1.753-1.328 3.69-5.752 3.69-3.404 0-4.914-.938-5.382-.938-.165 0-.288.143-.407.264l-.244-.06 1.504-3.63z"/><linearGradient id="m" gradientUnits="userSpaceOnUse" x1="-84.384" y1="176.931" x2="-84.384" y2="167.51" gradientTransform="matrix(1 0 0 -1 244 239)"><stop offset="0" stop-color="#5592C9"/><stop offset=".494" stop-color="#CEDCE8"/><stop offset="1" stop-color="#5592C9"/></linearGradient><path fill="url(#m)" stroke="#006461" stroke-width=".292" d="M163.896 62.518c.164 0 .37-.08.37-.448h.24v2.977h-.24c0-.366-.206-.45-.37-.45h-2.914v6.283c0 .286.242.345.47.366v.245h-3.67v-.244c.223-.02.468-.08.468-.366v-6.282h-2.915c-.164 0-.367.083-.367.45h-.243V62.07h.243c0 .368.203.448.367.448h8.56z"/><linearGradient id="n" gradientUnits="userSpaceOnUse" x1="-69.886" y1="176.483" x2="-69.886" y2="167.391" gradientTransform="matrix(1 0 0 -1 244 239)"><stop offset="0" stop-color="#5592C9"/><stop offset=".494" stop-color="#CEDCE8"/><stop offset="1" stop-color="#5592C9"/></linearGradient><path fill="url(#n)" stroke="#006461" stroke-width=".292" d="M169.343 63.13c0-.286-.265-.348-.59-.367v-.246h3.668v.246c-.12.02-.345.08-.345.367v4.954c0 1.04.854 1.448 2.04 1.448 1.18 0 2.037-.41 2.037-1.448V63.13c0-.286-.227-.348-.348-.367v-.246h3.672v.246c-.326.02-.593.08-.593.367v4.485c0 2.16-1.182 3.995-4.77 3.995-3.59 0-4.772-1.835-4.772-3.995l.003-4.485z"/><linearGradient id="o" gradientUnits="userSpaceOnUse" x1="-54.615" y1="176.483" x2="-54.615" y2="167.512" gradientTransform="matrix(1 0 0 -1 244 239)"><stop offset="0" stop-color="#5592C9"/><stop offset=".494" stop-color="#CEDCE8"/><stop offset="1" stop-color="#5592C9"/></linearGradient><path fill="url(#o)" stroke="#006461" stroke-width=".292" d="M184.736 63.13c0-.286-.245-.348-.53-.367v-.246h6.118c3.017 0 4.238 2.08 4.238 4.486 0 2.405-1.223 4.486-4.238 4.486h-6.117v-.246c.284-.02.53-.08.53-.366V63.13zm2.733 6.402h1.468c2.078 0 2.975-.693 2.975-2.528 0-1.834-.896-2.528-2.975-2.528h-1.47v5.056z"/><linearGradient id="p" gradientUnits="userSpaceOnUse" x1="-43.136" y1="176.483" x2="-43.136" y2="167.51" gradientTransform="matrix(1 0 0 -1 244 239)"><stop offset="0" stop-color="#5592C9"/><stop offset=".494" stop-color="#CEDCE8"/><stop offset="1" stop-color="#5592C9"/></linearGradient><path fill="url(#p)" stroke="#006461" stroke-width=".292" d="M202.883 62.518v.246c-.408.02-.652.08-.652.367v7.75c0 .285.245.344.653.365v.245h-4.037v-.245c.407-.02.65-.08.65-.366v-7.75c0-.286-.243-.348-.65-.367v-.246h4.037z"/><linearGradient id="q" gradientUnits="userSpaceOnUse" x1="-31.493" y1="176.603" x2="-31.493" y2="167.39" gradientTransform="matrix(1 0 0 -1 244 239)"><stop offset="0" stop-color="#5592C9"/><stop offset=".494" stop-color="#CEDCE8"/><stop offset="1" stop-color="#5592C9"/></linearGradient><path fill="url(#q)" stroke="#006461" stroke-width=".292" d="M217.95 67.004c0 3.222-2.895 4.607-5.444 4.607s-5.443-1.384-5.443-4.606 2.896-4.607 5.443-4.607c2.55 0 5.445 1.385 5.445 4.607zm-8.24 0c0 1.508 1.246 2.447 2.796 2.447 1.55 0 2.794-.938 2.794-2.446s-1.243-2.448-2.794-2.448c-1.55 0-2.795.94-2.795 2.448z"/><linearGradient id="r" gradientUnits="userSpaceOnUse" x1="-17.648" y1="176.603" x2="-17.648" y2="167.391" gradientTransform="matrix(1 0 0 -1 244 239)"><stop offset="0" stop-color="#5592C9"/><stop offset=".494" stop-color="#CEDCE8"/><stop offset="1" stop-color="#5592C9"/></linearGradient><path fill="url(#r)" stroke="#006461" stroke-width=".292" d="M222.396 68.37l.265.123c0 .062-.02.12-.02.224 0 .53 2.344 1.06 3.998 1.06.508 0 1.854-.082 1.854-.875 0-1.592-6.667-.042-6.667-3.467 0-1.266 1.202-3.038 4.524-3.038 1.937 0 3.61.53 4.057.53.226 0 .347-.163.45-.245l.226.082-1.226 2.568-.265-.122c0-.062.02-.144.02-.225 0-.203-1.448-.754-2.814-.754-.507 0-2.32 0-2.32.897 0 1.45 6.665-.04 6.665 3.508 0 1.59-1.365 2.975-4.483 2.975-1.958 0-4.242-.732-4.404-.732-.185 0-.325.142-.47.286l-.225-.063.836-2.73z"/></svg>