<svg xmlns="http://www.w3.org/2000/svg" xmlns:xlink="http://www.w3.org/1999/xlink" width="220" height="57.724" viewBox="0 0 220 57.724"><g fill="#006461"><path d="M16.077 16.026l.48-.71c.2-.29.465-.68.795-1.174l1.26-1.884c.506-.76 1.12-1.708 1.848-2.84-.245-.372-.4-.65-.46-.837.018-.102.122-.154.308-.153h.525c.146.002.25-.08.313-.245.1-.185.284-.515.544-.988.257-.474.527-.98.808-1.514.28-.535.523-1.04.73-1.514.207-.473.313-.792.313-.958 0-.248-.06-.402-.184-.465-.124-.06-.32-.093-.588-.094-.227-.002-.49.002-.788.012-.3.01-.562.036-.79.075-.123 0-.185-.062-.185-.186 0-.122.083-.185.25-.184.246 0 .55-.003.912-.013.36-.01.742-.028 1.146-.06.4-.028.804-.054 1.206-.073.4-.02.767-.05 1.097-.09.207 0 .237.135.09.402-.206.288-.427.618-.666.99-.238.37-.46.73-.668 1.08-.31.536-.65 1.143-1.025 1.822-.374.68-.704 1.298-.996 1.854-.06.103-.097.184-.108.247-.01.06.046.093.17.093.475.02.912.04 1.315.05.4.01.77.017 1.098.018.186 0 .5-.008.943-.027.444-.022.92-.04 1.426-.06.505-.02.993-.043 1.468-.073.474-.03.846-.065 1.113-.105.105-.02.197-.062.28-.123.084-.063.145-.135.187-.217.622-1.195 1.2-2.286 1.743-3.275.537-.988 1.088-1.936 1.646-2.842.103-.144.24-.256.405-.34.208-.122.517-.275.93-.46.41-.186.847-.364 1.3-.54.454-.173.878-.32 1.27-.444.388-.12.678-.183.862-.182.042 0 .116.01.218.032.102.02.155.06.155.12 0 .04-.042.072-.125.093-.083.02-.144.03-.185.03-.063 0-.186.016-.372.046-.186.032-.392.083-.618.154-.23.07-.46.164-.7.276-.236.113-.45.252-.633.417-.497.41-.962.905-1.398 1.48-.29.413-.592.856-.9 1.33s-.612.958-.903 1.45c-.288.497-.57.99-.84 1.485-.267.494-.505.958-.714 1.39-.746 1.546-1.287 2.793-1.62 3.74-.33.95-.5 1.64-.5 2.074-.003.804.41 1.208 1.233 1.21.29 0 .646-.07 1.068-.214.424-.143.76-.295 1.007-.46.064 0 .105.026.124.078.02.052-.01.12-.09.202-.416.187-.942.388-1.58.604-.64.217-1.427.344-2.354.382-.35-.02-.607-.134-.772-.342s-.246-.475-.246-.805c.002-.33.063-.7.19-1.112.207-.597.442-1.2.702-1.808.258-.607.502-1.148.73-1.622.084-.166.125-.34.126-.526 0-.29-.154-.484-.464-.59-.31-.103-.607-.155-.896-.156-.497 0-1.02.007-1.58.026-.554.018-1.107.047-1.653.085-.547.04-1.067.085-1.562.135-.496.05-.92.105-1.27.167-.125.02-.227.07-.31.153-.082.083-.166.186-.25.31-.475.823-1 1.704-1.57 2.64-.57.937-1.04 1.868-1.416 2.796-.04.123-.082.206-.124.247-.042.04-.144.06-.31.06-.186 0-.35.005-.495.014-.143.012-.278.037-.403.078-.123.042-.256.092-.4.154-.146.06-.32.15-.527.268l-.093-.064zM44.9 13.362c-.534.54-1.07 1.03-1.614 1.474-.543.445-1.082.8-1.612 1.07-.534.268-1.022.402-1.466.4-.386 0-.657-.098-.81-.292-.154-.194-.232-.435-.232-.725 0-.272.084-.634.25-1.09.165-.452.415-.94.745-1.46-.252.328-.543.675-.874 1.042-.33.368-.667.707-1.017 1.015-.35.31-.698.562-1.047.753-.348.192-.66.288-.93.288-.404 0-.607-.204-.607-.61.004-.447.18-1.008.527-1.684.35-.676.82-1.328 1.412-1.955.593-.63 1.265-1.17 2.02-1.622.756-.453 1.54-.678 2.352-.676.097-.193.185-.328.262-.405s.154-.135.233-.174l.81-.23.06.03c-.098.097-.19.217-.276.362-.088.145-.18.295-.278.45.096 0 .24.01.435.028.193.02.337.04.436.06.095.04.145.088.145.145 0 .06-.03.088-.087.088-.116-.04-.29-.068-.52-.088-.235-.02-.407-.03-.522-.03-.896 1.563-1.55 2.804-1.97 3.72-.417.918-.626 1.6-.627 2.045-.003.175.04.32.127.436.088.116.267.174.538.175.31 0 .676-.11 1.102-.33.425-.22.88-.53 1.364-.925.486-.396.985-.853 1.5-1.375.512-.52 1.003-1.07 1.467-1.65.04-.058.077-.072.116-.043.038.03.06.073.06.13-.45.56-.94 1.11-1.473 1.65zm-3.05-3.86c-.657-.002-1.286.228-1.886.69-.6.462-1.134 1.007-1.598 1.634-.467.626-.84 1.25-1.124 1.867-.28.618-.42 1.072-.423 1.363 0 .154.057.23.172.23.116 0 .295-.075.538-.228.24-.154.513-.36.813-.622.3-.26.616-.563.944-.91.33-.347.63-.724.903-1.13.31-.46.61-.954.902-1.475.29-.52.553-.983.79-1.39l-.032-.03zM56.866 2.73c-.158.382-.382.826-.674 1.33-.29.504-.647 1.043-1.067 1.618-.42.574-.897 1.146-1.43 1.712-.533.568-1.12 1.11-1.758 1.626-.64.517-1.324.974-2.047 1.37-.128.228-.305.532-.534.916-.228.383-.453.787-.674 1.214-.222.425-.415.844-.576 1.256-.165.412-.248.76-.25 1.044 0 .456.204.683.617.684.354 0 .725-.098 1.11-.295.384-.2.75-.438 1.098-.722.35-.283.678-.584.985-.903.305-.32.567-.606.78-.862.1-.1.156-.124.17-.074.013.05-.008.103-.064.16-.255.326-.56.667-.908 1.02-.35.356-.72.682-1.11.98-.393.297-.8.54-1.23.73-.423.192-.852.287-1.277.285-.372 0-.64-.092-.804-.27-.162-.178-.245-.395-.244-.65.002-.256.11-.623.333-1.098.22-.476.48-.976.782-1.5.3-.526.6-1.023.9-1.492.297-.467.52-.822.66-1.063.243-.41.49-.842.75-1.29.256-.446.513-.882.77-1.308.256-.427.505-.835.748-1.225.242-.39.463-.734.664-1.033.24-.37.492-.716.75-1.043.255-.327.582-.653.98-.98.54-.452 1.038-.8 1.493-1.04.455-.242.76-.36.917-.36.114 0 .206.033.276.097.072.063.107.16.107.288-.005.198-.083.49-.24.874zm-.997-.66c-.073 0-.15.02-.236.062-.084.042-.197.13-.33.266-.138.135-.3.323-.492.563-.193.242-.438.554-.738.936-.112.157-.273.384-.48.682-.208.298-.47.69-.79 1.18-.322.49-.707 1.093-1.156 1.81-.45.716-.98 1.564-1.593 2.542.852-.48 1.652-1.065 2.4-1.752.747-.686 1.39-1.392 1.932-2.115s.97-1.426 1.283-2.107c.314-.68.473-1.256.474-1.725 0-.227-.09-.34-.275-.34zM61.19 14.842c.447-.67 1.014-1.455 1.697-2.358s1.44-1.885 2.273-2.947c.833-1.063 1.654-2.1 2.466-3.108.813-1.01 1.576-1.95 2.29-2.82.716-.87 1.3-1.572 1.746-2.103.45-.147.8-.258 1.057-.333.253-.072.456-.142.605-.205.128.04.15.106.063.19-.254.17-.416.415-.48.733-.087.49-.174 1.074-.26 1.754-.086.68-.17 1.404-.245 2.17-.078.767-.15 1.554-.214 2.362-.068.807-.124 1.572-.168 2.296-.044.723-.08 1.388-.102 1.995s-.036 1.09-.037 1.453c0 .213.016.356.05.43.03.076.072.108.125.097.053-.01.11-.053.176-.127.063-.074.128-.155.19-.24.236-.297.62-.77 1.154-1.417.534-.647 1.142-1.38 1.827-2.197.683-.818 1.408-1.672 2.177-2.565.767-.89 1.505-1.734 2.21-2.53.706-.796 1.34-1.502 1.91-2.118.568-.615.99-1.062 1.267-1.337.34-.17.755-.327 1.245-.475.49-.147.886-.315 1.184-.502.062 0 .115.027.157.08.042.055.042.112 0 .176-.362.147-.624.274-.784.38-.16.105-.293.307-.4.605-.258.808-.527 1.75-.806 2.822-.28 1.076-.532 2.175-.76 3.303-.225 1.127-.41 2.228-.55 3.303-.142 1.074-.213 2.016-.216 2.824 0 .298.068.507.205.624.14.118.304.177.496.177.194 0 .404-.02.64-.06.233-.044.446-.106.64-.192.04 0 .067.028.078.08.01.055-.005.103-.047.145-.235.064-.49.138-.767.223-.277.084-.56.17-.846.253l-.816.24c-.256.074-.46.13-.61.174-.256 0-.464-.05-.625-.145-.16-.096-.26-.272-.302-.528.02-.298.098-.787.23-1.468.13-.68.29-1.447.486-2.297.193-.85.403-1.745.63-2.68.228-.935.44-1.802.633-2.6.193-.796.362-1.47.502-2.024s.22-.884.242-.99c.084-.32.084-.473 0-.463-.084.01-.213.09-.383.24-.622.55-1.376 1.31-2.263 2.275-.888.965-1.812 2.01-2.772 3.136-.962 1.124-1.896 2.27-2.802 3.438-.91 1.168-1.682 2.208-2.325 3.122-.04.085-.093.187-.156.304-.067.117-.12.25-.162.398-.404.02-.708.076-.91.172-.203.093-.41.236-.625.425-.126.04-.202.02-.22-.064.062-.444.132-1.038.21-1.782s.153-1.562.23-2.455c.078-.894.148-1.814.215-2.762.066-.946.133-1.84.198-2.68.067-.84.12-1.58.167-2.218.044-.637.078-1.095.098-1.372.002-.404-.168-.405-.51 0-.62.7-1.352 1.58-2.194 2.642-.842 1.063-1.69 2.166-2.544 3.313-.854 1.146-1.66 2.277-2.42 3.39-.758 1.116-1.363 2.067-1.813 2.853-.382.7-.614 1.228-.688 1.59-.078.36-.106.66-.085.894.02.234 0 .334-.063.302-.065-.032-.128-.11-.19-.24-.066-.127-.118-.32-.16-.574-.043-.256-.115-.607-.22-1.054.066-.235.322-.687.772-1.356zM92.527 13.732c-.602.54-1.154.974-1.656 1.3-.387.25-.783.443-1.19.576-.407.135-.773.203-1.102.2-.115 0-.253-.01-.407-.03-.154-.02-.294-.068-.417-.145-.126-.078-.233-.18-.32-.306-.087-.125-.13-.294-.13-.508.002-.25.1-.595.295-1.03.193-.433.42-.882.685-1.345.26-.464.522-.908.787-1.333.26-.423.47-.743.625-.955.1-.154.267-.284.51-.39.24-.105.4-.158.477-.157.098 0 .146.03.146.086 0 .04-.017.097-.045.173-.03.077-.062.135-.102.174-.27.385-.532.81-.786 1.274-.253.462-.484.91-.698 1.346-.215.435-.387.835-.513 1.202s-.19.657-.19.87c0 .232.062.4.186.508.125.106.295.16.506.16.39.002.814-.127 1.278-.387.465-.26.925-.573 1.38-.94.456-.364.877-.75 1.264-1.155.39-.405.688-.75.903-1.04.097-.097.15-.122.162-.073.007.048-.007.12-.046.216-.467.598-1 1.167-1.6 1.706zm.006-7.488c-.204.23-.43.347-.683.347-.23 0-.348-.116-.348-.348.002-.252.095-.493.278-.724.185-.232.412-.347.683-.347.25.003.377.128.375.38 0 .23-.103.463-.305.694zM105.09 2.864c-.158.383-.38.827-.674 1.33-.292.504-.646 1.044-1.067 1.62-.42.573-.897 1.144-1.432 1.71-.533.568-1.12 1.11-1.758 1.628-.642.516-1.325.974-2.048 1.37-.127.226-.306.532-.534.914-.228.383-.453.788-.674 1.214-.22.426-.412.845-.576 1.257-.167.412-.25.76-.25 1.044 0 .457.204.684.616.686.357 0 .726-.097 1.11-.295.385-.198.75-.438 1.102-.722.347-.28.674-.583.98-.902.31-.318.568-.606.783-.862.097-.098.153-.123.167-.074s-.006.104-.063.16c-.256.327-.56.667-.91 1.02-.347.355-.72.68-1.11.98-.392.296-.8.54-1.228.73-.426.193-.854.287-1.28.286-.37-.002-.638-.09-.803-.27-.16-.178-.244-.396-.244-.65 0-.257.11-.623.333-1.1.22-.475.48-.976.78-1.5.3-.525.6-1.02.9-1.49.3-.47.52-.824.663-1.065.242-.41.492-.84.75-1.287.256-.447.513-.884.77-1.31.254-.426.504-.833.746-1.223.242-.392.463-.735.663-1.033.242-.37.492-.716.75-1.042.255-.327.582-.652.98-.978.54-.454 1.04-.802 1.495-1.04.453-.24.758-.362.915-.36.114 0 .206.032.277.096.07.065.104.16.104.288 0 .2-.078.49-.236.874zm-.998-.66c-.07 0-.15.02-.235.063-.086.043-.194.13-.332.266-.133.134-.297.323-.49.563-.193.24-.438.553-.737.936-.112.156-.274.383-.48.68-.21.3-.47.692-.79 1.182-.323.49-.707 1.093-1.156 1.81-.45.715-.98 1.562-1.593 2.54.852-.48 1.652-1.063 2.4-1.75s1.39-1.392 1.93-2.115c.54-.724.97-1.427 1.284-2.107.314-.68.472-1.256.475-1.726 0-.228-.093-.342-.278-.343zM109.29 13.678c-.457.436-.95.83-1.48 1.19-.536.356-1.09.646-1.67.868-.583.22-1.145.33-1.685.33-.91-.003-1.363-.412-1.36-1.226 0-.542.142-1.124.425-1.743.282-.62.647-1.2 1.092-1.74.446-.543.93-.992 1.454-1.35.524-.357 1.037-.535 1.54-.534.27 0 .46.05.564.147.107.097.158.223.158.377 0 .233-.074.484-.218.754-.147.272-.364.527-.657.77-.288.24-.663.442-1.116.605-.455.164-.983.245-1.58.244-.1.172-.206.447-.324.823-.116.377-.176.76-.176 1.145-.003.792.354 1.19 1.068 1.192.446 0 .906-.103 1.38-.315.473-.21.934-.476 1.378-.793.446-.318.857-.665 1.236-1.04.376-.376.693-.728.943-1.058.042-.038.084-.047.133-.028.045.02.07.06.07.116-.33.41-.72.83-1.176 1.266zm-2.23-3.912c-.193 0-.394.072-.597.216-.204.145-.4.333-.596.563-.195.23-.377.482-.553.752-.173.27-.32.53-.436.782.037.02.106.034.2.043.1.01.176.016.232.016.562 0 1.055-.196 1.48-.59.427-.396.64-.864.644-1.406.002-.25-.125-.378-.374-.378zM115.467 10.606c-.115-.252-.357-.38-.723-.38-.274 0-.545.076-.817.23-.27.155-.407.386-.41.696 0 .154.05.31.146.464.097.155.23.36.404.61.156.232.3.466.436.698.135.233.203.475.203.726-.004.503-.12.914-.355 1.233-.232.318-.507.575-.83.766-.32.192-.644.32-.972.388-.33.066-.59.1-.78.1-1.18-.004-1.828-.403-1.943-1.198.098-.058.21-.13.336-.216.125-.087.22-.17.276-.247.04 0 .066.04.088.117.095.348.277.648.547.9.272.25.59.378.958.378.152.002.337-.013.55-.04.212-.03.41-.092.595-.188.185-.097.343-.247.48-.45.135-.202.205-.468.205-.797.002-.25-.048-.483-.143-.696-.098-.21-.204-.406-.318-.58-.115-.195-.23-.388-.347-.582-.115-.193-.173-.407-.173-.64.002-.23.087-.482.25-.752.166-.27.373-.517.624-.74.254-.22.53-.408.832-.562.303-.154.598-.23.89-.23.308.002.463.1.46.292-.058.097-.116.208-.175.333-.06.124-.107.236-.146.332-.055.1-.106.11-.143.034z"/></g><g stroke="#006461" stroke-width=".877" fill="none"><path d="M16.077 16.026l.48-.71c.2-.29.465-.68.795-1.174l1.26-1.884c.506-.76 1.12-1.708 1.848-2.84-.245-.372-.4-.65-.46-.837.018-.102.122-.154.308-.153h.525c.146.002.25-.08.313-.245.1-.185.284-.515.544-.988.257-.474.527-.98.808-1.514.28-.535.523-1.04.73-1.514.207-.473.313-.792.313-.958 0-.248-.06-.402-.184-.465-.124-.06-.32-.093-.588-.094-.227-.002-.49.002-.788.012-.3.01-.562.036-.79.075-.123 0-.185-.062-.185-.186 0-.122.083-.185.25-.184.246 0 .55-.003.912-.013.36-.01.742-.028 1.146-.06.4-.028.804-.054 1.206-.073.4-.02.767-.05 1.097-.09.207 0 .237.135.09.402-.206.288-.427.618-.666.99-.238.37-.46.73-.668 1.08-.31.536-.65 1.143-1.025 1.822-.374.68-.704 1.298-.996 1.854-.06.103-.097.184-.108.247-.01.06.046.093.17.093.475.02.912.04 1.315.05.4.01.77.017 1.098.018.186 0 .5-.008.943-.027.444-.022.92-.04 1.426-.06.505-.02.993-.043 1.468-.073.474-.03.846-.065 1.113-.105.105-.02.197-.062.28-.123.084-.063.145-.135.187-.217.622-1.195 1.2-2.286 1.743-3.275.537-.988 1.088-1.936 1.646-2.842.103-.144.24-.256.405-.34.208-.122.517-.275.93-.46.41-.186.847-.364 1.3-.54.454-.173.878-.32 1.27-.444.388-.12.678-.183.862-.182.042 0 .116.01.218.032.102.02.155.06.155.12 0 .04-.042.072-.125.093-.083.02-.144.03-.185.03-.063 0-.186.016-.372.046-.186.032-.392.083-.618.154-.23.07-.46.164-.7.276-.236.113-.45.252-.633.417-.497.41-.962.905-1.398 1.48-.29.413-.592.856-.9 1.33s-.612.958-.903 1.45c-.288.497-.57.99-.84 1.485-.267.494-.505.958-.714 1.39-.746 1.546-1.287 2.793-1.62 3.74-.33.95-.5 1.64-.5 2.074-.003.804.41 1.208 1.233 1.21.29 0 .646-.07 1.068-.214.424-.143.76-.295 1.007-.46.064 0 .105.026.124.078.02.052-.01.12-.09.202-.416.187-.942.388-1.58.604-.64.217-1.427.344-2.354.382-.35-.02-.607-.134-.772-.342s-.246-.475-.246-.805c.002-.33.063-.7.19-1.112.207-.597.442-1.2.702-1.808.258-.607.502-1.148.73-1.622.084-.166.125-.34.126-.526 0-.29-.154-.484-.464-.59-.31-.103-.607-.155-.896-.156-.497 0-1.02.007-1.58.026-.554.018-1.107.047-1.653.085-.547.04-1.067.085-1.562.135-.496.05-.92.105-1.27.167-.125.02-.227.07-.31.153-.082.083-.166.186-.25.31-.475.823-1 1.704-1.57 2.64-.57.937-1.04 1.868-1.416 2.796-.04.123-.082.206-.124.247-.042.04-.144.06-.31.06-.186 0-.35.005-.495.014-.143.012-.278.037-.403.078-.123.042-.256.092-.4.154-.146.06-.32.15-.527.268l-.093-.064zM44.9 13.362c-.534.54-1.07 1.03-1.614 1.474-.543.445-1.082.8-1.612 1.07-.534.268-1.022.402-1.466.4-.386 0-.657-.098-.81-.292-.154-.194-.232-.435-.232-.725 0-.272.084-.634.25-1.09.165-.452.415-.94.745-1.46-.252.328-.543.675-.874 1.042-.33.368-.667.707-1.017 1.015-.35.31-.698.562-1.047.753-.348.192-.66.288-.93.288-.404 0-.607-.204-.607-.61.004-.447.18-1.008.527-1.684.35-.676.82-1.328 1.412-1.955.593-.63 1.265-1.17 2.02-1.622.756-.453 1.54-.678 2.352-.676.097-.193.185-.328.262-.405s.154-.135.233-.174l.81-.23.06.03c-.098.097-.19.217-.276.362-.088.145-.18.295-.278.45.096 0 .24.01.435.028.193.02.337.04.436.06.095.04.145.088.145.145 0 .06-.03.088-.087.088-.116-.04-.29-.068-.52-.088-.235-.02-.407-.03-.522-.03-.896 1.563-1.55 2.804-1.97 3.72-.417.918-.626 1.6-.627 2.045-.003.175.04.32.127.436.088.116.267.174.538.175.31 0 .676-.11 1.102-.33.425-.22.88-.53 1.364-.925.486-.396.985-.853 1.5-1.375.512-.52 1.003-1.07 1.467-1.65.04-.058.077-.072.116-.043.038.03.06.073.06.13-.45.56-.94 1.11-1.473 1.65zm-3.05-3.86c-.657-.002-1.286.228-1.886.69-.6.462-1.134 1.007-1.598 1.634-.467.626-.84 1.25-1.124 1.867-.28.618-.42 1.072-.423 1.363 0 .154.057.23.172.23.116 0 .295-.075.538-.228.24-.154.513-.36.813-.622.3-.26.616-.563.944-.91.33-.347.63-.724.903-1.13.31-.46.61-.954.902-1.475.29-.52.553-.983.79-1.39l-.032-.03zM56.866 2.73c-.158.382-.382.826-.674 1.33-.29.504-.647 1.043-1.067 1.618-.42.574-.897 1.146-1.43 1.712-.533.568-1.12 1.11-1.758 1.626-.64.517-1.324.974-2.047 1.37-.128.228-.305.532-.534.916-.228.383-.453.787-.674 1.214-.222.425-.415.844-.576 1.256-.165.412-.248.76-.25 1.044 0 .456.204.683.617.684.354 0 .725-.098 1.11-.295.384-.2.75-.438 1.098-.722.35-.283.678-.584.985-.903.305-.32.567-.606.78-.862.1-.1.156-.124.17-.074.013.05-.008.103-.064.16-.255.326-.56.667-.908 1.02-.35.356-.72.682-1.11.98-.393.297-.8.54-1.23.73-.423.192-.852.287-1.277.285-.372 0-.64-.092-.804-.27-.162-.178-.245-.395-.244-.65.002-.256.11-.623.333-1.098.22-.476.48-.976.782-1.5.3-.526.6-1.023.9-1.492.297-.467.52-.822.66-1.063.243-.41.49-.842.75-1.29.256-.446.513-.882.77-1.308.256-.427.505-.835.748-1.225.242-.39.463-.734.664-1.033.24-.37.492-.716.75-1.043.255-.327.582-.653.98-.98.54-.452 1.038-.8 1.493-1.04.455-.242.76-.36.917-.36.114 0 .206.033.276.097.072.063.107.16.107.288-.005.198-.083.49-.24.874zm-.997-.66c-.073 0-.15.02-.236.062-.084.042-.197.13-.33.266-.138.135-.3.323-.492.563-.193.242-.438.554-.738.936-.112.157-.273.384-.48.682-.208.298-.47.69-.79 1.18-.322.49-.707 1.093-1.156 1.81-.45.716-.98 1.564-1.593 2.542.852-.48 1.652-1.065 2.4-1.752.747-.686 1.39-1.392 1.932-2.115s.97-1.426 1.283-2.107c.314-.68.473-1.256.474-1.725 0-.227-.09-.34-.275-.34zM61.19 14.842c.447-.67 1.014-1.455 1.697-2.358s1.44-1.885 2.273-2.947c.833-1.063 1.654-2.1 2.466-3.108.813-1.01 1.576-1.95 2.29-2.82.716-.87 1.3-1.572 1.746-2.103.45-.147.8-.258 1.057-.333.253-.072.456-.142.605-.205.128.04.15.106.063.19-.254.17-.416.415-.48.733-.087.49-.174 1.074-.26 1.754-.086.68-.17 1.404-.245 2.17-.078.767-.15 1.554-.214 2.362-.068.807-.124 1.572-.168 2.296-.044.723-.08 1.388-.102 1.995s-.036 1.09-.037 1.453c0 .213.016.356.05.43.03.076.072.108.125.097.053-.01.11-.053.176-.127.063-.074.128-.155.19-.24.236-.297.62-.77 1.154-1.417.534-.647 1.142-1.38 1.827-2.197.683-.818 1.408-1.672 2.177-2.565.767-.89 1.505-1.734 2.21-2.53.706-.796 1.34-1.502 1.91-2.118.568-.615.99-1.062 1.267-1.337.34-.17.755-.327 1.245-.475.49-.147.886-.315 1.184-.502.062 0 .115.027.157.08.042.055.042.112 0 .176-.362.147-.624.274-.784.38-.16.105-.293.307-.4.605-.258.808-.527 1.75-.806 2.822-.28 1.076-.532 2.175-.76 3.303-.225 1.127-.41 2.228-.55 3.303-.142 1.074-.213 2.016-.216 2.824 0 .298.068.507.205.624.14.118.304.177.496.177.194 0 .404-.02.64-.06.233-.044.446-.106.64-.192.04 0 .067.028.078.08.01.055-.005.103-.047.145-.235.064-.49.138-.767.223-.277.084-.56.17-.846.253l-.816.24c-.256.074-.46.13-.61.174-.256 0-.464-.05-.625-.145-.16-.096-.26-.272-.302-.528.02-.298.098-.787.23-1.468.13-.68.29-1.447.486-2.297.193-.85.403-1.745.63-2.68.228-.935.44-1.802.633-2.6.193-.796.362-1.47.502-2.024s.22-.884.242-.99c.084-.32.084-.473 0-.463-.084.01-.213.09-.383.24-.622.55-1.376 1.31-2.263 2.275-.888.965-1.812 2.01-2.772 3.136-.962 1.124-1.896 2.27-2.802 3.438-.91 1.168-1.682 2.208-2.325 3.122-.04.085-.093.187-.156.304-.067.117-.12.25-.162.398-.404.02-.708.076-.91.172-.203.093-.41.236-.625.425-.126.04-.202.02-.22-.064.062-.444.132-1.038.21-1.782s.153-1.562.23-2.455c.078-.894.148-1.814.215-2.762.066-.946.133-1.84.198-2.68.067-.84.12-1.58.167-2.218.044-.637.078-1.095.098-1.372.002-.404-.168-.405-.51 0-.62.7-1.352 1.58-2.194 2.642-.842 1.063-1.69 2.166-2.544 3.313-.854 1.146-1.66 2.277-2.42 3.39-.758 1.116-1.363 2.067-1.813 2.853-.382.7-.614 1.228-.688 1.59-.078.36-.106.66-.085.894.02.234 0 .334-.063.302-.065-.032-.128-.11-.19-.24-.066-.127-.118-.32-.16-.574-.043-.256-.115-.607-.22-1.054.066-.235.322-.687.772-1.356zM92.527 13.732c-.602.54-1.154.974-1.656 1.3-.387.25-.783.443-1.19.576-.407.135-.773.203-1.102.2-.115 0-.253-.01-.407-.03-.154-.02-.294-.068-.417-.145-.126-.078-.233-.18-.32-.306-.087-.125-.13-.294-.13-.508.002-.25.1-.595.295-1.03.193-.433.42-.882.685-1.345.26-.464.522-.908.787-1.333.26-.423.47-.743.625-.955.1-.154.267-.284.51-.39.24-.105.4-.158.477-.157.098 0 .146.03.146.086 0 .04-.017.097-.045.173-.03.077-.062.135-.102.174-.27.385-.532.81-.786 1.274-.253.462-.484.91-.698 1.346-.215.435-.387.835-.513 1.202s-.19.657-.19.87c0 .232.062.4.186.508.125.106.295.16.506.16.39.002.814-.127 1.278-.387.465-.26.925-.573 1.38-.94.456-.364.877-.75 1.264-1.155.39-.405.688-.75.903-1.04.097-.097.15-.122.162-.073.007.048-.007.12-.046.216-.467.598-1 1.167-1.6 1.706zm.006-7.488c-.204.23-.43.347-.683.347-.23 0-.348-.116-.348-.348.002-.252.095-.493.278-.724.185-.232.412-.347.683-.347.25.003.377.128.375.38 0 .23-.103.463-.305.694zM105.09 2.864c-.158.383-.38.827-.674 1.33-.292.504-.646 1.044-1.067 1.62-.42.573-.897 1.144-1.432 1.71-.533.568-1.12 1.11-1.758 1.628-.642.516-1.325.974-2.048 1.37-.127.226-.306.532-.534.914-.228.383-.453.788-.674 1.214-.22.426-.412.845-.576 1.257-.167.412-.25.76-.25 1.044 0 .457.204.684.616.686.357 0 .726-.097 1.11-.295.385-.198.75-.438 1.102-.722.347-.28.674-.583.98-.902.31-.318.568-.606.783-.862.097-.098.153-.123.167-.074s-.006.104-.063.16c-.256.327-.56.667-.91 1.02-.347.355-.72.68-1.11.98-.392.296-.8.54-1.228.73-.426.193-.854.287-1.28.286-.37-.002-.638-.09-.803-.27-.16-.178-.244-.396-.244-.65 0-.257.11-.623.333-1.1.22-.475.48-.976.78-1.5.3-.525.6-1.02.9-1.49.3-.47.52-.824.663-1.065.242-.41.492-.84.75-1.287.256-.447.513-.884.77-1.31.254-.426.504-.833.746-1.223.242-.392.463-.735.663-1.033.242-.37.492-.716.75-1.042.255-.327.582-.652.98-.978.54-.454 1.04-.802 1.495-1.04.453-.24.758-.362.915-.36.114 0 .206.032.277.096.07.065.104.16.104.288 0 .2-.078.49-.236.874zm-.998-.66c-.07 0-.15.02-.235.063-.086.043-.194.13-.332.266-.133.134-.297.323-.49.563-.193.24-.438.553-.737.936-.112.156-.274.383-.48.68-.21.3-.47.692-.79 1.182-.323.49-.707 1.093-1.156 1.81-.45.715-.98 1.562-1.593 2.54.852-.48 1.652-1.063 2.4-1.75s1.39-1.392 1.93-2.115c.54-.724.97-1.427 1.284-2.107.314-.68.472-1.256.475-1.726 0-.228-.093-.342-.278-.343zM109.29 13.678c-.457.436-.95.83-1.48 1.19-.536.356-1.09.646-1.67.868-.583.22-1.145.33-1.685.33-.91-.003-1.363-.412-1.36-1.226 0-.542.142-1.124.425-1.743.282-.62.647-1.2 1.092-1.74.446-.543.93-.992 1.454-1.35.524-.357 1.037-.535 1.54-.534.27 0 .46.05.564.147.107.097.158.223.158.377 0 .233-.074.484-.218.754-.147.272-.364.527-.657.77-.288.24-.663.442-1.116.605-.455.164-.983.245-1.58.244-.1.172-.206.447-.324.823-.116.377-.176.76-.176 1.145-.003.792.354 1.19 1.068 1.192.446 0 .906-.103 1.38-.315.473-.21.934-.476 1.378-.793.446-.318.857-.665 1.236-1.04.376-.376.693-.728.943-1.058.042-.038.084-.047.133-.028.045.02.07.06.07.116-.33.41-.72.83-1.176 1.266zm-2.23-3.912c-.193 0-.394.072-.597.216-.204.145-.4.333-.596.563-.195.23-.377.482-.553.752-.173.27-.32.53-.436.782.037.02.106.034.2.043.1.01.176.016.232.016.562 0 1.055-.196 1.48-.59.427-.396.64-.864.644-1.406.002-.25-.125-.378-.374-.378zM115.467 10.606c-.115-.252-.357-.38-.723-.38-.274 0-.545.076-.817.23-.27.155-.407.386-.41.696 0 .154.05.31.146.464.097.155.23.36.404.61.156.232.3.466.436.698.135.233.203.475.203.726-.004.503-.12.914-.355 1.233-.232.318-.507.575-.83.766-.32.192-.644.32-.972.388-.33.066-.59.1-.78.1-1.18-.004-1.828-.403-1.943-1.198.098-.058.21-.13.336-.216.125-.087.22-.17.276-.247.04 0 .066.04.088.117.095.348.277.648.547.9.272.25.59.378.958.378.152.002.337-.013.55-.04.212-.03.41-.092.595-.188.185-.097.343-.247.48-.45.135-.202.205-.468.205-.797.002-.25-.048-.483-.143-.696-.098-.21-.204-.406-.318-.58-.115-.195-.23-.388-.347-.582-.115-.193-.173-.407-.173-.64.002-.23.087-.482.25-.752.166-.27.373-.517.624-.74.254-.22.53-.408.832-.562.303-.154.598-.23.89-.23.308.002.463.1.46.292-.058.097-.116.208-.175.333-.06.124-.107.236-.146.332-.055.1-.106.11-.143.034z"/></g><linearGradient id="a" gradientUnits="userSpaceOnUse" x1="66.003" y1="-.905" x2="66.003" y2="16.208"><stop offset="0" stop-color="#5592C9"/><stop offset=".494" stop-color="#CEDCE8"/><stop offset="1" stop-color="#5592C9"/></linearGradient><path d="M16.077 16.026l.48-.71c.2-.29.465-.68.795-1.174l1.26-1.884c.506-.76 1.12-1.708 1.848-2.84-.245-.372-.4-.65-.46-.837.018-.102.122-.154.308-.153h.525c.146.002.25-.08.313-.245.1-.185.284-.515.544-.988.257-.474.527-.98.808-1.514.28-.535.523-1.04.73-1.514.207-.473.313-.792.313-.958 0-.248-.06-.402-.184-.465-.124-.06-.32-.093-.588-.094-.227-.002-.49.002-.788.012-.3.01-.562.036-.79.075-.123 0-.185-.062-.185-.186 0-.122.083-.185.25-.184.246 0 .55-.003.912-.013.36-.01.742-.028 1.146-.06.4-.028.804-.054 1.206-.073.4-.02.767-.05 1.097-.09.207 0 .237.135.09.402-.206.288-.427.618-.666.99-.238.37-.46.73-.668 1.08-.31.536-.65 1.143-1.025 1.822-.374.68-.704 1.298-.996 1.854-.06.103-.097.184-.108.247-.01.06.046.093.17.093.475.02.912.04 1.315.05.4.01.77.017 1.098.018.186 0 .5-.008.943-.027.444-.022.92-.04 1.426-.06.505-.02.993-.043 1.468-.073.474-.03.846-.065 1.113-.105.105-.02.197-.062.28-.123.084-.063.145-.135.187-.217.622-1.195 1.2-2.286 1.743-3.275.537-.988 1.088-1.936 1.646-2.842.103-.144.24-.256.405-.34.208-.122.517-.275.93-.46.41-.186.847-.364 1.3-.54.454-.173.878-.32 1.27-.444.388-.12.678-.183.862-.182.042 0 .116.01.218.032.102.02.155.06.155.12 0 .04-.042.072-.125.093-.083.02-.144.03-.185.03-.063 0-.186.016-.372.046-.186.032-.392.083-.618.154-.23.07-.46.164-.7.276-.236.113-.45.252-.633.417-.497.41-.962.905-1.398 1.48-.29.413-.592.856-.9 1.33s-.612.958-.903 1.45c-.288.497-.57.99-.84 1.485-.267.494-.505.958-.714 1.39-.746 1.546-1.287 2.793-1.62 3.74-.33.95-.5 1.64-.5 2.074-.003.804.41 1.208 1.233 1.21.29 0 .646-.07 1.068-.214.424-.143.76-.295 1.007-.46.064 0 .105.026.124.078.02.052-.01.12-.09.202-.416.187-.942.388-1.58.604-.64.217-1.427.344-2.354.382-.35-.02-.607-.134-.772-.342s-.246-.475-.246-.805c.002-.33.063-.7.19-1.112.207-.597.442-1.2.702-1.808.258-.607.502-1.148.73-1.622.084-.166.125-.34.126-.526 0-.29-.154-.484-.464-.59-.31-.103-.607-.155-.896-.156-.497 0-1.02.007-1.58.026-.554.018-1.107.047-1.653.085-.547.04-1.067.085-1.562.135-.496.05-.92.105-1.27.167-.125.02-.227.07-.31.153-.082.083-.166.186-.25.31-.475.823-1 1.704-1.57 2.64-.57.937-1.04 1.868-1.416 2.796-.04.123-.082.206-.124.247-.042.04-.144.06-.31.06-.186 0-.35.005-.495.014-.143.012-.278.037-.403.078-.123.042-.256.092-.4.154-.146.06-.32.15-.527.268l-.093-.064z" fill="url(#a)"/><linearGradient id="b" gradientUnits="userSpaceOnUse" x1="66.003" y1="-.905" x2="66.003" y2="16.208"><stop offset="0" stop-color="#5592C9"/><stop offset=".494" stop-color="#CEDCE8"/><stop offset="1" stop-color="#5592C9"/></linearGradient><path d="M44.9 13.362c-.534.54-1.07 1.03-1.614 1.474-.543.445-1.082.8-1.612 1.07-.534.268-1.022.402-1.466.4-.386 0-.657-.098-.81-.292-.154-.194-.232-.435-.232-.725 0-.272.084-.634.25-1.09.165-.452.415-.94.745-1.46-.252.328-.543.675-.874 1.042-.33.368-.667.707-1.017 1.015-.35.31-.698.562-1.047.753-.348.192-.66.288-.93.288-.404 0-.607-.204-.607-.61.004-.447.18-1.008.527-1.684.35-.676.82-1.328 1.412-1.955.593-.63 1.265-1.17 2.02-1.622.756-.453 1.54-.678 2.352-.676.097-.193.185-.328.262-.405s.154-.135.233-.174l.81-.23.06.03c-.098.097-.19.217-.276.362-.088.145-.18.295-.278.45.096 0 .24.01.435.028.193.02.337.04.436.06.095.04.145.088.145.145 0 .06-.03.088-.087.088-.116-.04-.29-.068-.52-.088-.235-.02-.407-.03-.522-.03-.896 1.563-1.55 2.804-1.97 3.72-.417.918-.626 1.6-.627 2.045-.003.175.04.32.127.436.088.116.267.174.538.175.31 0 .676-.11 1.102-.33.425-.22.88-.53 1.364-.925.486-.396.985-.853 1.5-1.375.512-.52 1.003-1.07 1.467-1.65.04-.058.077-.072.116-.043.038.03.06.073.06.13-.45.56-.94 1.11-1.473 1.65zm-3.05-3.86c-.657-.002-1.286.228-1.886.69-.6.462-1.134 1.007-1.598 1.634-.467.626-.84 1.25-1.124 1.867-.28.618-.42 1.072-.423 1.363 0 .154.057.23.172.23.116 0 .295-.075.538-.228.24-.154.513-.36.813-.622.3-.26.616-.563.944-.91.33-.347.63-.724.903-1.13.31-.46.61-.954.902-1.475.29-.52.553-.983.79-1.39l-.032-.03z" fill="url(#b)"/><linearGradient id="c" gradientUnits="userSpaceOnUse" x1="66.003" y1="-.905" x2="66.003" y2="16.208"><stop offset="0" stop-color="#5592C9"/><stop offset=".494" stop-color="#CEDCE8"/><stop offset="1" stop-color="#5592C9"/></linearGradient><path d="M56.866 2.73c-.158.382-.382.826-.674 1.33-.29.504-.647 1.043-1.067 1.618-.42.574-.897 1.146-1.43 1.712-.533.568-1.12 1.11-1.758 1.626-.64.517-1.324.974-2.047 1.37-.128.228-.305.532-.534.916-.228.383-.453.787-.674 1.214-.222.425-.415.844-.576 1.256-.165.412-.248.76-.25 1.044 0 .456.204.683.617.684.354 0 .725-.098 1.11-.295.384-.2.75-.438 1.098-.722.35-.283.678-.584.985-.903.305-.32.567-.606.78-.862.1-.1.156-.124.17-.074.013.05-.008.103-.064.16-.255.326-.56.667-.908 1.02-.35.356-.72.682-1.11.98-.393.297-.8.54-1.23.73-.423.192-.852.287-1.277.285-.372 0-.64-.092-.804-.27-.162-.178-.245-.395-.244-.65.002-.256.11-.623.333-1.098.22-.476.48-.976.782-1.5.3-.526.6-1.023.9-1.492.297-.467.52-.822.66-1.063.243-.41.49-.842.75-1.29.256-.446.513-.882.77-1.308.256-.427.505-.835.748-1.225.242-.39.463-.734.664-1.033.24-.37.492-.716.75-1.043.255-.327.582-.653.98-.98.54-.452 1.038-.8 1.493-1.04.455-.242.76-.36.917-.36.114 0 .206.033.276.097.072.063.107.16.107.288-.005.198-.083.49-.24.874zm-.997-.66c-.073 0-.15.02-.236.062-.084.042-.197.13-.33.266-.138.135-.3.323-.492.563-.193.242-.438.554-.738.936-.112.157-.273.384-.48.682-.208.298-.47.69-.79 1.18-.322.49-.707 1.093-1.156 1.81-.45.716-.98 1.564-1.593 2.542.852-.48 1.652-1.065 2.4-1.752.747-.686 1.39-1.392 1.932-2.115s.97-1.426 1.283-2.107c.314-.68.473-1.256.474-1.725 0-.227-.09-.34-.275-.34z" fill="url(#c)"/><linearGradient id="d" gradientUnits="userSpaceOnUse" x1="66.003" y1="-.905" x2="66.003" y2="16.208"><stop offset="0" stop-color="#5592C9"/><stop offset=".494" stop-color="#CEDCE8"/><stop offset="1" stop-color="#5592C9"/></linearGradient><path d="M61.19 14.842c.447-.67 1.014-1.455 1.697-2.358s1.44-1.885 2.273-2.947c.833-1.063 1.654-2.1 2.466-3.108.813-1.01 1.576-1.95 2.29-2.82.716-.87 1.3-1.572 1.746-2.103.45-.147.8-.258 1.057-.333.253-.072.456-.142.605-.205.128.04.15.106.063.19-.254.17-.416.415-.48.733-.087.49-.174 1.074-.26 1.754-.086.68-.17 1.404-.245 2.17-.078.767-.15 1.554-.214 2.362-.068.807-.124 1.572-.168 2.296-.044.723-.08 1.388-.102 1.995s-.036 1.09-.037 1.453c0 .213.016.356.05.43.03.076.072.108.125.097.053-.01.11-.053.176-.127.063-.074.128-.155.19-.24.236-.297.62-.77 1.154-1.417.534-.647 1.142-1.38 1.827-2.197.683-.818 1.408-1.672 2.177-2.565.767-.89 1.505-1.734 2.21-2.53.706-.796 1.34-1.502 1.91-2.118.568-.615.99-1.062 1.267-1.337.34-.17.755-.327 1.245-.475.49-.147.886-.315 1.184-.502.062 0 .115.027.157.08.042.055.042.112 0 .176-.362.147-.624.274-.784.38-.16.105-.293.307-.4.605-.258.808-.527 1.75-.806 2.822-.28 1.076-.532 2.175-.76 3.303-.225 1.127-.41 2.228-.55 3.303-.142 1.074-.213 2.016-.216 2.824 0 .298.068.507.205.624.14.118.304.177.496.177.194 0 .404-.02.64-.06.233-.044.446-.106.64-.192.04 0 .067.028.078.08.01.055-.005.103-.047.145-.235.064-.49.138-.767.223-.277.084-.56.17-.846.253l-.816.24c-.256.074-.46.13-.61.174-.256 0-.464-.05-.625-.145-.16-.096-.26-.272-.302-.528.02-.298.098-.787.23-1.468.13-.68.29-1.447.486-2.297.193-.85.403-1.745.63-2.68.228-.935.44-1.802.633-2.6.193-.796.362-1.47.502-2.024s.22-.884.242-.99c.084-.32.084-.473 0-.463-.084.01-.213.09-.383.24-.622.55-1.376 1.31-2.263 2.275-.888.965-1.812 2.01-2.772 3.136-.962 1.124-1.896 2.27-2.802 3.438-.91 1.168-1.682 2.208-2.325 3.122-.04.085-.093.187-.156.304-.067.117-.12.25-.162.398-.404.02-.708.076-.91.172-.203.093-.41.236-.625.425-.126.04-.202.02-.22-.064.062-.444.132-1.038.21-1.782s.153-1.562.23-2.455c.078-.894.148-1.814.215-2.762.066-.946.133-1.84.198-2.68.067-.84.12-1.58.167-2.218.044-.637.078-1.095.098-1.372.002-.404-.168-.405-.51 0-.62.7-1.352 1.58-2.194 2.642-.842 1.063-1.69 2.166-2.544 3.313-.854 1.146-1.66 2.277-2.42 3.39-.758 1.116-1.363 2.067-1.813 2.853-.382.7-.614 1.228-.688 1.59-.078.36-.106.66-.085.894.02.234 0 .334-.063.302-.065-.032-.128-.11-.19-.24-.066-.127-.118-.32-.16-.574-.043-.256-.115-.607-.22-1.054.066-.235.322-.687.772-1.356z" fill="url(#d)"/><linearGradient id="e" gradientUnits="userSpaceOnUse" x1="66.003" y1="-.905" x2="66.003" y2="16.208"><stop offset="0" stop-color="#5592C9"/><stop offset=".494" stop-color="#CEDCE8"/><stop offset="1" stop-color="#5592C9"/></linearGradient><path d="M92.527 13.732c-.602.54-1.154.974-1.656 1.3-.387.25-.783.443-1.19.576-.407.135-.773.203-1.102.2-.115 0-.253-.01-.407-.03-.154-.02-.294-.068-.417-.145-.126-.078-.233-.18-.32-.306-.087-.125-.13-.294-.13-.508.002-.25.1-.595.295-1.03.193-.433.42-.882.685-1.345.26-.464.522-.908.787-1.333.26-.423.47-.743.625-.955.1-.154.267-.284.51-.39.24-.105.4-.158.477-.157.098 0 .146.03.146.086 0 .04-.017.097-.045.173-.03.077-.062.135-.102.174-.27.385-.532.81-.786 1.274-.253.462-.484.91-.698 1.346-.215.435-.387.835-.513 1.202s-.19.657-.19.87c0 .232.062.4.186.508.125.106.295.16.506.16.39.002.814-.127 1.278-.387.465-.26.925-.573 1.38-.94.456-.364.877-.75 1.264-1.155.39-.405.688-.75.903-1.04.097-.097.15-.122.162-.073.007.048-.007.12-.046.216-.467.598-1 1.167-1.6 1.706zm.006-7.488c-.204.23-.43.347-.683.347-.23 0-.348-.116-.348-.348.002-.252.095-.493.278-.724.185-.232.412-.347.683-.347.25.003.377.128.375.38 0 .23-.103.463-.305.694z" fill="url(#e)"/><linearGradient id="f" gradientUnits="userSpaceOnUse" x1="66.003" y1="-.905" x2="66.003" y2="16.208"><stop offset="0" stop-color="#5592C9"/><stop offset=".494" stop-color="#CEDCE8"/><stop offset="1" stop-color="#5592C9"/></linearGradient><path d="M105.09 2.864c-.158.383-.38.827-.674 1.33-.292.504-.646 1.044-1.067 1.62-.42.573-.897 1.144-1.432 1.71-.533.568-1.12 1.11-1.758 1.628-.642.516-1.325.974-2.048 1.37-.127.226-.306.532-.534.914-.228.383-.453.788-.674 1.214-.22.426-.412.845-.576 1.257-.167.412-.25.76-.25 1.044 0 .457.204.684.616.686.357 0 .726-.097 1.11-.295.385-.198.75-.438 1.102-.722.347-.28.674-.583.98-.902.31-.318.568-.606.783-.862.097-.098.153-.123.167-.074s-.006.104-.063.16c-.256.327-.56.667-.91 1.02-.347.355-.72.68-1.11.98-.392.296-.8.54-1.228.73-.426.193-.854.287-1.28.286-.37-.002-.638-.09-.803-.27-.16-.178-.244-.396-.244-.65 0-.257.11-.623.333-1.1.22-.475.48-.976.78-1.5.3-.525.6-1.02.9-1.49.3-.47.52-.824.663-1.065.242-.41.492-.84.75-1.287.256-.447.513-.884.77-1.31.254-.426.504-.833.746-1.223.242-.392.463-.735.663-1.033.242-.37.492-.716.75-1.042.255-.327.582-.652.98-.978.54-.454 1.04-.802 1.495-1.04.453-.24.758-.362.915-.36.114 0 .206.032.277.096.07.065.104.16.104.288 0 .2-.078.49-.236.874zm-.998-.66c-.07 0-.15.02-.235.063-.086.043-.194.13-.332.266-.133.134-.297.323-.49.563-.193.24-.438.553-.737.936-.112.156-.274.383-.48.68-.21.3-.47.692-.79 1.182-.323.49-.707 1.093-1.156 1.81-.45.715-.98 1.562-1.593 2.54.852-.48 1.652-1.063 2.4-1.75s1.39-1.392 1.93-2.115c.54-.724.97-1.427 1.284-2.107.314-.68.472-1.256.475-1.726 0-.228-.093-.342-.278-.343z" fill="url(#f)"/><linearGradient id="g" gradientUnits="userSpaceOnUse" x1="66.003" y1="-.905" x2="66.003" y2="16.208"><stop offset="0" stop-color="#5592C9"/><stop offset=".494" stop-color="#CEDCE8"/><stop offset="1" stop-color="#5592C9"/></linearGradient><path d="M109.29 13.678c-.457.436-.95.83-1.48 1.19-.536.356-1.09.646-1.67.868-.583.22-1.145.33-1.685.33-.91-.003-1.363-.412-1.36-1.226 0-.542.142-1.124.425-1.743.282-.62.647-1.2 1.092-1.74.446-.543.93-.992 1.454-1.35.524-.357 1.037-.535 1.54-.534.27 0 .46.05.564.147.107.097.158.223.158.377 0 .233-.074.484-.218.754-.147.272-.364.527-.657.77-.288.24-.663.442-1.116.605-.455.164-.983.245-1.58.244-.1.172-.206.447-.324.823-.116.377-.176.76-.176 1.145-.003.792.354 1.19 1.068 1.192.446 0 .906-.103 1.38-.315.473-.21.934-.476 1.378-.793.446-.318.857-.665 1.236-1.04.376-.376.693-.728.943-1.058.042-.038.084-.047.133-.028.045.02.07.06.07.116-.33.41-.72.83-1.176 1.266zm-2.23-3.912c-.193 0-.394.072-.597.216-.204.145-.4.333-.596.563-.195.23-.377.482-.553.752-.173.27-.32.53-.436.782.037.02.106.034.2.043.1.01.176.016.232.016.562 0 1.055-.196 1.48-.59.427-.396.64-.864.644-1.406.002-.25-.125-.378-.374-.378z" fill="url(#g)"/><linearGradient id="h" gradientUnits="userSpaceOnUse" x1="66.003" y1="-.905" x2="66.003" y2="16.208"><stop offset="0" stop-color="#5592C9"/><stop offset=".494" stop-color="#CEDCE8"/><stop offset="1" stop-color="#5592C9"/></linearGradient><path d="M115.467 10.606c-.115-.252-.357-.38-.723-.38-.274 0-.545.076-.817.23-.27.155-.407.386-.41.696 0 .154.05.31.146.464.097.155.23.36.404.61.156.232.3.466.436.698.135.233.203.475.203.726-.004.503-.12.914-.355 1.233-.232.318-.507.575-.83.766-.32.192-.644.32-.972.388-.33.066-.59.1-.78.1-1.18-.004-1.828-.403-1.943-1.198.098-.058.21-.13.336-.216.125-.087.22-.17.276-.247.04 0 .066.04.088.117.095.348.277.648.547.9.272.25.59.378.958.378.152.002.337-.013.55-.04.212-.03.41-.092.595-.188.185-.097.343-.247.48-.45.135-.202.205-.468.205-.797.002-.25-.048-.483-.143-.696-.098-.21-.204-.406-.318-.58-.115-.195-.23-.388-.347-.582-.115-.193-.173-.407-.173-.64.002-.23.087-.482.25-.752.166-.27.373-.517.624-.74.254-.22.53-.408.832-.562.303-.154.598-.23.89-.23.308.002.463.1.46.292-.058.097-.116.208-.175.333-.06.124-.107.236-.146.332-.055.1-.106.11-.143.034z" fill="url(#h)"/><image width="229" height="34" xlink:href="992020D8.png" transform="translate(-3 14.581)" overflow="visible" opacity=".75"/><image width="16" height="26" xlink:href="992020D9.png" transform="translate(0 16.581)" overflow="visible" opacity=".75"/><linearGradient id="i" gradientUnits="userSpaceOnUse" x1="7.616" y1="21.46" x2="7.616" y2="36.361"><stop offset="0" stop-color="#F6C846"/><stop offset=".494" stop-color="#F7EEB1"/><stop offset="1" stop-color="#F6C846"/></linearGradient><path d="M4.58 37.15V36.8c.736-.06.824-.267.824-.532v-13.74c0-.264-.088-.47-.825-.53v-.353h6.073v.354c-.738.06-.826.265-.826.53v13.74c0 .264.088.472.826.53v.354H4.58z" fill="url(#i)"/><path d="M4.58 37.15V36.8c.736-.06.824-.267.824-.532v-13.74c0-.264-.088-.47-.825-.53v-.353h6.073v.354c-.738.06-.826.265-.826.53v13.74c0 .264.088.472.826.53v.354H4.58z" stroke="#EFA656" stroke-width=".292" fill="none"/><image width="27" height="23" xlink:href="992020DF.png" transform="translate(14 19.581)" overflow="visible" opacity=".75"/><linearGradient id="j" gradientUnits="userSpaceOnUse" x1="26.913" y1="21.46" x2="26.913" y2="36.361"><stop offset="0" stop-color="#F6C846"/><stop offset=".494" stop-color="#F7EEB1"/><stop offset="1" stop-color="#F6C846"/></linearGradient><path d="M22.357 36.266c0 .412.353.5.825.532v.353h-4.628V36.8c.325-.032.68-.12.68-.532V25.063c0-.413-.355-.502-.68-.53v-.354h6.396v.352c-.293.03-.558.06-.558.237 0 .293 2.18 4.567 2.416 5.157.945-1.916 2.595-4.776 2.595-5.158 0-.18-.265-.21-.56-.238v-.353h6.426v.352c-.267.03-.62.118-.62.53v11.204c0 .412.353.5.62.532v.353h-4.923V36.8c.41-.032.765-.12.765-.532v-8.373h-.06l-4.393 8.52-4.247-8.52h-.058v8.373z" fill="url(#j)"/><path d="M22.357 36.266c0 .412.353.5.825.532v.353h-4.628V36.8c.325-.032.68-.12.68-.532V25.063c0-.413-.355-.502-.68-.53v-.354h6.396v.352c-.293.03-.558.06-.558.237 0 .293 2.18 4.567 2.416 5.157.945-1.916 2.595-4.776 2.595-5.158 0-.18-.265-.21-.56-.238v-.353h6.426v.352c-.267.03-.62.118-.62.53v11.204c0 .412.353.5.62.532v.353h-4.923V36.8c.41-.032.765-.12.765-.532v-8.373h-.06l-4.393 8.52-4.247-8.52h-.058v8.373z" stroke="#EFA656" stroke-width=".292" fill="none"/><image width="27" height="23" xlink:href="992020DA.png" transform="translate(37 19.581)" overflow="visible" opacity=".75"/><linearGradient id="k" gradientUnits="userSpaceOnUse" x1="50.248" y1="21.46" x2="50.248" y2="36.361"><stop offset="0" stop-color="#F6C846"/><stop offset=".494" stop-color="#F7EEB1"/><stop offset="1" stop-color="#F6C846"/></linearGradient><path d="M53.905 37.15V36.8c.116 0 .383 0 .383-.267 0-.322-.65-1.474-.857-2.003h-6.838c-.177.53-.855 1.68-.855 2.004 0 .268.265.268.383.268v.353H41.7V36.8c.234 0 .5-.09.59-.294 2.357-5.515 5.098-11.264 5.098-11.676 0-.207-.088-.267-.383-.295v-.353h6.163v.353c-.294.03-.385.088-.385.295 0 .354 4.128 8.638 5.424 11.676.09.205.355.294.59.294v.353h-4.892zm-1.475-4.746l-2.477-5.16-2.418 5.16h4.895z" fill="url(#k)"/><path d="M53.905 37.15V36.8c.116 0 .383 0 .383-.267 0-.322-.65-1.474-.857-2.003h-6.838c-.177.53-.855 1.68-.855 2.004 0 .268.265.268.383.268v.353H41.7V36.8c.234 0 .5-.09.59-.294 2.357-5.515 5.098-11.264 5.098-11.676 0-.207-.088-.267-.383-.295v-.353h6.163v.353c-.294.03-.385.088-.385.295 0 .354 4.128 8.638 5.424 11.676.09.205.355.294.59.294v.353h-4.892zm-1.475-4.746l-2.477-5.16-2.418 5.16h4.895z" stroke="#EFA656" stroke-width=".292" fill="none"/><image width="26" height="24" xlink:href="992020DB.png" transform="translate(59 18.581)" overflow="visible" opacity=".75"/><linearGradient id="l" gradientUnits="userSpaceOnUse" x1="72.154" y1="21.459" x2="72.154" y2="36.362"><stop offset="0" stop-color="#F6C846"/><stop offset=".494" stop-color="#F7EEB1"/><stop offset="1" stop-color="#F6C846"/></linearGradient><path d="M79.23 30.075v4.04c0 .384.207.767.56.767h.266v.354c-1.828.973-5.073 2.093-8.02 2.093-4.6 0-7.785-2.064-7.785-6.664s3.776-6.663 7.786-6.663c1.503 0 2.743.207 3.685.44.945.238 1.563.444 1.77.444.296 0 .355-.147.503-.295l.353.06-1.533 3.89-.355-.177v-.206c0-.71-2.416-1.328-3.83-1.328-2.51 0-4.484 1.09-4.484 3.833 0 2.8 2.005 4.01 4.57 4.01.974 0 1.917-.12 2.86-.443v-1.916h-2.477c-.47 0-.53.473-.53.707h-.355v-3.656h.354c0 .236.06.708.53.708h6.133z" fill="url(#l)"/><path d="M79.23 30.075v4.04c0 .384.207.767.56.767h.266v.354c-1.828.973-5.073 2.093-8.02 2.093-4.6 0-7.785-2.064-7.785-6.664s3.776-6.663 7.786-6.663c1.503 0 2.743.207 3.685.44.945.238 1.563.444 1.77.444.296 0 .355-.147.503-.295l.353.06-1.533 3.89-.355-.177v-.206c0-.71-2.416-1.328-3.83-1.328-2.51 0-4.484 1.09-4.484 3.833 0 2.8 2.005 4.01 4.57 4.01.974 0 1.917-.12 2.86-.443v-1.916h-2.477c-.47 0-.53.473-.53.707h-.355v-3.656h.354c0 .236.06.708.53.708h6.133z" stroke="#EFA656" stroke-width=".292" fill="none"/><image width="16" height="23" xlink:href="992020D6.png" transform="translate(81 19.581)" overflow="visible" opacity=".75"/><linearGradient id="m" gradientUnits="userSpaceOnUse" x1="89.019" y1="21.46" x2="89.019" y2="36.361"><stop offset="0" stop-color="#F6C846"/><stop offset=".494" stop-color="#F7EEB1"/><stop offset="1" stop-color="#F6C846"/></linearGradient><path d="M91.938 24.18v.352c-.59.03-.943.118-.943.53v11.204c0 .412.354.5.943.532v.353H86.1V36.8c.59-.032.943-.12.943-.532V25.063c0-.413-.353-.502-.943-.53v-.354h5.838z" fill="url(#m)"/><path d="M91.938 24.18v.352c-.59.03-.943.118-.943.53v11.204c0 .412.354.5.943.532v.353H86.1V36.8c.59-.032.943-.12.943-.532V25.063c0-.413-.353-.502-.943-.53v-.354h5.838z" stroke="#EFA656" stroke-width=".292" fill="none"/><image width="27" height="23" xlink:href="992020D7.png" transform="translate(94 19.581)" overflow="visible" opacity=".75"/><linearGradient id="n" gradientUnits="userSpaceOnUse" x1="107.489" y1="21.46" x2="107.489" y2="36.361"><stop offset="0" stop-color="#F6C846"/><stop offset=".494" stop-color="#F7EEB1"/><stop offset="1" stop-color="#F6C846"/></linearGradient><path d="M102.934 36.266c0 .412.354.5.825.532v.353h-4.63V36.8c.327-.032.678-.12.678-.532V25.063c0-.413-.35-.502-.677-.53v-.354h6.398v.352c-.294.03-.56.06-.56.237 0 .293 2.183 4.567 2.417 5.157.945-1.916 2.596-4.776 2.596-5.158 0-.18-.267-.21-.56-.238v-.353h6.426v.352c-.264.03-.618.118-.618.53v11.204c0 .412.354.5.618.532v.353h-4.922V36.8c.413-.032.768-.12.768-.532v-8.373h-.06l-4.394 8.52-4.246-8.52h-.06v8.373z" fill="url(#n)"/><path d="M102.934 36.266c0 .412.354.5.825.532v.353h-4.63V36.8c.327-.032.678-.12.678-.532V25.063c0-.413-.35-.502-.677-.53v-.354h6.398v.352c-.294.03-.56.06-.56.237 0 .293 2.183 4.567 2.417 5.157.945-1.916 2.596-4.776 2.596-5.158 0-.18-.267-.21-.56-.238v-.353h6.426v.352c-.264.03-.618.118-.618.53v11.204c0 .412.354.5.618.532v.353h-4.922V36.8c.413-.032.768-.12.768-.532v-8.373h-.06l-4.394 8.52-4.246-8.52h-.06v8.373z" stroke="#EFA656" stroke-width=".292" fill="none"/><image width="28" height="23" xlink:href="992020E8.png" transform="translate(117 19.581)" overflow="visible" opacity=".75"/><linearGradient id="o" gradientUnits="userSpaceOnUse" x1="130.825" y1="21.46" x2="130.825" y2="36.361"><stop offset="0" stop-color="#F6C846"/><stop offset=".494" stop-color="#F7EEB1"/><stop offset="1" stop-color="#F6C846"/></linearGradient><path d="M134.483 37.15V36.8c.115 0 .38 0 .38-.267 0-.322-.647-1.474-.854-2.003h-6.842c-.176.53-.853 1.68-.853 2.004 0 .268.267.268.383.268v.353h-4.423V36.8c.236 0 .5-.09.59-.294 2.357-5.515 5.1-11.264 5.1-11.676 0-.207-.088-.267-.382-.295v-.353h6.163v.353c-.295.03-.387.088-.387.295 0 .354 4.13 8.638 5.427 11.676.087.205.353.294.588.294v.353h-4.892zm-1.474-4.746l-2.48-5.16-2.416 5.16h4.895z" fill="url(#o)"/><path d="M134.483 37.15V36.8c.115 0 .38 0 .38-.267 0-.322-.647-1.474-.854-2.003h-6.842c-.176.53-.853 1.68-.853 2.004 0 .268.267.268.383.268v.353h-4.423V36.8c.236 0 .5-.09.59-.294 2.357-5.515 5.1-11.264 5.1-11.676 0-.207-.088-.267-.382-.295v-.353h6.163v.353c-.295.03-.387.088-.387.295 0 .354 4.13 8.638 5.427 11.676.087.205.353.294.588.294v.353h-4.892zm-1.474-4.746l-2.48-5.16-2.416 5.16h4.895z" stroke="#EFA656" stroke-width=".292" fill="none"/><image width="24" height="24" xlink:href="992020EB.png" transform="translate(140 18.581)" overflow="visible" opacity=".75"/><linearGradient id="p" gradientUnits="userSpaceOnUse" x1="151.905" y1="21.46" x2="151.905" y2="36.361"><stop offset="0" stop-color="#F6C846"/><stop offset=".494" stop-color="#F7EEB1"/><stop offset="1" stop-color="#F6C846"/></linearGradient><path d="M158.097 24.18c.235 0 .53-.12.53-.65h.354v4.306h-.353c0-.53-.295-.65-.53-.65h-4.217v9.08c0 .413.356.5.68.533v.352h-5.308V36.8c.325-.033.68-.12.68-.533v-9.082h-4.218c-.235 0-.53.12-.53.65h-.354v-4.304h.354c0 .53.295.65.53.65h12.383z" fill="url(#p)"/><path d="M158.097 24.18c.235 0 .53-.12.53-.65h.354v4.306h-.353c0-.53-.295-.65-.53-.65h-4.217v9.08c0 .413.356.5.68.533v.352h-5.308V36.8c.325-.033.68-.12.68-.533v-9.082h-4.218c-.235 0-.53.12-.53.65h-.354v-4.304h.354c0 .53.295.65.53.65h12.383z" stroke="#EFA656" stroke-width=".292" fill="none"/><image width="16" height="23" xlink:href="21A4BF87.png" transform="translate(160 19.581)" overflow="visible" opacity=".75"/><linearGradient id="q" gradientUnits="userSpaceOnUse" x1="167.975" y1="21.46" x2="167.975" y2="36.361"><stop offset="0" stop-color="#F6C846"/><stop offset=".494" stop-color="#F7EEB1"/><stop offset="1" stop-color="#F6C846"/></linearGradient><path d="M170.894 24.18v.352c-.59.03-.945.118-.945.53v11.204c0 .412.353.5.944.532v.353h-5.837V36.8c.59-.032.94-.12.94-.532V25.063c0-.413-.352-.502-.94-.53v-.354h5.837z" fill="url(#q)"/><path d="M170.894 24.18v.352c-.59.03-.945.118-.945.53v11.204c0 .412.353.5.944.532v.353h-5.837V36.8c.59-.032.94-.12.94-.532V25.063c0-.413-.352-.502-.94-.53v-.354h5.837z" stroke="#EFA656" stroke-width=".292" fill="none"/><image width="26" height="24" xlink:href="21A4BF85.png" transform="translate(172 18.581)" overflow="visible" opacity=".75"/><linearGradient id="r" gradientUnits="userSpaceOnUse" x1="184.809" y1="21.459" x2="184.809" y2="36.362"><stop offset="0" stop-color="#F6C846"/><stop offset=".494" stop-color="#F7EEB1"/><stop offset="1" stop-color="#F6C846"/></linearGradient><path d="M192.68 30.665c0 4.658-4.186 6.663-7.87 6.663-3.685 0-7.872-2.005-7.872-6.663s4.188-6.663 7.87-6.663c3.686 0 7.873 2.005 7.873 6.663zm-11.91 0c0 2.18 1.8 3.538 4.04 3.538s4.04-1.357 4.04-3.538-1.8-3.538-4.04-3.538c-2.242 0-4.04 1.357-4.04 3.538z" fill="url(#r)"/><path d="M192.68 30.665c0 4.658-4.186 6.663-7.87 6.663-3.685 0-7.872-2.005-7.872-6.663s4.188-6.663 7.87-6.663c3.686 0 7.873 2.005 7.873 6.663zm-11.91 0c0 2.18 1.8 3.538 4.04 3.538s4.04-1.357 4.04-3.538-1.8-3.538-4.04-3.538c-2.242 0-4.04 1.357-4.04 3.538z" stroke="#EFA656" stroke-width=".292" fill="none"/><image width="26" height="23" xlink:href="21A4BF83.png" transform="translate(194 19.581)" overflow="visible" opacity=".75"/><linearGradient id="s" gradientUnits="userSpaceOnUse" x1="206.626" y1="21.46" x2="206.626" y2="36.361"><stop offset="0" stop-color="#F6C846"/><stop offset=".494" stop-color="#F7EEB1"/><stop offset="1" stop-color="#F6C846"/></linearGradient><path d="M213.85 36.266c0 .412.354.5.825.532v.353h-5.453V36.8c.294 0 .854-.032.854-.384 0-.677-3.775-4.04-7.106-7.93l-.058.058v7.724c0 .412.354.5.766.532v.353h-5.04V36.8c.382-.032.736-.12.736-.532V25.063c0-.413-.354-.502-.797-.53v-.354h7.018v.352c-.265.03-.62.118-.62.53 0 .208 2.86 3.126 5.337 5.81v-5.81c0-.412-.354-.5-.825-.53v-.353h5.188v.352c-.472.03-.825.118-.825.53v11.204z" fill="url(#s)"/><path d="M213.85 36.266c0 .412.354.5.825.532v.353h-5.453V36.8c.294 0 .854-.032.854-.384 0-.677-3.775-4.04-7.106-7.93l-.058.058v7.724c0 .412.354.5.766.532v.353h-5.04V36.8c.382-.032.736-.12.736-.532V25.063c0-.413-.354-.502-.797-.53v-.354h7.018v.352c-.265.03-.62.118-.62.53 0 .208 2.86 3.126 5.337 5.81v-5.81c0-.412-.354-.5-.825-.53v-.353h5.188v.352c-.472.03-.825.118-.825.53v11.204z" stroke="#EFA656" stroke-width=".292" fill="none"/><linearGradient id="t" gradientUnits="userSpaceOnUse" x1="129.427" y1="46.609" x2="129.427" y2="57.578"><stop offset="0" stop-color="#5592C9"/><stop offset=".494" stop-color="#CEDCE8"/><stop offset="1" stop-color="#5592C9"/></linearGradient><path d="M125.04 53.216l.206.1c-.04.104-.04.246-.04.43 0 .55 2.18 1.47 4.302 1.47 2.036 0 2.956-.49 2.956-1.388 0-1.51-8.4.164-8.4-3.77 0-2.04 1.957-3.448 4.952-3.448 2.795 0 4.814.857 5.364.857.265 0 .407-.143.55-.307l.225.082-1.405 2.835-.245-.123v-.225c0-.51-2.325-1.08-4.24-1.08-1.775 0-2.387.488-2.387.956 0 1.816 8.442-.407 8.442 4.283 0 1.752-1.328 3.688-5.75 3.688-3.405 0-4.916-.937-5.383-.937-.165 0-.288.144-.407.265l-.245-.06 1.506-3.63z" fill="url(#t)" stroke="#006461" stroke-width=".292"/><linearGradient id="u" gradientUnits="userSpaceOnUse" x1="144.003" y1="48.037" x2="144.003" y2="57.457"><stop offset="0" stop-color="#5592C9"/><stop offset=".494" stop-color="#CEDCE8"/><stop offset="1" stop-color="#5592C9"/></linearGradient><path d="M148.284 48.485c.164 0 .37-.08.37-.448h.24v2.977h-.24c0-.366-.206-.45-.37-.45h-2.914v6.283c0 .286.242.345.47.366v.245h-3.67v-.245c.222-.02.467-.08.467-.366v-6.282h-2.915c-.164 0-.367.083-.367.45h-.244v-2.978h.245c0 .368.203.448.367.448h8.562z" fill="url(#u)" stroke="#006461" stroke-width=".292"/><linearGradient id="v" gradientUnits="userSpaceOnUse" x1="158.501" y1="48.485" x2="158.501" y2="57.578"><stop offset="0" stop-color="#5592C9"/><stop offset=".494" stop-color="#CEDCE8"/><stop offset="1" stop-color="#5592C9"/></linearGradient><path d="M153.73 49.098c0-.286-.266-.348-.592-.367v-.245h3.67v.246c-.123.02-.347.082-.347.368v4.954c0 1.04.856 1.448 2.04 1.448 1.182 0 2.038-.41 2.038-1.448v-4.954c0-.286-.226-.348-.348-.367v-.245h3.672v.246c-.326.02-.592.082-.592.368v4.485c0 2.16-1.182 3.995-4.77 3.995-3.59 0-4.772-1.835-4.772-3.995v-4.485z" fill="url(#v)" stroke="#006461" stroke-width=".292"/><linearGradient id="w" gradientUnits="userSpaceOnUse" x1="173.772" y1="48.485" x2="173.772" y2="57.457"><stop offset="0" stop-color="#5592C9"/><stop offset=".494" stop-color="#CEDCE8"/><stop offset="1" stop-color="#5592C9"/></linearGradient><path d="M169.124 49.098c0-.286-.246-.348-.53-.367v-.245h6.117c3.018 0 4.24 2.08 4.24 4.486 0 2.406-1.223 4.487-4.24 4.487h-6.116v-.245c.284-.02.53-.08.53-.366v-7.748zm2.73 6.402h1.47c2.078 0 2.974-.693 2.974-2.528 0-1.834-.896-2.528-2.974-2.528h-1.47V55.5z" fill="url(#w)" stroke="#006461" stroke-width=".292"/><linearGradient id="x" gradientUnits="userSpaceOnUse" x1="185.251" y1="48.485" x2="185.251" y2="57.457"><stop offset="0" stop-color="#5592C9"/><stop offset=".494" stop-color="#CEDCE8"/><stop offset="1" stop-color="#5592C9"/></linearGradient><path d="M187.27 48.485v.246c-.408.02-.653.082-.653.368v7.748c0 .286.245.345.653.366v.245h-4.037v-.245c.407-.02.65-.08.65-.366v-7.748c0-.286-.243-.348-.65-.367v-.245h4.037z" fill="url(#x)" stroke="#006461" stroke-width=".292"/><linearGradient id="y" gradientUnits="userSpaceOnUse" x1="196.893" y1="48.364" x2="196.893" y2="57.578"><stop offset="0" stop-color="#5592C9"/><stop offset=".494" stop-color="#CEDCE8"/><stop offset="1" stop-color="#5592C9"/></linearGradient><path d="M202.338 52.97c0 3.223-2.897 4.608-5.445 4.608-2.55 0-5.444-1.385-5.444-4.607 0-3.22 2.895-4.606 5.443-4.606 2.547 0 5.445 1.386 5.445 4.607zm-8.24 0c0 1.51 1.245 2.448 2.795 2.448 1.55 0 2.794-.94 2.794-2.447s-1.243-2.447-2.794-2.447c-1.55 0-2.795.94-2.795 2.448z" fill="url(#y)" stroke="#006461" stroke-width=".292"/><linearGradient id="z" gradientUnits="userSpaceOnUse" x1="210.737" y1="48.364" x2="210.737" y2="57.578"><stop offset="0" stop-color="#5592C9"/><stop offset=".494" stop-color="#CEDCE8"/><stop offset="1" stop-color="#5592C9"/></linearGradient><path d="M206.782 54.338l.265.122c0 .062-.02.12-.02.224 0 .53 2.344 1.06 3.997 1.06.508 0 1.854-.082 1.854-.875 0-1.593-6.667-.043-6.667-3.468 0-1.266 1.204-3.038 4.526-3.038 1.937 0 3.61.53 4.057.53.226 0 .347-.163.45-.245l.226.08-1.227 2.57-.264-.123c0-.062.02-.144.02-.225 0-.203-1.45-.754-2.816-.754-.507 0-2.322 0-2.322.896 0 1.45 6.667-.04 6.667 3.508 0 1.59-1.367 2.975-4.485 2.975-1.958 0-4.242-.732-4.404-.732-.184 0-.325.142-.47.286l-.223-.062.835-2.73z" fill="url(#z)" stroke="#006461" stroke-width=".292"/></svg>