<svg version="1.1" id="Layer_1" xmlns="http://www.w3.org/2000/svg" xmlns:xlink="http://www.w3.org/1999/xlink" x="0px" y="0px"
	  viewBox="20 36 210 36" enable-background="new 20 36 210 36"
	 xml:space="preserve">
<g>
	<g>
		<g>
			<g>
				<g>
					<g>
						
							<linearGradient id="SVGID_1_" gradientUnits="userSpaceOnUse" x1="-220.7705" y1="203.5068" x2="-220.7705" y2="188.6054" gradientTransform="matrix(1 0 0 -1 244 239)">
							<stop  offset="0" style="stop-color:#F6C846"/>
							<stop  offset="0.4944" style="stop-color:#F7EEB1"/>
							<stop  offset="1" style="stop-color:#F6C846"/>
						</linearGradient>
						<path fill="url(#SVGID_1_)" d="M20.192,51.184v-0.353c0.737-0.059,0.825-0.267,0.825-0.532V36.56
							c0-0.265-0.088-0.471-0.825-0.53v-0.354h6.074v0.354c-0.738,0.059-0.826,0.265-0.826,0.53v13.739
							c0,0.265,0.088,0.473,0.826,0.532v0.353H20.192z"/>
						<path fill="none" stroke="#EFA656" stroke-width="0.2924" d="M20.192,51.184v-0.353c0.737-0.059,0.825-0.267,0.825-0.532
							V36.56c0-0.265-0.088-0.471-0.825-0.53v-0.354h6.074v0.354c-0.738,0.059-0.826,0.265-0.826,0.53v13.739
							c0,0.265,0.088,0.473,0.826,0.532v0.353H20.192z"/>
					</g>
				</g>
				<g>
					<g>
						
							<linearGradient id="SVGID_2_" gradientUnits="userSpaceOnUse" x1="-201.4741" y1="203.5068" x2="-201.4741" y2="188.6063" gradientTransform="matrix(1 0 0 -1 244 239)">
							<stop  offset="0" style="stop-color:#F6C846"/>
							<stop  offset="0.4944" style="stop-color:#F7EEB1"/>
							<stop  offset="1" style="stop-color:#F6C846"/>
						</linearGradient>
						<path fill="url(#SVGID_2_)" d="M37.971,50.299c0,0.412,0.353,0.5,0.825,0.532v0.353h-4.628v-0.353
							c0.325-0.032,0.68-0.12,0.68-0.532V39.096c0-0.413-0.355-0.502-0.68-0.531v-0.353h6.396v0.353
							c-0.293,0.029-0.558,0.059-0.558,0.237c0,0.294,2.181,4.568,2.416,5.158c0.945-1.916,2.595-4.776,2.595-5.158
							c0-0.178-0.265-0.208-0.561-0.237v-0.353h6.427v0.353c-0.266,0.029-0.62,0.118-0.62,0.531v11.203
							c0,0.412,0.354,0.5,0.62,0.532v0.353h-4.922v-0.353c0.411-0.032,0.765-0.12,0.765-0.532v-8.373h-0.06l-4.393,8.52l-4.246-8.52
							h-0.058v8.373H37.971z"/>
						<path fill="none" stroke="#EFA656" stroke-width="0.2924" d="M37.971,50.299c0,0.412,0.353,0.5,0.825,0.532v0.353h-4.628
							v-0.353c0.325-0.032,0.68-0.12,0.68-0.532V39.096c0-0.413-0.355-0.502-0.68-0.531v-0.353h6.396v0.353
							c-0.293,0.029-0.558,0.059-0.558,0.237c0,0.294,2.181,4.568,2.416,5.158c0.945-1.916,2.595-4.776,2.595-5.158
							c0-0.178-0.265-0.208-0.561-0.237v-0.353h6.427v0.353c-0.266,0.029-0.62,0.118-0.62,0.531v11.203
							c0,0.412,0.354,0.5,0.62,0.532v0.353h-4.922v-0.353c0.411-0.032,0.765-0.12,0.765-0.532v-8.373h-0.06l-4.393,8.52l-4.246-8.52
							h-0.058v8.373H37.971z"/>
					</g>
				</g>
				<g>
					<g>
						
							<linearGradient id="SVGID_3_" gradientUnits="userSpaceOnUse" x1="-178.1372" y1="203.5068" x2="-178.1372" y2="188.6063" gradientTransform="matrix(1 0 0 -1 244 239)">
							<stop  offset="0" style="stop-color:#F6C846"/>
							<stop  offset="0.4944" style="stop-color:#F7EEB1"/>
							<stop  offset="1" style="stop-color:#F6C846"/>
						</linearGradient>
						<path fill="url(#SVGID_3_)" d="M69.519,51.184v-0.353c0.116,0,0.383,0,0.383-0.267c0-0.323-0.65-1.475-0.857-2.004h-6.839
							c-0.177,0.529-0.855,1.681-0.855,2.004c0,0.267,0.265,0.267,0.383,0.267v0.353h-4.421v-0.353c0.235,0,0.502-0.089,0.59-0.294
							c2.358-5.515,5.099-11.264,5.099-11.676c0-0.207-0.088-0.267-0.383-0.295v-0.353h6.163v0.353
							c-0.294,0.029-0.385,0.088-0.385,0.295c0,0.354,4.128,8.638,5.424,11.676c0.091,0.205,0.355,0.294,0.59,0.294v0.353H69.519z
							 M68.043,46.437l-2.477-5.159l-2.418,5.159H68.043z"/>
						<path fill="none" stroke="#EFA656" stroke-width="0.2924" d="M69.519,51.184v-0.353c0.116,0,0.383,0,0.383-0.267
							c0-0.323-0.65-1.475-0.857-2.004h-6.839c-0.177,0.529-0.855,1.681-0.855,2.004c0,0.267,0.265,0.267,0.383,0.267v0.353h-4.421
							v-0.353c0.235,0,0.502-0.089,0.59-0.294c2.358-5.515,5.099-11.264,5.099-11.676c0-0.207-0.088-0.267-0.383-0.295v-0.353h6.163
							v0.353c-0.294,0.029-0.385,0.088-0.385,0.295c0,0.354,4.128,8.638,5.424,11.676c0.091,0.205,0.355,0.294,0.59,0.294v0.353
							H69.519z M68.043,46.437l-2.477-5.159l-2.418,5.159H68.043z"/>
					</g>
				</g>
				<g>
					<g>
						
							<linearGradient id="SVGID_4_" gradientUnits="userSpaceOnUse" x1="-156.2329" y1="203.5078" x2="-156.2329" y2="188.6057" gradientTransform="matrix(1 0 0 -1 244 239)">
							<stop  offset="0" style="stop-color:#F6C846"/>
							<stop  offset="0.4944" style="stop-color:#F7EEB1"/>
							<stop  offset="1" style="stop-color:#F6C846"/>
						</linearGradient>
						<path fill="url(#SVGID_4_)" d="M94.842,44.107v4.04c0,0.384,0.208,0.767,0.562,0.767h0.265v0.354
							c-1.828,0.973-5.073,2.093-8.02,2.093c-4.6,0-7.785-2.063-7.785-6.663c0-4.6,3.775-6.663,7.785-6.663
							c1.503,0,2.743,0.207,3.685,0.441c0.944,0.237,1.562,0.443,1.77,0.443c0.295,0,0.354-0.147,0.502-0.295l0.353,0.059
							l-1.533,3.892l-0.355-0.178v-0.206c0-0.708-2.416-1.327-3.831-1.327c-2.508,0-4.483,1.09-4.483,3.833
							c0,2.8,2.005,4.009,4.571,4.009c0.973,0,1.916-0.118,2.858-0.442v-1.916H88.71c-0.471,0-0.531,0.473-0.531,0.707h-0.354V43.4
							h0.354c0,0.236,0.06,0.708,0.531,0.708L94.842,44.107L94.842,44.107z"/>
						<path fill="none" stroke="#EFA656" stroke-width="0.2924" d="M94.842,44.107v4.04c0,0.384,0.208,0.767,0.562,0.767h0.265
							v0.354c-1.828,0.973-5.073,2.093-8.02,2.093c-4.6,0-7.785-2.063-7.785-6.663c0-4.6,3.775-6.663,7.785-6.663
							c1.503,0,2.743,0.207,3.685,0.441c0.944,0.237,1.562,0.443,1.77,0.443c0.295,0,0.354-0.147,0.502-0.295l0.353,0.059
							l-1.533,3.892l-0.355-0.178v-0.206c0-0.708-2.416-1.327-3.831-1.327c-2.508,0-4.483,1.09-4.483,3.833
							c0,2.8,2.005,4.009,4.571,4.009c0.973,0,1.916-0.118,2.858-0.442v-1.916H88.71c-0.471,0-0.531,0.473-0.531,0.707h-0.354V43.4
							h0.354c0,0.236,0.06,0.708,0.531,0.708L94.842,44.107L94.842,44.107z"/>
					</g>
				</g>
				<g>
					<g>
						
							<linearGradient id="SVGID_5_" gradientUnits="userSpaceOnUse" x1="-139.3677" y1="203.5068" x2="-139.3677" y2="188.6063" gradientTransform="matrix(1 0 0 -1 244 239)">
							<stop  offset="0" style="stop-color:#F6C846"/>
							<stop  offset="0.4944" style="stop-color:#F7EEB1"/>
							<stop  offset="1" style="stop-color:#F6C846"/>
						</linearGradient>
						<path fill="url(#SVGID_5_)" d="M107.551,38.212v0.353c-0.589,0.029-0.943,0.118-0.943,0.531v11.203
							c0,0.412,0.354,0.5,0.943,0.532v0.353h-5.838v-0.353c0.59-0.032,0.943-0.12,0.943-0.532V39.096
							c0-0.413-0.353-0.502-0.943-0.531v-0.353H107.551z"/>
						<path fill="none" stroke="#EFA656" stroke-width="0.2924" d="M107.551,38.212v0.353c-0.589,0.029-0.943,0.118-0.943,0.531
							v11.203c0,0.412,0.354,0.5,0.943,0.532v0.353h-5.838v-0.353c0.59-0.032,0.943-0.12,0.943-0.532V39.096
							c0-0.413-0.353-0.502-0.943-0.531v-0.353H107.551z"/>
					</g>
				</g>
				<g>
					<g>
						
							<linearGradient id="SVGID_6_" gradientUnits="userSpaceOnUse" x1="-120.8979" y1="203.5068" x2="-120.8979" y2="188.6063" gradientTransform="matrix(1 0 0 -1 244 239)">
							<stop  offset="0" style="stop-color:#F6C846"/>
							<stop  offset="0.4944" style="stop-color:#F7EEB1"/>
							<stop  offset="1" style="stop-color:#F6C846"/>
						</linearGradient>
						<path fill="url(#SVGID_6_)" d="M118.547,50.299c0,0.412,0.354,0.5,0.825,0.532v0.353h-4.628v-0.353
							c0.326-0.032,0.677-0.12,0.677-0.532V39.096c0-0.413-0.351-0.502-0.677-0.531v-0.353h6.397v0.353
							c-0.294,0.029-0.56,0.059-0.56,0.237c0,0.294,2.183,4.568,2.417,5.158c0.945-1.916,2.596-4.776,2.596-5.158
							c0-0.178-0.268-0.208-0.562-0.237v-0.353h6.427v0.353c-0.264,0.029-0.618,0.118-0.618,0.531v11.203
							c0,0.412,0.354,0.5,0.618,0.532v0.353h-4.922v-0.353c0.413-0.032,0.768-0.12,0.768-0.532v-8.373h-0.06l-4.394,8.52
							l-4.246-8.52h-0.059L118.547,50.299L118.547,50.299z"/>
						<path fill="none" stroke="#EFA656" stroke-width="0.2924" d="M118.547,50.299c0,0.412,0.354,0.5,0.825,0.532v0.353h-4.628
							v-0.353c0.326-0.032,0.677-0.12,0.677-0.532V39.096c0-0.413-0.351-0.502-0.677-0.531v-0.353h6.397v0.353
							c-0.294,0.029-0.56,0.059-0.56,0.237c0,0.294,2.183,4.568,2.417,5.158c0.945-1.916,2.596-4.776,2.596-5.158
							c0-0.178-0.268-0.208-0.562-0.237v-0.353h6.427v0.353c-0.264,0.029-0.618,0.118-0.618,0.531v11.203
							c0,0.412,0.354,0.5,0.618,0.532v0.353h-4.922v-0.353c0.413-0.032,0.768-0.12,0.768-0.532v-8.373h-0.06l-4.394,8.52
							l-4.246-8.52h-0.059L118.547,50.299L118.547,50.299z"/>
					</g>
				</g>
				<g>
					<g>
						
							<linearGradient id="SVGID_7_" gradientUnits="userSpaceOnUse" x1="-97.561" y1="203.5068" x2="-97.561" y2="188.6063" gradientTransform="matrix(1 0 0 -1 244 239)">
							<stop  offset="0" style="stop-color:#F6C846"/>
							<stop  offset="0.4944" style="stop-color:#F7EEB1"/>
							<stop  offset="1" style="stop-color:#F6C846"/>
						</linearGradient>
						<path fill="url(#SVGID_7_)" d="M150.098,51.184v-0.353c0.114,0,0.381,0,0.381-0.267c0-0.323-0.648-1.475-0.855-2.004h-6.841
							c-0.177,0.529-0.853,1.681-0.853,2.004c0,0.267,0.266,0.267,0.383,0.267v0.353h-4.424v-0.353c0.236,0,0.5-0.089,0.59-0.294
							c2.357-5.515,5.102-11.264,5.102-11.676c0-0.207-0.089-0.267-0.383-0.295v-0.353h6.162v0.353
							c-0.295,0.029-0.387,0.088-0.387,0.295c0,0.354,4.131,8.638,5.428,11.676c0.088,0.205,0.354,0.294,0.589,0.294v0.353H150.098z
							 M148.622,46.437l-2.479-5.159l-2.416,5.159H148.622z"/>
						<path fill="none" stroke="#EFA656" stroke-width="0.2924" d="M150.098,51.184v-0.353c0.114,0,0.381,0,0.381-0.267
							c0-0.323-0.648-1.475-0.855-2.004h-6.841c-0.177,0.529-0.853,1.681-0.853,2.004c0,0.267,0.266,0.267,0.383,0.267v0.353h-4.424
							v-0.353c0.236,0,0.5-0.089,0.59-0.294c2.357-5.515,5.102-11.264,5.102-11.676c0-0.207-0.089-0.267-0.383-0.295v-0.353h6.162
							v0.353c-0.295,0.029-0.387,0.088-0.387,0.295c0,0.354,4.131,8.638,5.428,11.676c0.088,0.205,0.354,0.294,0.589,0.294v0.353
							H150.098z M148.622,46.437l-2.479-5.159l-2.416,5.159H148.622z"/>
					</g>
				</g>
				<g>
					<g>
						
							<linearGradient id="SVGID_8_" gradientUnits="userSpaceOnUse" x1="-76.4814" y1="203.5068" x2="-76.4814" y2="188.6064" gradientTransform="matrix(1 0 0 -1 244 239)">
							<stop  offset="0" style="stop-color:#F6C846"/>
							<stop  offset="0.4944" style="stop-color:#F7EEB1"/>
							<stop  offset="1" style="stop-color:#F6C846"/>
						</linearGradient>
						<path fill="url(#SVGID_8_)" d="M173.71,38.212c0.235,0,0.53-0.119,0.53-0.648h0.354v4.305h-0.354
							c0-0.531-0.295-0.651-0.53-0.651h-4.217V50.3c0,0.412,0.356,0.5,0.68,0.532v0.353h-5.308v-0.353
							c0.324-0.032,0.68-0.12,0.68-0.532v-9.082h-4.218c-0.235,0-0.53,0.12-0.53,0.651h-0.354v-4.305h0.354
							c0,0.529,0.295,0.648,0.53,0.648H173.71z"/>
						<path fill="none" stroke="#EFA656" stroke-width="0.2924" d="M173.71,38.212c0.235,0,0.53-0.119,0.53-0.648h0.354v4.305
							h-0.354c0-0.531-0.295-0.651-0.53-0.651h-4.217V50.3c0,0.412,0.356,0.5,0.68,0.532v0.353h-5.308v-0.353
							c0.324-0.032,0.68-0.12,0.68-0.532v-9.082h-4.218c-0.235,0-0.53,0.12-0.53,0.651h-0.354v-4.305h0.354
							c0,0.529,0.295,0.648,0.53,0.648H173.71z"/>
					</g>
				</g>
				<g>
					<g>
						
							<linearGradient id="SVGID_9_" gradientUnits="userSpaceOnUse" x1="-60.4116" y1="203.5068" x2="-60.4116" y2="188.6063" gradientTransform="matrix(1 0 0 -1 244 239)">
							<stop  offset="0" style="stop-color:#F6C846"/>
							<stop  offset="0.4944" style="stop-color:#F7EEB1"/>
							<stop  offset="1" style="stop-color:#F6C846"/>
						</linearGradient>
						<path fill="url(#SVGID_9_)" d="M186.507,38.212v0.353c-0.591,0.029-0.944,0.118-0.944,0.531v11.203
							c0,0.412,0.354,0.5,0.944,0.532v0.353h-5.837v-0.353c0.589-0.032,0.941-0.12,0.941-0.532V39.096
							c0-0.413-0.354-0.502-0.941-0.531v-0.353H186.507z"/>
						<path fill="none" stroke="#EFA656" stroke-width="0.2924" d="M186.507,38.212v0.353c-0.591,0.029-0.944,0.118-0.944,0.531
							v11.203c0,0.412,0.354,0.5,0.944,0.532v0.353h-5.837v-0.353c0.589-0.032,0.941-0.12,0.941-0.532V39.096
							c0-0.413-0.354-0.502-0.941-0.531v-0.353H186.507z"/>
					</g>
				</g>
				<g>
					<g>
						
							<linearGradient id="SVGID_10_" gradientUnits="userSpaceOnUse" x1="-43.5776" y1="203.5078" x2="-43.5776" y2="188.6057" gradientTransform="matrix(1 0 0 -1 244 239)">
							<stop  offset="0" style="stop-color:#F6C846"/>
							<stop  offset="0.4944" style="stop-color:#F7EEB1"/>
							<stop  offset="1" style="stop-color:#F6C846"/>
						</linearGradient>
						<path fill="url(#SVGID_10_)" d="M208.294,44.698c0,4.658-4.187,6.663-7.872,6.663c-3.684,0-7.871-2.005-7.871-6.663
							c0-4.658,4.188-6.663,7.871-6.663C204.107,38.035,208.294,40.04,208.294,44.698z M196.384,44.698
							c0,2.181,1.798,3.538,4.038,3.538c2.241,0,4.04-1.357,4.04-3.538c0-2.181-1.799-3.538-4.04-3.538
							C198.182,41.16,196.384,42.517,196.384,44.698z"/>
						<path fill="none" stroke="#EFA656" stroke-width="0.2924" d="M208.294,44.698c0,4.658-4.187,6.663-7.872,6.663
							c-3.684,0-7.871-2.005-7.871-6.663c0-4.658,4.188-6.663,7.871-6.663C204.107,38.035,208.294,40.04,208.294,44.698z
							 M196.384,44.698c0,2.181,1.798,3.538,4.038,3.538c2.241,0,4.04-1.357,4.04-3.538c0-2.181-1.799-3.538-4.04-3.538
							C198.182,41.16,196.384,42.517,196.384,44.698z"/>
					</g>
				</g>
				<g>
					<g>
						
							<linearGradient id="SVGID_11_" gradientUnits="userSpaceOnUse" x1="-21.7612" y1="203.5068" x2="-21.7612" y2="188.6063" gradientTransform="matrix(1 0 0 -1 244 239)">
							<stop  offset="0" style="stop-color:#F6C846"/>
							<stop  offset="0.4944" style="stop-color:#F7EEB1"/>
							<stop  offset="1" style="stop-color:#F6C846"/>
						</linearGradient>
						<path fill="url(#SVGID_11_)" d="M229.463,50.299c0,0.412,0.354,0.5,0.825,0.532v0.353h-5.453v-0.353
							c0.294,0,0.854-0.032,0.854-0.384c0-0.677-3.775-4.04-7.106-7.93l-0.058,0.058v7.724c0,0.412,0.354,0.5,0.766,0.532v0.353
							h-5.041v-0.353c0.383-0.032,0.736-0.12,0.736-0.532V39.096c0-0.413-0.354-0.502-0.797-0.531v-0.353h7.019v0.353
							c-0.265,0.029-0.62,0.118-0.62,0.531c0,0.207,2.859,3.125,5.337,5.808v-5.808c0-0.413-0.354-0.502-0.825-0.531v-0.353h5.188
							v0.353c-0.472,0.029-0.825,0.118-0.825,0.531V50.299z"/>
						<path fill="none" stroke="#EFA656" stroke-width="0.2924" d="M229.463,50.299c0,0.412,0.354,0.5,0.825,0.532v0.353h-5.453
							v-0.353c0.294,0,0.854-0.032,0.854-0.384c0-0.677-3.775-4.04-7.106-7.93l-0.058,0.058v7.724c0,0.412,0.354,0.5,0.766,0.532
							v0.353h-5.041v-0.353c0.383-0.032,0.736-0.12,0.736-0.532V39.096c0-0.413-0.354-0.502-0.797-0.531v-0.353h7.019v0.353
							c-0.265,0.029-0.62,0.118-0.62,0.531c0,0.207,2.859,3.125,5.337,5.808v-5.808c0-0.413-0.354-0.502-0.825-0.531v-0.353h5.188
							v0.353c-0.472,0.029-0.825,0.118-0.825,0.531V50.299z"/>
					</g>
				</g>
			</g>
		</g>
	</g>
	<g>
		
			<linearGradient id="SVGID_12_" gradientUnits="userSpaceOnUse" x1="-98.959" y1="178.3574" x2="-98.959" y2="167.3896" gradientTransform="matrix(1 0 0 -1 244 239)">
			<stop  offset="0" style="stop-color:#5592C9"/>
			<stop  offset="0.4944" style="stop-color:#CEDCE8"/>
			<stop  offset="1" style="stop-color:#5592C9"/>
		</linearGradient>
		<path fill="url(#SVGID_12_)" stroke="#006461" stroke-width="0.2924" d="M140.654,67.249l0.205,0.101
			c-0.041,0.103-0.041,0.245-0.041,0.43c0,0.55,2.182,1.468,4.303,1.468c2.036,0,2.956-0.49,2.956-1.387
			c0-1.509-8.399,0.164-8.399-3.771c0-2.04,1.956-3.447,4.951-3.447c2.795,0,4.814,0.857,5.364,0.857
			c0.265,0,0.407-0.143,0.551-0.307l0.224,0.082l-1.404,2.835l-0.245-0.123v-0.225c0-0.51-2.325-1.08-4.241-1.08
			c-1.773,0-2.386,0.489-2.386,0.957c0,1.816,8.442-0.407,8.442,4.283c0,1.753-1.328,3.689-5.752,3.689
			c-3.404,0-4.914-0.937-5.382-0.937c-0.165,0-0.288,0.143-0.407,0.264l-0.244-0.06L140.654,67.249z"/>
		
			<linearGradient id="SVGID_13_" gradientUnits="userSpaceOnUse" x1="-84.3838" y1="176.9307" x2="-84.3838" y2="167.5098" gradientTransform="matrix(1 0 0 -1 244 239)">
			<stop  offset="0" style="stop-color:#5592C9"/>
			<stop  offset="0.4944" style="stop-color:#CEDCE8"/>
			<stop  offset="1" style="stop-color:#5592C9"/>
		</linearGradient>
		<path fill="url(#SVGID_13_)" stroke="#006461" stroke-width="0.2924" d="M163.896,62.518c0.164,0,0.369-0.081,0.369-0.448h0.242
			v2.977h-0.242c0-0.366-0.205-0.449-0.369-0.449h-2.914v6.282c0,0.286,0.242,0.345,0.47,0.366v0.245h-3.669v-0.245
			c0.222-0.021,0.467-0.081,0.467-0.366v-6.282h-2.915c-0.164,0-0.367,0.083-0.367,0.449h-0.243V62.07h0.243
			c0,0.368,0.203,0.448,0.367,0.448H163.896z"/>
		
			<linearGradient id="SVGID_14_" gradientUnits="userSpaceOnUse" x1="-69.8857" y1="176.4834" x2="-69.8857" y2="167.3906" gradientTransform="matrix(1 0 0 -1 244 239)">
			<stop  offset="0" style="stop-color:#5592C9"/>
			<stop  offset="0.4944" style="stop-color:#CEDCE8"/>
			<stop  offset="1" style="stop-color:#5592C9"/>
		</linearGradient>
		<path fill="url(#SVGID_14_)" stroke="#006461" stroke-width="0.2924" d="M169.343,63.13c0-0.286-0.265-0.348-0.591-0.367v-0.246
			h3.669v0.246c-0.122,0.019-0.346,0.081-0.346,0.367v4.954c0,1.039,0.854,1.448,2.039,1.448c1.182,0,2.038-0.409,2.038-1.448V63.13
			c0-0.286-0.227-0.348-0.348-0.367v-0.246h3.672v0.246c-0.326,0.019-0.593,0.081-0.593,0.367v4.485c0,2.16-1.182,3.995-4.771,3.995
			c-3.588,0-4.771-1.835-4.771-3.995L169.343,63.13L169.343,63.13z"/>
		
			<linearGradient id="SVGID_15_" gradientUnits="userSpaceOnUse" x1="-54.6152" y1="176.4834" x2="-54.6152" y2="167.5117" gradientTransform="matrix(1 0 0 -1 244 239)">
			<stop  offset="0" style="stop-color:#5592C9"/>
			<stop  offset="0.4944" style="stop-color:#CEDCE8"/>
			<stop  offset="1" style="stop-color:#5592C9"/>
		</linearGradient>
		<path fill="url(#SVGID_15_)" stroke="#006461" stroke-width="0.2924" d="M184.736,63.13c0-0.286-0.245-0.348-0.529-0.367v-0.246
			h6.117c3.017,0,4.238,2.079,4.238,4.486c0,2.405-1.223,4.486-4.238,4.486h-6.117v-0.245c0.284-0.021,0.529-0.081,0.529-0.366
			V63.13z M187.469,69.532h1.469c2.078,0,2.975-0.693,2.975-2.528c0-1.834-0.896-2.528-2.975-2.528h-1.469V69.532z"/>
		
			<linearGradient id="SVGID_16_" gradientUnits="userSpaceOnUse" x1="-43.1357" y1="176.4834" x2="-43.1357" y2="167.5098" gradientTransform="matrix(1 0 0 -1 244 239)">
			<stop  offset="0" style="stop-color:#5592C9"/>
			<stop  offset="0.4944" style="stop-color:#CEDCE8"/>
			<stop  offset="1" style="stop-color:#5592C9"/>
		</linearGradient>
		<path fill="url(#SVGID_16_)" stroke="#006461" stroke-width="0.2924" d="M202.883,62.518v0.246
			c-0.408,0.019-0.652,0.081-0.652,0.367v7.748c0,0.286,0.244,0.345,0.652,0.366v0.245h-4.037v-0.245
			c0.407-0.021,0.651-0.081,0.651-0.366V63.13c0-0.286-0.244-0.348-0.651-0.367v-0.246L202.883,62.518L202.883,62.518z"/>
		
			<linearGradient id="SVGID_17_" gradientUnits="userSpaceOnUse" x1="-31.4932" y1="176.6035" x2="-31.4932" y2="167.3896" gradientTransform="matrix(1 0 0 -1 244 239)">
			<stop  offset="0" style="stop-color:#5592C9"/>
			<stop  offset="0.4944" style="stop-color:#CEDCE8"/>
			<stop  offset="1" style="stop-color:#5592C9"/>
		</linearGradient>
		<path fill="url(#SVGID_17_)" stroke="#006461" stroke-width="0.2924" d="M217.951,67.004c0,3.222-2.896,4.607-5.445,4.607
			s-5.443-1.385-5.443-4.607c0-3.222,2.896-4.607,5.443-4.607C215.055,62.396,217.951,63.782,217.951,67.004z M209.711,67.004
			c0,1.508,1.245,2.447,2.795,2.447c1.551,0,2.794-0.939,2.794-2.447s-1.243-2.448-2.794-2.448
			C210.956,64.556,209.711,65.496,209.711,67.004z"/>
		
			<linearGradient id="SVGID_18_" gradientUnits="userSpaceOnUse" x1="-17.6484" y1="176.6035" x2="-17.6484" y2="167.3906" gradientTransform="matrix(1 0 0 -1 244 239)">
			<stop  offset="0" style="stop-color:#5592C9"/>
			<stop  offset="0.4944" style="stop-color:#CEDCE8"/>
			<stop  offset="1" style="stop-color:#5592C9"/>
		</linearGradient>
		<path fill="url(#SVGID_18_)" stroke="#006461" stroke-width="0.2924" d="M222.396,68.371l0.265,0.122
			c0,0.062-0.021,0.121-0.021,0.224c0,0.531,2.344,1.059,3.998,1.059c0.508,0,1.854-0.081,1.854-0.874
			c0-1.592-6.667-0.042-6.667-3.467c0-1.266,1.202-3.038,4.524-3.038c1.938,0,3.61,0.53,4.058,0.53c0.226,0,0.347-0.163,0.45-0.245
			l0.226,0.082l-1.226,2.568l-0.265-0.122c0-0.062,0.021-0.144,0.021-0.225c0-0.203-1.449-0.754-2.815-0.754
			c-0.507,0-2.321,0-2.321,0.896c0,1.449,6.666-0.041,6.666,3.508c0,1.59-1.365,2.975-4.483,2.975c-1.958,0-4.242-0.732-4.404-0.732
			c-0.185,0-0.325,0.142-0.47,0.286l-0.225-0.063L222.396,68.371z"/>
	</g>
</g>
</svg>