<?xml version="1.0" encoding="utf-8"?>
<!-- Generator: Adobe Illustrator 16.0.0, SVG Export Plug-In . SVG Version: 6.00 Build 0)  -->
<!DOCTYPE svg PUBLIC "-//W3C//DTD SVG 1.1//EN" "http://www.w3.org/Graphics/SVG/1.1/DTD/svg11.dtd">
<svg version="1.1" id="Layer_1" xmlns="http://www.w3.org/2000/svg" xmlns:xlink="http://www.w3.org/1999/xlink" x="0px" y="0px"
	 width="220px" height="57.724px" viewBox="0 0 220 57.724" style="enable-background:new 0 0 220 57.724;" xml:space="preserve">
<g>
	<g>
		<g>
			<path style="fill:#006461;" d="M16.077,16.026c0.126-0.187,0.285-0.423,0.481-0.711c0.199-0.288,0.464-0.678,0.794-1.173
				c0.33-0.494,0.751-1.122,1.259-1.884c0.507-0.761,1.122-1.708,1.849-2.841c-0.245-0.371-0.4-0.65-0.461-0.836
				c0.019-0.103,0.123-0.155,0.309-0.154l0.525,0.001c0.146,0.001,0.25-0.081,0.313-0.246c0.101-0.185,0.284-0.515,0.544-0.988
				c0.257-0.474,0.527-0.979,0.808-1.514c0.279-0.535,0.523-1.04,0.73-1.514c0.207-0.473,0.313-0.792,0.313-0.958
				c0-0.248-0.06-0.402-0.185-0.465c-0.124-0.061-0.319-0.093-0.588-0.094c-0.227-0.001-0.49,0.003-0.788,0.013
				c-0.301,0.01-0.562,0.036-0.789,0.075c-0.124,0-0.186-0.062-0.186-0.186c0-0.123,0.083-0.186,0.25-0.185
				c0.246,0.001,0.551-0.003,0.912-0.013c0.361-0.009,0.742-0.028,1.146-0.059c0.4-0.029,0.804-0.055,1.206-0.074
				c0.402-0.02,0.768-0.049,1.098-0.09c0.207,0.001,0.237,0.135,0.091,0.402c-0.207,0.288-0.428,0.618-0.667,0.989
				c-0.239,0.37-0.46,0.731-0.669,1.081c-0.311,0.536-0.651,1.143-1.025,1.822c-0.374,0.681-0.704,1.298-0.996,1.854
				c-0.062,0.103-0.098,0.184-0.109,0.247c-0.01,0.061,0.046,0.093,0.171,0.093c0.474,0.021,0.911,0.04,1.314,0.051
				c0.4,0.01,0.769,0.016,1.098,0.017c0.186,0,0.5-0.008,0.943-0.027c0.444-0.021,0.92-0.04,1.426-0.058
				c0.505-0.02,0.993-0.044,1.468-0.074c0.474-0.029,0.846-0.065,1.113-0.105c0.105-0.021,0.197-0.062,0.281-0.123
				c0.083-0.062,0.144-0.134,0.186-0.216c0.622-1.195,1.201-2.286,1.743-3.275c0.537-0.988,1.088-1.936,1.646-2.842
				c0.102-0.144,0.239-0.256,0.404-0.339c0.208-0.123,0.517-0.276,0.929-0.462c0.412-0.185,0.848-0.363,1.301-0.538
				c0.454-0.174,0.878-0.322,1.27-0.445C37.923,0.061,38.213-0.001,38.397,0c0.042,0,0.116,0.011,0.218,0.032
				c0.102,0.019,0.155,0.061,0.155,0.12c0,0.041-0.042,0.072-0.125,0.093c-0.083,0.02-0.144,0.03-0.185,0.03
				c-0.063,0-0.186,0.016-0.372,0.046c-0.186,0.031-0.392,0.082-0.618,0.153c-0.229,0.071-0.46,0.164-0.699,0.276
				c-0.237,0.113-0.45,0.252-0.634,0.417c-0.497,0.411-0.962,0.905-1.398,1.481c-0.29,0.412-0.591,0.855-0.9,1.329
				s-0.611,0.958-0.902,1.451c-0.288,0.496-0.569,0.988-0.84,1.484c-0.267,0.494-0.505,0.958-0.714,1.391
				c-0.746,1.545-1.287,2.792-1.619,3.74c-0.332,0.949-0.5,1.639-0.5,2.073c-0.004,0.804,0.409,1.208,1.232,1.21
				c0.291,0.001,0.646-0.07,1.068-0.214c0.424-0.143,0.76-0.295,1.007-0.461c0.063,0.001,0.104,0.027,0.123,0.079
				c0.021,0.052-0.009,0.119-0.091,0.202c-0.415,0.187-0.941,0.388-1.58,0.604c-0.64,0.217-1.426,0.344-2.353,0.382
				c-0.351-0.021-0.607-0.134-0.772-0.342s-0.246-0.475-0.246-0.805c0.002-0.33,0.063-0.702,0.19-1.113
				c0.207-0.597,0.442-1.2,0.702-1.808c0.258-0.607,0.502-1.148,0.73-1.622c0.084-0.166,0.125-0.34,0.126-0.526
				c0-0.289-0.154-0.484-0.464-0.589c-0.309-0.104-0.607-0.156-0.896-0.157c-0.497-0.001-1.021,0.007-1.58,0.026
				C25.906,9,25.353,9.029,24.807,9.067c-0.547,0.041-1.067,0.085-1.562,0.135c-0.496,0.05-0.919,0.105-1.269,0.167
				c-0.126,0.02-0.228,0.071-0.312,0.154c-0.081,0.083-0.165,0.186-0.248,0.309c-0.476,0.824-1,1.705-1.57,2.641
				c-0.571,0.937-1.042,1.868-1.417,2.796c-0.04,0.124-0.081,0.207-0.123,0.248c-0.042,0.041-0.144,0.061-0.309,0.061
				c-0.187,0-0.352,0.004-0.496,0.013c-0.144,0.011-0.279,0.036-0.404,0.077c-0.123,0.042-0.256,0.092-0.4,0.154
				c-0.146,0.061-0.321,0.149-0.527,0.268L16.077,16.026z"/>
			<path style="fill:#006461;" d="M44.9,13.362c-0.534,0.54-1.071,1.031-1.614,1.474c-0.543,0.445-1.082,0.801-1.612,1.069
				c-0.534,0.269-1.022,0.403-1.466,0.401c-0.386,0-0.657-0.098-0.81-0.292c-0.154-0.194-0.232-0.435-0.232-0.725
				c0-0.271,0.084-0.633,0.25-1.088c0.165-0.453,0.415-0.941,0.745-1.462c-0.253,0.329-0.544,0.676-0.875,1.043
				c-0.33,0.368-0.667,0.707-1.017,1.015c-0.349,0.311-0.697,0.562-1.046,0.753c-0.348,0.192-0.659,0.288-0.929,0.288
				c-0.405,0-0.608-0.204-0.608-0.611c0.004-0.446,0.18-1.007,0.527-1.683c0.351-0.676,0.821-1.328,1.412-1.955
				c0.593-0.628,1.265-1.169,2.021-1.621c0.755-0.453,1.539-0.678,2.351-0.676c0.097-0.193,0.185-0.328,0.262-0.405
				s0.155-0.135,0.234-0.174l0.811-0.23l0.058,0.03c-0.097,0.097-0.188,0.217-0.275,0.362c-0.088,0.145-0.18,0.295-0.278,0.449
				c0.097,0,0.242,0.01,0.436,0.029c0.193,0.021,0.337,0.041,0.436,0.06c0.094,0.039,0.144,0.088,0.144,0.145
				c0,0.059-0.031,0.088-0.087,0.088c-0.116-0.039-0.29-0.068-0.521-0.088c-0.234-0.02-0.406-0.03-0.521-0.031
				c-0.896,1.564-1.551,2.805-1.969,3.722c-0.418,0.917-0.627,1.599-0.628,2.044c-0.002,0.175,0.042,0.32,0.128,0.436
				c0.088,0.117,0.267,0.175,0.538,0.176c0.309,0.001,0.676-0.109,1.102-0.33c0.425-0.221,0.88-0.529,1.364-0.925
				c0.485-0.396,0.984-0.853,1.498-1.375c0.513-0.521,1.004-1.07,1.468-1.65c0.039-0.058,0.077-0.072,0.116-0.043
				c0.038,0.029,0.059,0.073,0.059,0.131C45.923,12.271,45.432,12.822,44.9,13.362z M41.85,9.501
				c-0.657-0.001-1.286,0.229-1.886,0.691c-0.601,0.462-1.134,1.007-1.598,1.634c-0.467,0.626-0.841,1.249-1.124,1.867
				c-0.281,0.618-0.421,1.072-0.423,1.363c0,0.154,0.058,0.231,0.173,0.231c0.116,0,0.295-0.076,0.538-0.229
				c0.24-0.154,0.513-0.361,0.813-0.622c0.3-0.259,0.616-0.563,0.944-0.91c0.33-0.347,0.631-0.724,0.903-1.129
				c0.311-0.462,0.611-0.955,0.902-1.476c0.29-0.521,0.553-0.984,0.789-1.39L41.85,9.501z"/>
			<path style="fill:#006461;" d="M56.866,2.729c-0.158,0.383-0.382,0.827-0.674,1.33c-0.291,0.505-0.647,1.044-1.067,1.619
				c-0.421,0.574-0.897,1.146-1.429,1.712c-0.534,0.568-1.121,1.11-1.759,1.626c-0.639,0.517-1.324,0.974-2.047,1.371
				c-0.128,0.227-0.305,0.531-0.534,0.915c-0.228,0.383-0.453,0.787-0.674,1.214c-0.222,0.425-0.415,0.844-0.576,1.256
				c-0.165,0.412-0.248,0.761-0.25,1.044c0,0.456,0.204,0.683,0.617,0.684c0.354,0.001,0.725-0.098,1.109-0.295
				c0.385-0.199,0.75-0.438,1.099-0.722c0.35-0.283,0.677-0.584,0.984-0.903c0.305-0.319,0.567-0.606,0.779-0.862
				c0.1-0.099,0.157-0.124,0.17-0.074c0.014,0.05-0.007,0.103-0.063,0.16c-0.256,0.326-0.56,0.667-0.909,1.021
				c-0.35,0.355-0.72,0.681-1.11,0.978c-0.393,0.298-0.801,0.542-1.229,0.732c-0.424,0.191-0.853,0.286-1.278,0.284
				c-0.372,0-0.64-0.091-0.804-0.268c-0.163-0.179-0.246-0.396-0.245-0.651c0.002-0.256,0.111-0.623,0.333-1.098
				c0.221-0.476,0.481-0.976,0.783-1.501c0.299-0.525,0.599-1.022,0.899-1.491c0.298-0.467,0.52-0.822,0.66-1.063
				c0.244-0.411,0.492-0.842,0.751-1.289c0.256-0.447,0.513-0.883,0.77-1.309c0.256-0.426,0.505-0.834,0.748-1.224
				c0.242-0.391,0.463-0.734,0.664-1.033c0.241-0.369,0.492-0.716,0.749-1.043c0.256-0.326,0.583-0.652,0.981-0.978
				c0.541-0.453,1.038-0.8,1.493-1.042c0.455-0.241,0.76-0.359,0.917-0.359c0.114,0,0.206,0.033,0.276,0.097
				c0.072,0.063,0.107,0.161,0.107,0.288C57.102,2.053,57.024,2.345,56.866,2.729z M55.869,2.069c-0.072,0-0.149,0.021-0.235,0.063
				c-0.084,0.042-0.197,0.131-0.33,0.266c-0.138,0.135-0.299,0.323-0.492,0.563c-0.193,0.241-0.438,0.553-0.738,0.935
				c-0.112,0.157-0.273,0.384-0.481,0.682c-0.207,0.298-0.47,0.691-0.79,1.181c-0.321,0.489-0.706,1.092-1.155,1.809
				c-0.449,0.716-0.979,1.564-1.593,2.542c0.852-0.481,1.652-1.065,2.401-1.752c0.746-0.686,1.39-1.392,1.931-2.115
				s0.969-1.426,1.283-2.107c0.314-0.681,0.473-1.256,0.474-1.725C56.144,2.183,56.053,2.069,55.869,2.069z"/>
			<path style="fill:#006461;" d="M61.189,14.842c0.448-0.67,1.015-1.455,1.698-2.358c0.683-0.903,1.441-1.885,2.273-2.947
				c0.833-1.063,1.654-2.099,2.466-3.108c0.813-1.008,1.576-1.949,2.29-2.819c0.716-0.87,1.299-1.572,1.746-2.103
				c0.449-0.147,0.8-0.258,1.057-0.333c0.254-0.072,0.457-0.142,0.606-0.205c0.128,0.042,0.149,0.107,0.063,0.191
				c-0.254,0.171-0.416,0.415-0.479,0.733c-0.088,0.489-0.175,1.074-0.262,1.754c-0.085,0.681-0.168,1.404-0.244,2.17
				c-0.078,0.767-0.149,1.554-0.214,2.362c-0.067,0.808-0.123,1.573-0.167,2.297c-0.044,0.723-0.079,1.388-0.102,1.995
				s-0.036,1.09-0.037,1.452c0,0.213,0.016,0.356,0.049,0.431c0.03,0.075,0.073,0.107,0.126,0.096
				c0.053-0.01,0.111-0.053,0.176-0.127c0.063-0.074,0.128-0.155,0.191-0.239c0.235-0.298,0.62-0.771,1.153-1.418
				c0.534-0.647,1.142-1.379,1.827-2.197c0.683-0.817,1.408-1.671,2.177-2.564c0.767-0.891,1.505-1.734,2.21-2.53
				c0.706-0.796,1.341-1.502,1.909-2.118c0.569-0.615,0.99-1.062,1.268-1.337c0.34-0.17,0.756-0.327,1.246-0.475
				c0.49-0.147,0.886-0.315,1.184-0.502c0.063,0,0.116,0.027,0.158,0.081c0.042,0.054,0.042,0.111,0,0.175
				c-0.362,0.148-0.624,0.275-0.784,0.381c-0.16,0.105-0.293,0.307-0.4,0.605c-0.258,0.808-0.527,1.75-0.806,2.822
				c-0.279,1.076-0.532,2.175-0.76,3.303c-0.225,1.127-0.409,2.228-0.551,3.303c-0.141,1.074-0.212,2.016-0.215,2.824
				c-0.001,0.298,0.067,0.507,0.204,0.624c0.14,0.117,0.304,0.176,0.496,0.176c0.193,0.001,0.403-0.021,0.639-0.061
				c0.233-0.043,0.446-0.105,0.639-0.191c0.042,0.001,0.068,0.028,0.079,0.081c0.01,0.054-0.005,0.102-0.047,0.144
				c-0.236,0.064-0.49,0.138-0.768,0.223c-0.277,0.084-0.56,0.169-0.846,0.253c-0.288,0.085-0.56,0.165-0.816,0.239
				C81.364,16,81.161,16.057,81.01,16.1c-0.256-0.001-0.464-0.049-0.625-0.145c-0.16-0.096-0.26-0.272-0.302-0.528
				c0.021-0.298,0.098-0.787,0.229-1.468c0.13-0.68,0.291-1.446,0.487-2.296c0.194-0.851,0.404-1.745,0.632-2.68
				c0.227-0.935,0.439-1.802,0.632-2.599c0.193-0.797,0.362-1.472,0.502-2.025c0.139-0.553,0.221-0.883,0.242-0.989
				c0.084-0.319,0.084-0.473,0-0.463c-0.084,0.01-0.213,0.09-0.383,0.239c-0.622,0.551-1.376,1.311-2.263,2.276
				c-0.889,0.965-1.813,2.01-2.773,3.136c-0.962,1.124-1.896,2.271-2.802,3.438c-0.909,1.168-1.682,2.208-2.325,3.122
				c-0.042,0.085-0.094,0.187-0.157,0.304c-0.067,0.117-0.12,0.25-0.162,0.398c-0.404,0.02-0.708,0.076-0.91,0.172
				c-0.203,0.093-0.411,0.236-0.625,0.425c-0.126,0.041-0.202,0.021-0.221-0.064c0.063-0.444,0.133-1.038,0.21-1.782
				s0.154-1.563,0.232-2.456c0.077-0.894,0.147-1.814,0.214-2.762c0.066-0.946,0.133-1.84,0.198-2.68
				c0.067-0.841,0.121-1.58,0.167-2.218c0.044-0.637,0.078-1.095,0.098-1.372c0.002-0.404-0.168-0.405-0.509-0.001
				c-0.62,0.7-1.353,1.582-2.195,2.643c-0.843,1.063-1.692,2.166-2.545,3.313c-0.854,1.146-1.661,2.277-2.42,3.391
				c-0.758,1.115-1.363,2.066-1.813,2.852c-0.382,0.699-0.614,1.227-0.688,1.589c-0.078,0.361-0.106,0.66-0.085,0.894
				c0.021,0.234,0,0.334-0.063,0.302c-0.065-0.032-0.128-0.111-0.191-0.239c-0.065-0.128-0.117-0.32-0.16-0.575
				c-0.042-0.256-0.114-0.607-0.219-1.054C60.483,15.963,60.739,15.511,61.189,14.842z"/>
			<path style="fill:#006461;" d="M92.527,13.732c-0.602,0.54-1.154,0.974-1.656,1.301c-0.388,0.249-0.784,0.442-1.19,0.575
				c-0.408,0.135-0.774,0.203-1.103,0.201c-0.115,0-0.253-0.01-0.407-0.03c-0.155-0.02-0.295-0.069-0.418-0.146
				c-0.126-0.078-0.233-0.18-0.319-0.306c-0.088-0.125-0.13-0.294-0.13-0.508c0.001-0.25,0.098-0.594,0.294-1.028
				c0.193-0.434,0.421-0.883,0.685-1.346c0.26-0.464,0.522-0.908,0.787-1.333c0.261-0.423,0.47-0.743,0.625-0.955
				c0.099-0.154,0.267-0.284,0.509-0.389c0.242-0.106,0.4-0.159,0.478-0.158c0.098,0,0.146,0.029,0.146,0.086
				c0,0.039-0.017,0.097-0.045,0.173c-0.029,0.078-0.062,0.136-0.102,0.175c-0.271,0.385-0.533,0.81-0.787,1.274
				c-0.253,0.462-0.484,0.911-0.698,1.346c-0.215,0.435-0.387,0.835-0.513,1.202c-0.126,0.367-0.19,0.657-0.19,0.87
				c0,0.232,0.062,0.401,0.186,0.508c0.126,0.106,0.296,0.159,0.507,0.161c0.389,0.001,0.814-0.128,1.278-0.388
				c0.465-0.259,0.925-0.573,1.38-0.939c0.456-0.365,0.877-0.751,1.264-1.156c0.39-0.405,0.688-0.751,0.903-1.041
				c0.096-0.096,0.15-0.121,0.161-0.072c0.007,0.049-0.007,0.121-0.046,0.217C93.659,12.624,93.127,13.193,92.527,13.732z
				 M92.533,6.244c-0.204,0.231-0.43,0.347-0.683,0.347c-0.231,0-0.348-0.117-0.348-0.349c0.002-0.252,0.095-0.493,0.278-0.724
				c0.185-0.232,0.412-0.347,0.683-0.347c0.251,0.002,0.377,0.127,0.375,0.378C92.839,5.781,92.735,6.013,92.533,6.244z"/>
			<path style="fill:#006461;" d="M105.09,2.864c-0.158,0.383-0.381,0.827-0.674,1.331c-0.292,0.503-0.646,1.043-1.067,1.618
				c-0.42,0.574-0.896,1.145-1.431,1.712c-0.533,0.567-1.119,1.109-1.758,1.627c-0.642,0.516-1.325,0.974-2.048,1.369
				c-0.127,0.227-0.306,0.533-0.534,0.915c-0.228,0.383-0.453,0.788-0.674,1.214c-0.221,0.426-0.412,0.845-0.576,1.257
				c-0.167,0.412-0.249,0.76-0.249,1.044c0,0.456,0.203,0.683,0.615,0.685c0.357,0.001,0.726-0.097,1.111-0.295
				c0.384-0.199,0.75-0.439,1.101-0.723c0.347-0.281,0.674-0.583,0.981-0.902c0.308-0.318,0.567-0.606,0.782-0.862
				c0.098-0.098,0.154-0.123,0.168-0.074s-0.006,0.104-0.063,0.16c-0.256,0.327-0.559,0.667-0.91,1.021
				c-0.347,0.354-0.719,0.68-1.109,0.978c-0.393,0.297-0.801,0.542-1.229,0.732c-0.426,0.192-0.854,0.286-1.279,0.285
				c-0.372-0.002-0.639-0.091-0.804-0.27c-0.161-0.178-0.244-0.396-0.244-0.65c0.002-0.257,0.112-0.623,0.334-1.099
				c0.221-0.476,0.481-0.977,0.781-1.501c0.299-0.525,0.599-1.021,0.898-1.49c0.3-0.469,0.521-0.824,0.664-1.065
				c0.242-0.412,0.492-0.841,0.75-1.288c0.256-0.447,0.513-0.884,0.769-1.31C99.65,6.857,99.9,6.45,100.142,6.06
				c0.242-0.392,0.463-0.735,0.663-1.033c0.242-0.369,0.492-0.716,0.749-1.042c0.256-0.327,0.583-0.652,0.981-0.978
				c0.54-0.454,1.039-0.802,1.495-1.04c0.453-0.241,0.758-0.362,0.915-0.361c0.114,0,0.206,0.033,0.277,0.097
				c0.069,0.065,0.104,0.16,0.104,0.288C105.325,2.189,105.248,2.48,105.09,2.864z M104.092,2.204c-0.07,0-0.15,0.021-0.235,0.063
				c-0.086,0.043-0.194,0.13-0.332,0.266c-0.133,0.134-0.297,0.323-0.49,0.563c-0.193,0.241-0.438,0.553-0.737,0.936
				c-0.112,0.156-0.274,0.383-0.481,0.681c-0.208,0.298-0.47,0.691-0.79,1.181c-0.322,0.49-0.706,1.093-1.155,1.809
				c-0.45,0.716-0.98,1.563-1.593,2.542c0.853-0.48,1.653-1.064,2.4-1.751c0.749-0.687,1.391-1.392,1.932-2.115
				c0.54-0.723,0.969-1.426,1.283-2.106c0.314-0.681,0.472-1.256,0.475-1.726C104.37,2.319,104.277,2.205,104.092,2.204z"/>
			<path style="fill:#006461;" d="M109.29,13.678c-0.457,0.436-0.95,0.831-1.481,1.189c-0.535,0.357-1.089,0.647-1.67,0.869
				c-0.582,0.221-1.144,0.33-1.684,0.329c-0.91-0.002-1.363-0.411-1.359-1.225c0-0.542,0.141-1.124,0.424-1.743
				c0.282-0.62,0.647-1.2,1.092-1.741c0.446-0.542,0.931-0.991,1.454-1.349c0.524-0.357,1.037-0.535,1.539-0.534
				c0.271,0.001,0.46,0.05,0.565,0.147c0.107,0.097,0.158,0.223,0.158,0.377c0,0.233-0.074,0.484-0.218,0.754
				c-0.147,0.271-0.364,0.526-0.657,0.768c-0.288,0.242-0.663,0.443-1.116,0.606c-0.455,0.164-0.983,0.245-1.581,0.244
				c-0.098,0.173-0.205,0.448-0.323,0.824c-0.116,0.377-0.176,0.759-0.176,1.145c-0.003,0.792,0.354,1.189,1.068,1.192
				c0.446,0.001,0.906-0.103,1.38-0.315c0.473-0.211,0.934-0.476,1.378-0.793c0.446-0.318,0.857-0.665,1.236-1.041
				c0.377-0.375,0.694-0.727,0.944-1.057c0.042-0.038,0.084-0.047,0.133-0.028c0.045,0.021,0.07,0.059,0.07,0.116
				C110.137,12.822,109.745,13.242,109.29,13.678z M107.06,9.766c-0.193,0-0.394,0.072-0.597,0.216
				c-0.204,0.145-0.4,0.333-0.596,0.563c-0.195,0.231-0.377,0.482-0.553,0.752c-0.173,0.271-0.32,0.531-0.436,0.782
				c0.037,0.021,0.106,0.035,0.2,0.044c0.1,0.011,0.176,0.016,0.232,0.016c0.562,0.001,1.055-0.195,1.481-0.59
				c0.426-0.395,0.64-0.863,0.643-1.405C107.436,9.893,107.309,9.766,107.06,9.766z"/>
			<path style="fill:#006461;" d="M115.467,10.606c-0.115-0.252-0.357-0.379-0.723-0.379c-0.274-0.001-0.545,0.075-0.817,0.23
				c-0.271,0.154-0.407,0.385-0.409,0.695c0,0.154,0.048,0.31,0.145,0.464c0.097,0.155,0.231,0.359,0.404,0.611
				c0.156,0.231,0.301,0.465,0.436,0.697c0.135,0.233,0.203,0.475,0.203,0.726c-0.004,0.503-0.119,0.914-0.355,1.233
				c-0.233,0.318-0.508,0.575-0.83,0.766c-0.321,0.193-0.645,0.322-0.973,0.389c-0.329,0.066-0.59,0.1-0.781,0.1
				c-1.18-0.004-1.827-0.403-1.942-1.198c0.098-0.058,0.21-0.13,0.336-0.216c0.124-0.087,0.219-0.169,0.275-0.247
				c0.039,0.001,0.066,0.039,0.088,0.117c0.095,0.348,0.277,0.648,0.547,0.9c0.271,0.251,0.588,0.378,0.957,0.378
				c0.152,0.002,0.337-0.013,0.55-0.041c0.212-0.028,0.41-0.091,0.595-0.187c0.185-0.097,0.343-0.247,0.479-0.449
				c0.136-0.203,0.206-0.469,0.206-0.798c0.002-0.251-0.048-0.483-0.143-0.696c-0.098-0.212-0.204-0.407-0.318-0.582
				c-0.115-0.194-0.229-0.387-0.347-0.581c-0.115-0.193-0.173-0.407-0.173-0.639c0.002-0.231,0.087-0.483,0.251-0.753
				c0.165-0.271,0.372-0.517,0.623-0.739c0.253-0.22,0.53-0.409,0.831-0.563c0.303-0.154,0.598-0.23,0.889-0.229
				c0.309,0.001,0.464,0.098,0.46,0.291c-0.057,0.097-0.115,0.208-0.174,0.333c-0.059,0.125-0.107,0.237-0.146,0.333
				C115.555,10.673,115.504,10.683,115.467,10.606z"/>
		</g>
		<g>
			<path style="fill:none;stroke:#006461;stroke-width:0.8773;" d="M16.077,16.026c0.126-0.187,0.285-0.423,0.481-0.711
				c0.199-0.288,0.464-0.678,0.794-1.173c0.33-0.494,0.751-1.122,1.259-1.884c0.507-0.761,1.122-1.708,1.849-2.841
				c-0.245-0.371-0.4-0.65-0.461-0.836c0.019-0.103,0.123-0.155,0.309-0.154l0.525,0.001c0.146,0.001,0.25-0.081,0.313-0.246
				c0.101-0.185,0.284-0.515,0.544-0.988c0.257-0.474,0.527-0.979,0.808-1.514c0.279-0.535,0.523-1.04,0.73-1.514
				c0.207-0.473,0.313-0.792,0.313-0.958c0-0.248-0.06-0.402-0.185-0.465c-0.124-0.061-0.319-0.093-0.588-0.094
				c-0.227-0.001-0.49,0.003-0.788,0.013c-0.301,0.01-0.562,0.036-0.789,0.075c-0.124,0-0.186-0.062-0.186-0.186
				c0-0.123,0.083-0.186,0.25-0.185c0.246,0.001,0.551-0.003,0.912-0.013c0.361-0.009,0.742-0.028,1.146-0.059
				c0.4-0.029,0.804-0.055,1.206-0.074c0.402-0.02,0.768-0.049,1.098-0.09c0.207,0.001,0.237,0.135,0.091,0.402
				c-0.207,0.288-0.428,0.618-0.667,0.989c-0.239,0.37-0.46,0.731-0.669,1.081c-0.311,0.536-0.651,1.143-1.025,1.822
				c-0.374,0.681-0.704,1.298-0.996,1.854c-0.062,0.103-0.098,0.184-0.109,0.247c-0.01,0.061,0.046,0.093,0.171,0.093
				c0.474,0.021,0.911,0.04,1.314,0.051c0.4,0.01,0.769,0.016,1.098,0.017c0.186,0,0.5-0.008,0.943-0.027
				c0.444-0.021,0.92-0.04,1.426-0.058c0.505-0.02,0.993-0.044,1.468-0.074c0.474-0.029,0.846-0.065,1.113-0.105
				c0.105-0.021,0.197-0.062,0.281-0.123c0.083-0.062,0.144-0.134,0.186-0.216c0.622-1.195,1.201-2.286,1.743-3.275
				c0.537-0.988,1.088-1.936,1.646-2.842c0.102-0.144,0.239-0.256,0.404-0.339c0.208-0.123,0.517-0.276,0.929-0.462
				c0.412-0.185,0.848-0.363,1.301-0.538c0.454-0.174,0.878-0.322,1.27-0.445C37.923,0.061,38.213-0.001,38.397,0
				c0.042,0,0.116,0.011,0.218,0.032c0.102,0.019,0.155,0.061,0.155,0.12c0,0.041-0.042,0.072-0.125,0.093
				c-0.083,0.02-0.144,0.03-0.185,0.03c-0.063,0-0.186,0.016-0.372,0.046c-0.186,0.031-0.392,0.082-0.618,0.153
				c-0.229,0.071-0.46,0.164-0.699,0.276c-0.237,0.113-0.45,0.252-0.634,0.417c-0.497,0.411-0.962,0.905-1.398,1.481
				c-0.29,0.412-0.591,0.855-0.9,1.329s-0.611,0.958-0.902,1.451c-0.288,0.496-0.569,0.988-0.84,1.484
				c-0.267,0.494-0.505,0.958-0.714,1.391c-0.746,1.545-1.287,2.792-1.619,3.74c-0.332,0.949-0.5,1.639-0.5,2.073
				c-0.004,0.804,0.409,1.208,1.232,1.21c0.291,0.001,0.646-0.07,1.068-0.214c0.424-0.143,0.76-0.295,1.007-0.461
				c0.063,0.001,0.104,0.027,0.123,0.079c0.021,0.052-0.009,0.119-0.091,0.202c-0.415,0.187-0.941,0.388-1.58,0.604
				c-0.64,0.217-1.426,0.344-2.353,0.382c-0.351-0.021-0.607-0.134-0.772-0.342s-0.246-0.475-0.246-0.805
				c0.002-0.33,0.063-0.702,0.19-1.113c0.207-0.597,0.442-1.2,0.702-1.808c0.258-0.607,0.502-1.148,0.73-1.622
				c0.084-0.166,0.125-0.34,0.126-0.526c0-0.289-0.154-0.484-0.464-0.589c-0.309-0.104-0.607-0.156-0.896-0.157
				c-0.497-0.001-1.021,0.007-1.58,0.026C25.906,9,25.353,9.029,24.807,9.067c-0.547,0.041-1.067,0.085-1.562,0.135
				c-0.496,0.05-0.919,0.105-1.269,0.167c-0.126,0.02-0.228,0.071-0.312,0.154c-0.081,0.083-0.165,0.186-0.248,0.309
				c-0.476,0.824-1,1.705-1.57,2.641c-0.571,0.937-1.042,1.868-1.417,2.796c-0.04,0.124-0.081,0.207-0.123,0.248
				c-0.042,0.041-0.144,0.061-0.309,0.061c-0.187,0-0.352,0.004-0.496,0.013c-0.144,0.011-0.279,0.036-0.404,0.077
				c-0.123,0.042-0.256,0.092-0.4,0.154c-0.146,0.061-0.321,0.149-0.527,0.268L16.077,16.026z"/>
			<path style="fill:none;stroke:#006461;stroke-width:0.8773;" d="M44.9,13.362c-0.534,0.54-1.071,1.031-1.614,1.474
				c-0.543,0.445-1.082,0.801-1.612,1.069c-0.534,0.269-1.022,0.403-1.466,0.401c-0.386,0-0.657-0.098-0.81-0.292
				c-0.154-0.194-0.232-0.435-0.232-0.725c0-0.271,0.084-0.633,0.25-1.088c0.165-0.453,0.415-0.941,0.745-1.462
				c-0.253,0.329-0.544,0.676-0.875,1.043c-0.33,0.368-0.667,0.707-1.017,1.015c-0.349,0.311-0.697,0.562-1.046,0.753
				c-0.348,0.192-0.659,0.288-0.929,0.288c-0.405,0-0.608-0.204-0.608-0.611c0.004-0.446,0.18-1.007,0.527-1.683
				c0.351-0.676,0.821-1.328,1.412-1.955c0.593-0.628,1.265-1.169,2.021-1.621c0.755-0.453,1.539-0.678,2.351-0.676
				c0.097-0.193,0.185-0.328,0.262-0.405s0.155-0.135,0.234-0.174l0.811-0.23l0.058,0.03c-0.097,0.097-0.188,0.217-0.275,0.362
				c-0.088,0.145-0.18,0.295-0.278,0.449c0.097,0,0.242,0.01,0.436,0.029c0.193,0.021,0.337,0.041,0.436,0.06
				c0.094,0.039,0.144,0.088,0.144,0.145c0,0.059-0.031,0.088-0.087,0.088c-0.116-0.039-0.29-0.068-0.521-0.088
				c-0.234-0.02-0.406-0.03-0.521-0.031c-0.896,1.564-1.551,2.805-1.969,3.722c-0.418,0.917-0.627,1.599-0.628,2.044
				c-0.002,0.175,0.042,0.32,0.128,0.436c0.088,0.117,0.267,0.175,0.538,0.176c0.309,0.001,0.676-0.109,1.102-0.33
				c0.425-0.221,0.88-0.529,1.364-0.925c0.485-0.396,0.984-0.853,1.498-1.375c0.513-0.521,1.004-1.07,1.468-1.65
				c0.039-0.058,0.077-0.072,0.116-0.043c0.038,0.029,0.059,0.073,0.059,0.131C45.923,12.271,45.432,12.822,44.9,13.362z
				 M41.85,9.501c-0.657-0.001-1.286,0.229-1.886,0.691c-0.601,0.462-1.134,1.007-1.598,1.634c-0.467,0.626-0.841,1.249-1.124,1.867
				c-0.281,0.618-0.421,1.072-0.423,1.363c0,0.154,0.058,0.231,0.173,0.231c0.116,0,0.295-0.076,0.538-0.229
				c0.24-0.154,0.513-0.361,0.813-0.622c0.3-0.259,0.616-0.563,0.944-0.91c0.33-0.347,0.631-0.724,0.903-1.129
				c0.311-0.462,0.611-0.955,0.902-1.476c0.29-0.521,0.553-0.984,0.789-1.39L41.85,9.501z"/>
			<path style="fill:none;stroke:#006461;stroke-width:0.8773;" d="M56.866,2.729c-0.158,0.383-0.382,0.827-0.674,1.33
				c-0.291,0.505-0.647,1.044-1.067,1.619c-0.421,0.574-0.897,1.146-1.429,1.712c-0.534,0.568-1.121,1.11-1.759,1.626
				c-0.639,0.517-1.324,0.974-2.047,1.371c-0.128,0.227-0.305,0.531-0.534,0.915c-0.228,0.383-0.453,0.787-0.674,1.214
				c-0.222,0.425-0.415,0.844-0.576,1.256c-0.165,0.412-0.248,0.761-0.25,1.044c0,0.456,0.204,0.683,0.617,0.684
				c0.354,0.001,0.725-0.098,1.109-0.295c0.385-0.199,0.75-0.438,1.099-0.722c0.35-0.283,0.677-0.584,0.984-0.903
				c0.305-0.319,0.567-0.606,0.779-0.862c0.1-0.099,0.157-0.124,0.17-0.074c0.014,0.05-0.007,0.103-0.063,0.16
				c-0.256,0.326-0.56,0.667-0.909,1.021c-0.35,0.355-0.72,0.681-1.11,0.978c-0.393,0.298-0.801,0.542-1.229,0.732
				c-0.424,0.191-0.853,0.286-1.278,0.284c-0.372,0-0.64-0.091-0.804-0.268c-0.163-0.179-0.246-0.396-0.245-0.651
				c0.002-0.256,0.111-0.623,0.333-1.098c0.221-0.476,0.481-0.976,0.783-1.501c0.299-0.525,0.599-1.022,0.899-1.491
				c0.298-0.467,0.52-0.822,0.66-1.063c0.244-0.411,0.492-0.842,0.751-1.289c0.256-0.447,0.513-0.883,0.77-1.309
				c0.256-0.426,0.505-0.834,0.748-1.224c0.242-0.391,0.463-0.734,0.664-1.033c0.241-0.369,0.492-0.716,0.749-1.043
				c0.256-0.326,0.583-0.652,0.981-0.978c0.541-0.453,1.038-0.8,1.493-1.042c0.455-0.241,0.76-0.359,0.917-0.359
				c0.114,0,0.206,0.033,0.276,0.097c0.072,0.063,0.107,0.161,0.107,0.288C57.102,2.053,57.024,2.345,56.866,2.729z M55.869,2.069
				c-0.072,0-0.149,0.021-0.235,0.063c-0.084,0.042-0.197,0.131-0.33,0.266c-0.138,0.135-0.299,0.323-0.492,0.563
				c-0.193,0.241-0.438,0.553-0.738,0.935c-0.112,0.157-0.273,0.384-0.481,0.682c-0.207,0.298-0.47,0.691-0.79,1.181
				c-0.321,0.489-0.706,1.092-1.155,1.809c-0.449,0.716-0.979,1.564-1.593,2.542c0.852-0.481,1.652-1.065,2.401-1.752
				c0.746-0.686,1.39-1.392,1.931-2.115s0.969-1.426,1.283-2.107c0.314-0.681,0.473-1.256,0.474-1.725
				C56.144,2.183,56.053,2.069,55.869,2.069z"/>
			<path style="fill:none;stroke:#006461;stroke-width:0.8773;" d="M61.189,14.842c0.448-0.67,1.015-1.455,1.698-2.358
				c0.683-0.903,1.441-1.885,2.273-2.947c0.833-1.063,1.654-2.099,2.466-3.108c0.813-1.008,1.576-1.949,2.29-2.819
				c0.716-0.87,1.299-1.572,1.746-2.103c0.449-0.147,0.8-0.258,1.057-0.333c0.254-0.072,0.457-0.142,0.606-0.205
				c0.128,0.042,0.149,0.107,0.063,0.191c-0.254,0.171-0.416,0.415-0.479,0.733c-0.088,0.489-0.175,1.074-0.262,1.754
				c-0.085,0.681-0.168,1.404-0.244,2.17c-0.078,0.767-0.149,1.554-0.214,2.362c-0.067,0.808-0.123,1.573-0.167,2.297
				c-0.044,0.723-0.079,1.388-0.102,1.995s-0.036,1.09-0.037,1.452c0,0.213,0.016,0.356,0.049,0.431
				c0.03,0.075,0.073,0.107,0.126,0.096c0.053-0.01,0.111-0.053,0.176-0.127c0.063-0.074,0.128-0.155,0.191-0.239
				c0.235-0.298,0.62-0.771,1.153-1.418c0.534-0.647,1.142-1.379,1.827-2.197c0.683-0.817,1.408-1.671,2.177-2.564
				c0.767-0.891,1.505-1.734,2.21-2.53c0.706-0.796,1.341-1.502,1.909-2.118c0.569-0.615,0.99-1.062,1.268-1.337
				c0.34-0.17,0.756-0.327,1.246-0.475c0.49-0.147,0.886-0.315,1.184-0.502c0.063,0,0.116,0.027,0.158,0.081
				c0.042,0.054,0.042,0.111,0,0.175c-0.362,0.148-0.624,0.275-0.784,0.381c-0.16,0.105-0.293,0.307-0.4,0.605
				c-0.258,0.808-0.527,1.75-0.806,2.822c-0.279,1.076-0.532,2.175-0.76,3.303c-0.225,1.127-0.409,2.228-0.551,3.303
				c-0.141,1.074-0.212,2.016-0.215,2.824c-0.001,0.298,0.067,0.507,0.204,0.624c0.14,0.117,0.304,0.176,0.496,0.176
				c0.193,0.001,0.403-0.021,0.639-0.061c0.233-0.043,0.446-0.105,0.639-0.191c0.042,0.001,0.068,0.028,0.079,0.081
				c0.01,0.054-0.005,0.102-0.047,0.144c-0.236,0.064-0.49,0.138-0.768,0.223c-0.277,0.084-0.56,0.169-0.846,0.253
				c-0.288,0.085-0.56,0.165-0.816,0.239C81.364,16,81.161,16.057,81.01,16.1c-0.256-0.001-0.464-0.049-0.625-0.145
				c-0.16-0.096-0.26-0.272-0.302-0.528c0.021-0.298,0.098-0.787,0.229-1.468c0.13-0.68,0.291-1.446,0.487-2.296
				c0.194-0.851,0.404-1.745,0.632-2.68c0.227-0.935,0.439-1.802,0.632-2.599c0.193-0.797,0.362-1.472,0.502-2.025
				c0.139-0.553,0.221-0.883,0.242-0.989c0.084-0.319,0.084-0.473,0-0.463c-0.084,0.01-0.213,0.09-0.383,0.239
				c-0.622,0.551-1.376,1.311-2.263,2.276c-0.889,0.965-1.813,2.01-2.773,3.136c-0.962,1.124-1.896,2.271-2.802,3.438
				c-0.909,1.168-1.682,2.208-2.325,3.122c-0.042,0.085-0.094,0.187-0.157,0.304c-0.067,0.117-0.12,0.25-0.162,0.398
				c-0.404,0.02-0.708,0.076-0.91,0.172c-0.203,0.093-0.411,0.236-0.625,0.425c-0.126,0.041-0.202,0.021-0.221-0.064
				c0.063-0.444,0.133-1.038,0.21-1.782s0.154-1.563,0.232-2.456c0.077-0.894,0.147-1.814,0.214-2.762
				c0.066-0.946,0.133-1.84,0.198-2.68c0.067-0.841,0.121-1.58,0.167-2.218c0.044-0.637,0.078-1.095,0.098-1.372
				c0.002-0.404-0.168-0.405-0.509-0.001c-0.62,0.7-1.353,1.582-2.195,2.643c-0.843,1.063-1.692,2.166-2.545,3.313
				c-0.854,1.146-1.661,2.277-2.42,3.391c-0.758,1.115-1.363,2.066-1.813,2.852c-0.382,0.699-0.614,1.227-0.688,1.589
				c-0.078,0.361-0.106,0.66-0.085,0.894c0.021,0.234,0,0.334-0.063,0.302c-0.065-0.032-0.128-0.111-0.191-0.239
				c-0.065-0.128-0.117-0.32-0.16-0.575c-0.042-0.256-0.114-0.607-0.219-1.054C60.483,15.963,60.739,15.511,61.189,14.842z"/>
			<path style="fill:none;stroke:#006461;stroke-width:0.8773;" d="M92.527,13.732c-0.602,0.54-1.154,0.974-1.656,1.301
				c-0.388,0.249-0.784,0.442-1.19,0.575c-0.408,0.135-0.774,0.203-1.103,0.201c-0.115,0-0.253-0.01-0.407-0.03
				c-0.155-0.02-0.295-0.069-0.418-0.146c-0.126-0.078-0.233-0.18-0.319-0.306c-0.088-0.125-0.13-0.294-0.13-0.508
				c0.001-0.25,0.098-0.594,0.294-1.028c0.193-0.434,0.421-0.883,0.685-1.346c0.26-0.464,0.522-0.908,0.787-1.333
				c0.261-0.423,0.47-0.743,0.625-0.955c0.099-0.154,0.267-0.284,0.509-0.389c0.242-0.106,0.4-0.159,0.478-0.158
				c0.098,0,0.146,0.029,0.146,0.086c0,0.039-0.017,0.097-0.045,0.173c-0.029,0.078-0.062,0.136-0.102,0.175
				c-0.271,0.385-0.533,0.81-0.787,1.274c-0.253,0.462-0.484,0.911-0.698,1.346c-0.215,0.435-0.387,0.835-0.513,1.202
				c-0.126,0.367-0.19,0.657-0.19,0.87c0,0.232,0.062,0.401,0.186,0.508c0.126,0.106,0.296,0.159,0.507,0.161
				c0.389,0.001,0.814-0.128,1.278-0.388c0.465-0.259,0.925-0.573,1.38-0.939c0.456-0.365,0.877-0.751,1.264-1.156
				c0.39-0.405,0.688-0.751,0.903-1.041c0.096-0.096,0.15-0.121,0.161-0.072c0.007,0.049-0.007,0.121-0.046,0.217
				C93.659,12.624,93.127,13.193,92.527,13.732z M92.533,6.244c-0.204,0.231-0.43,0.347-0.683,0.347
				c-0.231,0-0.348-0.117-0.348-0.349c0.002-0.252,0.095-0.493,0.278-0.724c0.185-0.232,0.412-0.347,0.683-0.347
				c0.251,0.002,0.377,0.127,0.375,0.378C92.839,5.781,92.735,6.013,92.533,6.244z"/>
			<path style="fill:none;stroke:#006461;stroke-width:0.8773;" d="M105.09,2.864c-0.158,0.383-0.381,0.827-0.674,1.331
				c-0.292,0.503-0.646,1.043-1.067,1.618c-0.42,0.574-0.896,1.145-1.431,1.712c-0.533,0.567-1.119,1.109-1.758,1.627
				c-0.642,0.516-1.325,0.974-2.048,1.369c-0.127,0.227-0.306,0.533-0.534,0.915c-0.228,0.383-0.453,0.788-0.674,1.214
				c-0.221,0.426-0.412,0.845-0.576,1.257c-0.167,0.412-0.249,0.76-0.249,1.044c0,0.456,0.203,0.683,0.615,0.685
				c0.357,0.001,0.726-0.097,1.111-0.295c0.384-0.199,0.75-0.439,1.101-0.723c0.347-0.281,0.674-0.583,0.981-0.902
				c0.308-0.318,0.567-0.606,0.782-0.862c0.098-0.098,0.154-0.123,0.168-0.074s-0.006,0.104-0.063,0.16
				c-0.256,0.327-0.559,0.667-0.91,1.021c-0.347,0.354-0.719,0.68-1.109,0.978c-0.393,0.297-0.801,0.542-1.229,0.732
				c-0.426,0.192-0.854,0.286-1.279,0.285c-0.372-0.002-0.639-0.091-0.804-0.27c-0.161-0.178-0.244-0.396-0.244-0.65
				c0.002-0.257,0.112-0.623,0.334-1.099c0.221-0.476,0.481-0.977,0.781-1.501c0.299-0.525,0.599-1.021,0.898-1.49
				c0.3-0.469,0.521-0.824,0.664-1.065c0.242-0.412,0.492-0.841,0.75-1.288c0.256-0.447,0.513-0.884,0.769-1.31
				C99.65,6.857,99.9,6.45,100.142,6.06c0.242-0.392,0.463-0.735,0.663-1.033c0.242-0.369,0.492-0.716,0.749-1.042
				c0.256-0.327,0.583-0.652,0.981-0.978c0.54-0.454,1.039-0.802,1.495-1.04c0.453-0.241,0.758-0.362,0.915-0.361
				c0.114,0,0.206,0.033,0.277,0.097c0.069,0.065,0.104,0.16,0.104,0.288C105.325,2.189,105.248,2.48,105.09,2.864z M104.092,2.204
				c-0.07,0-0.15,0.021-0.235,0.063c-0.086,0.043-0.194,0.13-0.332,0.266c-0.133,0.134-0.297,0.323-0.49,0.563
				c-0.193,0.241-0.438,0.553-0.737,0.936c-0.112,0.156-0.274,0.383-0.481,0.681c-0.208,0.298-0.47,0.691-0.79,1.181
				c-0.322,0.49-0.706,1.093-1.155,1.809c-0.45,0.716-0.98,1.563-1.593,2.542c0.853-0.48,1.653-1.064,2.4-1.751
				c0.749-0.687,1.391-1.392,1.932-2.115c0.54-0.723,0.969-1.426,1.283-2.106c0.314-0.681,0.472-1.256,0.475-1.726
				C104.37,2.319,104.277,2.205,104.092,2.204z"/>
			<path style="fill:none;stroke:#006461;stroke-width:0.8773;" d="M109.29,13.678c-0.457,0.436-0.95,0.831-1.481,1.189
				c-0.535,0.357-1.089,0.647-1.67,0.869c-0.582,0.221-1.144,0.33-1.684,0.329c-0.91-0.002-1.363-0.411-1.359-1.225
				c0-0.542,0.141-1.124,0.424-1.743c0.282-0.62,0.647-1.2,1.092-1.741c0.446-0.542,0.931-0.991,1.454-1.349
				c0.524-0.357,1.037-0.535,1.539-0.534c0.271,0.001,0.46,0.05,0.565,0.147c0.107,0.097,0.158,0.223,0.158,0.377
				c0,0.233-0.074,0.484-0.218,0.754c-0.147,0.271-0.364,0.526-0.657,0.768c-0.288,0.242-0.663,0.443-1.116,0.606
				c-0.455,0.164-0.983,0.245-1.581,0.244c-0.098,0.173-0.205,0.448-0.323,0.824c-0.116,0.377-0.176,0.759-0.176,1.145
				c-0.003,0.792,0.354,1.189,1.068,1.192c0.446,0.001,0.906-0.103,1.38-0.315c0.473-0.211,0.934-0.476,1.378-0.793
				c0.446-0.318,0.857-0.665,1.236-1.041c0.377-0.375,0.694-0.727,0.944-1.057c0.042-0.038,0.084-0.047,0.133-0.028
				c0.045,0.021,0.07,0.059,0.07,0.116C110.137,12.822,109.745,13.242,109.29,13.678z M107.06,9.766
				c-0.193,0-0.394,0.072-0.597,0.216c-0.204,0.145-0.4,0.333-0.596,0.563c-0.195,0.231-0.377,0.482-0.553,0.752
				c-0.173,0.271-0.32,0.531-0.436,0.782c0.037,0.021,0.106,0.035,0.2,0.044c0.1,0.011,0.176,0.016,0.232,0.016
				c0.562,0.001,1.055-0.195,1.481-0.59c0.426-0.395,0.64-0.863,0.643-1.405C107.436,9.893,107.309,9.766,107.06,9.766z"/>
			<path style="fill:none;stroke:#006461;stroke-width:0.8773;" d="M115.467,10.606c-0.115-0.252-0.357-0.379-0.723-0.379
				c-0.274-0.001-0.545,0.075-0.817,0.23c-0.271,0.154-0.407,0.385-0.409,0.695c0,0.154,0.048,0.31,0.145,0.464
				c0.097,0.155,0.231,0.359,0.404,0.611c0.156,0.231,0.301,0.465,0.436,0.697c0.135,0.233,0.203,0.475,0.203,0.726
				c-0.004,0.503-0.119,0.914-0.355,1.233c-0.233,0.318-0.508,0.575-0.83,0.766c-0.321,0.193-0.645,0.322-0.973,0.389
				c-0.329,0.066-0.59,0.1-0.781,0.1c-1.18-0.004-1.827-0.403-1.942-1.198c0.098-0.058,0.21-0.13,0.336-0.216
				c0.124-0.087,0.219-0.169,0.275-0.247c0.039,0.001,0.066,0.039,0.088,0.117c0.095,0.348,0.277,0.648,0.547,0.9
				c0.271,0.251,0.588,0.378,0.957,0.378c0.152,0.002,0.337-0.013,0.55-0.041c0.212-0.028,0.41-0.091,0.595-0.187
				c0.185-0.097,0.343-0.247,0.479-0.449c0.136-0.203,0.206-0.469,0.206-0.798c0.002-0.251-0.048-0.483-0.143-0.696
				c-0.098-0.212-0.204-0.407-0.318-0.582c-0.115-0.194-0.229-0.387-0.347-0.581c-0.115-0.193-0.173-0.407-0.173-0.639
				c0.002-0.231,0.087-0.483,0.251-0.753c0.165-0.271,0.372-0.517,0.623-0.739c0.253-0.22,0.53-0.409,0.831-0.563
				c0.303-0.154,0.598-0.23,0.889-0.229c0.309,0.001,0.464,0.098,0.46,0.291c-0.057,0.097-0.115,0.208-0.174,0.333
				c-0.059,0.125-0.107,0.237-0.146,0.333C115.555,10.673,115.504,10.683,115.467,10.606z"/>
		</g>
	</g>
	<g>
		<g>
			<linearGradient id="SVGID_1_" gradientUnits="userSpaceOnUse" x1="66.0034" y1="-0.9053" x2="66.0034" y2="16.2082">
				<stop  offset="0" style="stop-color:#5592C9"/>
				<stop  offset="0.4944" style="stop-color:#CEDCE8"/>
				<stop  offset="1" style="stop-color:#5592C9"/>
			</linearGradient>
			<path style="fill:url(#SVGID_1_);" d="M16.077,16.026c0.126-0.187,0.285-0.423,0.481-0.711c0.199-0.288,0.464-0.678,0.794-1.173
				c0.33-0.494,0.751-1.122,1.259-1.884c0.507-0.761,1.122-1.708,1.849-2.841c-0.245-0.371-0.4-0.65-0.461-0.836
				c0.019-0.103,0.123-0.155,0.309-0.154l0.525,0.001c0.146,0.001,0.25-0.081,0.313-0.246c0.101-0.185,0.284-0.515,0.544-0.988
				c0.257-0.474,0.527-0.979,0.808-1.514c0.279-0.535,0.523-1.04,0.73-1.514c0.207-0.473,0.313-0.792,0.313-0.958
				c0-0.248-0.06-0.402-0.185-0.465c-0.124-0.061-0.319-0.093-0.588-0.094c-0.227-0.001-0.49,0.003-0.788,0.013
				c-0.301,0.01-0.562,0.036-0.789,0.075c-0.124,0-0.186-0.062-0.186-0.186c0-0.123,0.083-0.186,0.25-0.185
				c0.246,0.001,0.551-0.003,0.912-0.013c0.361-0.009,0.742-0.028,1.146-0.059c0.4-0.029,0.804-0.055,1.206-0.074
				c0.402-0.02,0.768-0.049,1.098-0.09c0.207,0.001,0.237,0.135,0.091,0.402c-0.207,0.288-0.428,0.618-0.667,0.989
				c-0.239,0.37-0.46,0.731-0.669,1.081c-0.311,0.536-0.651,1.143-1.025,1.822c-0.374,0.681-0.704,1.298-0.996,1.854
				c-0.062,0.103-0.098,0.184-0.109,0.247c-0.01,0.061,0.046,0.093,0.171,0.093c0.474,0.021,0.911,0.04,1.314,0.051
				c0.4,0.01,0.769,0.016,1.098,0.017c0.186,0,0.5-0.008,0.943-0.027c0.444-0.021,0.92-0.04,1.426-0.058
				c0.505-0.02,0.993-0.044,1.468-0.074c0.474-0.029,0.846-0.065,1.113-0.105c0.105-0.021,0.197-0.062,0.281-0.123
				c0.083-0.062,0.144-0.134,0.186-0.216c0.622-1.195,1.201-2.286,1.743-3.275c0.537-0.988,1.088-1.936,1.646-2.842
				c0.102-0.144,0.239-0.256,0.404-0.339c0.208-0.123,0.517-0.276,0.929-0.462c0.412-0.185,0.848-0.363,1.301-0.538
				c0.454-0.174,0.878-0.322,1.27-0.445C37.923,0.061,38.213-0.001,38.397,0c0.042,0,0.116,0.011,0.218,0.032
				c0.102,0.019,0.155,0.061,0.155,0.12c0,0.041-0.042,0.072-0.125,0.093c-0.083,0.02-0.144,0.03-0.185,0.03
				c-0.063,0-0.186,0.016-0.372,0.046c-0.186,0.031-0.392,0.082-0.618,0.153c-0.229,0.071-0.46,0.164-0.699,0.276
				c-0.237,0.113-0.45,0.252-0.634,0.417c-0.497,0.411-0.962,0.905-1.398,1.481c-0.29,0.412-0.591,0.855-0.9,1.329
				s-0.611,0.958-0.902,1.451c-0.288,0.496-0.569,0.988-0.84,1.484c-0.267,0.494-0.505,0.958-0.714,1.391
				c-0.746,1.545-1.287,2.792-1.619,3.74c-0.332,0.949-0.5,1.639-0.5,2.073c-0.004,0.804,0.409,1.208,1.232,1.21
				c0.291,0.001,0.646-0.07,1.068-0.214c0.424-0.143,0.76-0.295,1.007-0.461c0.063,0.001,0.104,0.027,0.123,0.079
				c0.021,0.052-0.009,0.119-0.091,0.202c-0.415,0.187-0.941,0.388-1.58,0.604c-0.64,0.217-1.426,0.344-2.353,0.382
				c-0.351-0.021-0.607-0.134-0.772-0.342s-0.246-0.475-0.246-0.805c0.002-0.33,0.063-0.702,0.19-1.113
				c0.207-0.597,0.442-1.2,0.702-1.808c0.258-0.607,0.502-1.148,0.73-1.622c0.084-0.166,0.125-0.34,0.126-0.526
				c0-0.289-0.154-0.484-0.464-0.589c-0.309-0.104-0.607-0.156-0.896-0.157c-0.497-0.001-1.021,0.007-1.58,0.026
				C25.906,9,25.353,9.029,24.807,9.067c-0.547,0.041-1.067,0.085-1.562,0.135c-0.496,0.05-0.919,0.105-1.269,0.167
				c-0.126,0.02-0.228,0.071-0.312,0.154c-0.081,0.083-0.165,0.186-0.248,0.309c-0.476,0.824-1,1.705-1.57,2.641
				c-0.571,0.937-1.042,1.868-1.417,2.796c-0.04,0.124-0.081,0.207-0.123,0.248c-0.042,0.041-0.144,0.061-0.309,0.061
				c-0.187,0-0.352,0.004-0.496,0.013c-0.144,0.011-0.279,0.036-0.404,0.077c-0.123,0.042-0.256,0.092-0.4,0.154
				c-0.146,0.061-0.321,0.149-0.527,0.268L16.077,16.026z"/>
			<linearGradient id="SVGID_2_" gradientUnits="userSpaceOnUse" x1="66.0034" y1="-0.9053" x2="66.0034" y2="16.2082">
				<stop  offset="0" style="stop-color:#5592C9"/>
				<stop  offset="0.4944" style="stop-color:#CEDCE8"/>
				<stop  offset="1" style="stop-color:#5592C9"/>
			</linearGradient>
			<path style="fill:url(#SVGID_2_);" d="M44.9,13.362c-0.534,0.54-1.071,1.031-1.614,1.474c-0.543,0.445-1.082,0.801-1.612,1.069
				c-0.534,0.269-1.022,0.403-1.466,0.401c-0.386,0-0.657-0.098-0.81-0.292c-0.154-0.194-0.232-0.435-0.232-0.725
				c0-0.271,0.084-0.633,0.25-1.088c0.165-0.453,0.415-0.941,0.745-1.462c-0.253,0.329-0.544,0.676-0.875,1.043
				c-0.33,0.368-0.667,0.707-1.017,1.015c-0.349,0.311-0.697,0.562-1.046,0.753c-0.348,0.192-0.659,0.288-0.929,0.288
				c-0.405,0-0.608-0.204-0.608-0.611c0.004-0.446,0.18-1.007,0.527-1.683c0.351-0.676,0.821-1.328,1.412-1.955
				c0.593-0.628,1.265-1.169,2.021-1.621c0.755-0.453,1.539-0.678,2.351-0.676c0.097-0.193,0.185-0.328,0.262-0.405
				s0.155-0.135,0.234-0.174l0.811-0.23l0.058,0.03c-0.097,0.097-0.188,0.217-0.275,0.362c-0.088,0.145-0.18,0.295-0.278,0.449
				c0.097,0,0.242,0.01,0.436,0.029c0.193,0.021,0.337,0.041,0.436,0.06c0.094,0.039,0.144,0.088,0.144,0.145
				c0,0.059-0.031,0.088-0.087,0.088c-0.116-0.039-0.29-0.068-0.521-0.088c-0.234-0.02-0.406-0.03-0.521-0.031
				c-0.896,1.564-1.551,2.805-1.969,3.722c-0.418,0.917-0.627,1.599-0.628,2.044c-0.002,0.175,0.042,0.32,0.128,0.436
				c0.088,0.117,0.267,0.175,0.538,0.176c0.309,0.001,0.676-0.109,1.102-0.33c0.425-0.221,0.88-0.529,1.364-0.925
				c0.485-0.396,0.984-0.853,1.498-1.375c0.513-0.521,1.004-1.07,1.468-1.65c0.039-0.058,0.077-0.072,0.116-0.043
				c0.038,0.029,0.059,0.073,0.059,0.131C45.923,12.271,45.432,12.822,44.9,13.362z M41.85,9.501
				c-0.657-0.001-1.286,0.229-1.886,0.691c-0.601,0.462-1.134,1.007-1.598,1.634c-0.467,0.626-0.841,1.249-1.124,1.867
				c-0.281,0.618-0.421,1.072-0.423,1.363c0,0.154,0.058,0.231,0.173,0.231c0.116,0,0.295-0.076,0.538-0.229
				c0.24-0.154,0.513-0.361,0.813-0.622c0.3-0.259,0.616-0.563,0.944-0.91c0.33-0.347,0.631-0.724,0.903-1.129
				c0.311-0.462,0.611-0.955,0.902-1.476c0.29-0.521,0.553-0.984,0.789-1.39L41.85,9.501z"/>
			<linearGradient id="SVGID_3_" gradientUnits="userSpaceOnUse" x1="66.0034" y1="-0.9053" x2="66.0034" y2="16.2082">
				<stop  offset="0" style="stop-color:#5592C9"/>
				<stop  offset="0.4944" style="stop-color:#CEDCE8"/>
				<stop  offset="1" style="stop-color:#5592C9"/>
			</linearGradient>
			<path style="fill:url(#SVGID_3_);" d="M56.866,2.729c-0.158,0.383-0.382,0.827-0.674,1.33c-0.291,0.505-0.647,1.044-1.067,1.619
				c-0.421,0.574-0.897,1.146-1.429,1.712c-0.534,0.568-1.121,1.11-1.759,1.626c-0.639,0.517-1.324,0.974-2.047,1.371
				c-0.128,0.227-0.305,0.531-0.534,0.915c-0.228,0.383-0.453,0.787-0.674,1.214c-0.222,0.425-0.415,0.844-0.576,1.256
				c-0.165,0.412-0.248,0.761-0.25,1.044c0,0.456,0.204,0.683,0.617,0.684c0.354,0.001,0.725-0.098,1.109-0.295
				c0.385-0.199,0.75-0.438,1.099-0.722c0.35-0.283,0.677-0.584,0.984-0.903c0.305-0.319,0.567-0.606,0.779-0.862
				c0.1-0.099,0.157-0.124,0.17-0.074c0.014,0.05-0.007,0.103-0.063,0.16c-0.256,0.326-0.56,0.667-0.909,1.021
				c-0.35,0.355-0.72,0.681-1.11,0.978c-0.393,0.298-0.801,0.542-1.229,0.732c-0.424,0.191-0.853,0.286-1.278,0.284
				c-0.372,0-0.64-0.091-0.804-0.268c-0.163-0.179-0.246-0.396-0.245-0.651c0.002-0.256,0.111-0.623,0.333-1.098
				c0.221-0.476,0.481-0.976,0.783-1.501c0.299-0.525,0.599-1.022,0.899-1.491c0.298-0.467,0.52-0.822,0.66-1.063
				c0.244-0.411,0.492-0.842,0.751-1.289c0.256-0.447,0.513-0.883,0.77-1.309c0.256-0.426,0.505-0.834,0.748-1.224
				c0.242-0.391,0.463-0.734,0.664-1.033c0.241-0.369,0.492-0.716,0.749-1.043c0.256-0.326,0.583-0.652,0.981-0.978
				c0.541-0.453,1.038-0.8,1.493-1.042c0.455-0.241,0.76-0.359,0.917-0.359c0.114,0,0.206,0.033,0.276,0.097
				c0.072,0.063,0.107,0.161,0.107,0.288C57.102,2.053,57.024,2.345,56.866,2.729z M55.869,2.069c-0.072,0-0.149,0.021-0.235,0.063
				c-0.084,0.042-0.197,0.131-0.33,0.266c-0.138,0.135-0.299,0.323-0.492,0.563c-0.193,0.241-0.438,0.553-0.738,0.935
				c-0.112,0.157-0.273,0.384-0.481,0.682c-0.207,0.298-0.47,0.691-0.79,1.181c-0.321,0.489-0.706,1.092-1.155,1.809
				c-0.449,0.716-0.979,1.564-1.593,2.542c0.852-0.481,1.652-1.065,2.401-1.752c0.746-0.686,1.39-1.392,1.931-2.115
				s0.969-1.426,1.283-2.107c0.314-0.681,0.473-1.256,0.474-1.725C56.144,2.183,56.053,2.069,55.869,2.069z"/>
			<linearGradient id="SVGID_4_" gradientUnits="userSpaceOnUse" x1="66.0034" y1="-0.9053" x2="66.0034" y2="16.2082">
				<stop  offset="0" style="stop-color:#5592C9"/>
				<stop  offset="0.4944" style="stop-color:#CEDCE8"/>
				<stop  offset="1" style="stop-color:#5592C9"/>
			</linearGradient>
			<path style="fill:url(#SVGID_4_);" d="M61.189,14.842c0.448-0.67,1.015-1.455,1.698-2.358c0.683-0.903,1.441-1.885,2.273-2.947
				c0.833-1.063,1.654-2.099,2.466-3.108c0.813-1.008,1.576-1.949,2.29-2.819c0.716-0.87,1.299-1.572,1.746-2.103
				c0.449-0.147,0.8-0.258,1.057-0.333c0.254-0.072,0.457-0.142,0.606-0.205c0.128,0.042,0.149,0.107,0.063,0.191
				c-0.254,0.171-0.416,0.415-0.479,0.733c-0.088,0.489-0.175,1.074-0.262,1.754c-0.085,0.681-0.168,1.404-0.244,2.17
				c-0.078,0.767-0.149,1.554-0.214,2.362c-0.067,0.808-0.123,1.573-0.167,2.297c-0.044,0.723-0.079,1.388-0.102,1.995
				s-0.036,1.09-0.037,1.452c0,0.213,0.016,0.356,0.049,0.431c0.03,0.075,0.073,0.107,0.126,0.096
				c0.053-0.01,0.111-0.053,0.176-0.127c0.063-0.074,0.128-0.155,0.191-0.239c0.235-0.298,0.62-0.771,1.153-1.418
				c0.534-0.647,1.142-1.379,1.827-2.197c0.683-0.817,1.408-1.671,2.177-2.564c0.767-0.891,1.505-1.734,2.21-2.53
				c0.706-0.796,1.341-1.502,1.909-2.118c0.569-0.615,0.99-1.062,1.268-1.337c0.34-0.17,0.756-0.327,1.246-0.475
				c0.49-0.147,0.886-0.315,1.184-0.502c0.063,0,0.116,0.027,0.158,0.081c0.042,0.054,0.042,0.111,0,0.175
				c-0.362,0.148-0.624,0.275-0.784,0.381c-0.16,0.105-0.293,0.307-0.4,0.605c-0.258,0.808-0.527,1.75-0.806,2.822
				c-0.279,1.076-0.532,2.175-0.76,3.303c-0.225,1.127-0.409,2.228-0.551,3.303c-0.141,1.074-0.212,2.016-0.215,2.824
				c-0.001,0.298,0.067,0.507,0.204,0.624c0.14,0.117,0.304,0.176,0.496,0.176c0.193,0.001,0.403-0.021,0.639-0.061
				c0.233-0.043,0.446-0.105,0.639-0.191c0.042,0.001,0.068,0.028,0.079,0.081c0.01,0.054-0.005,0.102-0.047,0.144
				c-0.236,0.064-0.49,0.138-0.768,0.223c-0.277,0.084-0.56,0.169-0.846,0.253c-0.288,0.085-0.56,0.165-0.816,0.239
				C81.364,16,81.161,16.057,81.01,16.1c-0.256-0.001-0.464-0.049-0.625-0.145c-0.16-0.096-0.26-0.272-0.302-0.528
				c0.021-0.298,0.098-0.787,0.229-1.468c0.13-0.68,0.291-1.446,0.487-2.296c0.194-0.851,0.404-1.745,0.632-2.68
				c0.227-0.935,0.439-1.802,0.632-2.599c0.193-0.797,0.362-1.472,0.502-2.025c0.139-0.553,0.221-0.883,0.242-0.989
				c0.084-0.319,0.084-0.473,0-0.463c-0.084,0.01-0.213,0.09-0.383,0.239c-0.622,0.551-1.376,1.311-2.263,2.276
				c-0.889,0.965-1.813,2.01-2.773,3.136c-0.962,1.124-1.896,2.271-2.802,3.438c-0.909,1.168-1.682,2.208-2.325,3.122
				c-0.042,0.085-0.094,0.187-0.157,0.304c-0.067,0.117-0.12,0.25-0.162,0.398c-0.404,0.02-0.708,0.076-0.91,0.172
				c-0.203,0.093-0.411,0.236-0.625,0.425c-0.126,0.041-0.202,0.021-0.221-0.064c0.063-0.444,0.133-1.038,0.21-1.782
				s0.154-1.563,0.232-2.456c0.077-0.894,0.147-1.814,0.214-2.762c0.066-0.946,0.133-1.84,0.198-2.68
				c0.067-0.841,0.121-1.58,0.167-2.218c0.044-0.637,0.078-1.095,0.098-1.372c0.002-0.404-0.168-0.405-0.509-0.001
				c-0.62,0.7-1.353,1.582-2.195,2.643c-0.843,1.063-1.692,2.166-2.545,3.313c-0.854,1.146-1.661,2.277-2.42,3.391
				c-0.758,1.115-1.363,2.066-1.813,2.852c-0.382,0.699-0.614,1.227-0.688,1.589c-0.078,0.361-0.106,0.66-0.085,0.894
				c0.021,0.234,0,0.334-0.063,0.302c-0.065-0.032-0.128-0.111-0.191-0.239c-0.065-0.128-0.117-0.32-0.16-0.575
				c-0.042-0.256-0.114-0.607-0.219-1.054C60.483,15.963,60.739,15.511,61.189,14.842z"/>
			<linearGradient id="SVGID_5_" gradientUnits="userSpaceOnUse" x1="66.0034" y1="-0.9053" x2="66.0034" y2="16.2082">
				<stop  offset="0" style="stop-color:#5592C9"/>
				<stop  offset="0.4944" style="stop-color:#CEDCE8"/>
				<stop  offset="1" style="stop-color:#5592C9"/>
			</linearGradient>
			<path style="fill:url(#SVGID_5_);" d="M92.527,13.732c-0.602,0.54-1.154,0.974-1.656,1.301c-0.388,0.249-0.784,0.442-1.19,0.575
				c-0.408,0.135-0.774,0.203-1.103,0.201c-0.115,0-0.253-0.01-0.407-0.03c-0.155-0.02-0.295-0.069-0.418-0.146
				c-0.126-0.078-0.233-0.18-0.319-0.306c-0.088-0.125-0.13-0.294-0.13-0.508c0.001-0.25,0.098-0.594,0.294-1.028
				c0.193-0.434,0.421-0.883,0.685-1.346c0.26-0.464,0.522-0.908,0.787-1.333c0.261-0.423,0.47-0.743,0.625-0.955
				c0.099-0.154,0.267-0.284,0.509-0.389c0.242-0.106,0.4-0.159,0.478-0.158c0.098,0,0.146,0.029,0.146,0.086
				c0,0.039-0.017,0.097-0.045,0.173c-0.029,0.078-0.062,0.136-0.102,0.175c-0.271,0.385-0.533,0.81-0.787,1.274
				c-0.253,0.462-0.484,0.911-0.698,1.346c-0.215,0.435-0.387,0.835-0.513,1.202c-0.126,0.367-0.19,0.657-0.19,0.87
				c0,0.232,0.062,0.401,0.186,0.508c0.126,0.106,0.296,0.159,0.507,0.161c0.389,0.001,0.814-0.128,1.278-0.388
				c0.465-0.259,0.925-0.573,1.38-0.939c0.456-0.365,0.877-0.751,1.264-1.156c0.39-0.405,0.688-0.751,0.903-1.041
				c0.096-0.096,0.15-0.121,0.161-0.072c0.007,0.049-0.007,0.121-0.046,0.217C93.659,12.624,93.127,13.193,92.527,13.732z
				 M92.533,6.244c-0.204,0.231-0.43,0.347-0.683,0.347c-0.231,0-0.348-0.117-0.348-0.349c0.002-0.252,0.095-0.493,0.278-0.724
				c0.185-0.232,0.412-0.347,0.683-0.347c0.251,0.002,0.377,0.127,0.375,0.378C92.839,5.781,92.735,6.013,92.533,6.244z"/>
			<linearGradient id="SVGID_6_" gradientUnits="userSpaceOnUse" x1="66.0034" y1="-0.9053" x2="66.0034" y2="16.2082">
				<stop  offset="0" style="stop-color:#5592C9"/>
				<stop  offset="0.4944" style="stop-color:#CEDCE8"/>
				<stop  offset="1" style="stop-color:#5592C9"/>
			</linearGradient>
			<path style="fill:url(#SVGID_6_);" d="M105.09,2.864c-0.158,0.383-0.381,0.827-0.674,1.331c-0.292,0.503-0.646,1.043-1.067,1.618
				c-0.42,0.574-0.896,1.145-1.431,1.712c-0.533,0.567-1.119,1.109-1.758,1.627c-0.642,0.516-1.325,0.974-2.048,1.369
				c-0.127,0.227-0.306,0.533-0.534,0.915c-0.228,0.383-0.453,0.788-0.674,1.214c-0.221,0.426-0.412,0.845-0.576,1.257
				c-0.167,0.412-0.249,0.76-0.249,1.044c0,0.456,0.203,0.683,0.615,0.685c0.357,0.001,0.726-0.097,1.111-0.295
				c0.384-0.199,0.75-0.439,1.101-0.723c0.347-0.281,0.674-0.583,0.981-0.902c0.308-0.318,0.567-0.606,0.782-0.862
				c0.098-0.098,0.154-0.123,0.168-0.074s-0.006,0.104-0.063,0.16c-0.256,0.327-0.559,0.667-0.91,1.021
				c-0.347,0.354-0.719,0.68-1.109,0.978c-0.393,0.297-0.801,0.542-1.229,0.732c-0.426,0.192-0.854,0.286-1.279,0.285
				c-0.372-0.002-0.639-0.091-0.804-0.27c-0.161-0.178-0.244-0.396-0.244-0.65c0.002-0.257,0.112-0.623,0.334-1.099
				c0.221-0.476,0.481-0.977,0.781-1.501c0.299-0.525,0.599-1.021,0.898-1.49c0.3-0.469,0.521-0.824,0.664-1.065
				c0.242-0.412,0.492-0.841,0.75-1.288c0.256-0.447,0.513-0.884,0.769-1.31C99.65,6.857,99.9,6.45,100.142,6.06
				c0.242-0.392,0.463-0.735,0.663-1.033c0.242-0.369,0.492-0.716,0.749-1.042c0.256-0.327,0.583-0.652,0.981-0.978
				c0.54-0.454,1.039-0.802,1.495-1.04c0.453-0.241,0.758-0.362,0.915-0.361c0.114,0,0.206,0.033,0.277,0.097
				c0.069,0.065,0.104,0.16,0.104,0.288C105.325,2.189,105.248,2.48,105.09,2.864z M104.092,2.204c-0.07,0-0.15,0.021-0.235,0.063
				c-0.086,0.043-0.194,0.13-0.332,0.266c-0.133,0.134-0.297,0.323-0.49,0.563c-0.193,0.241-0.438,0.553-0.737,0.936
				c-0.112,0.156-0.274,0.383-0.481,0.681c-0.208,0.298-0.47,0.691-0.79,1.181c-0.322,0.49-0.706,1.093-1.155,1.809
				c-0.45,0.716-0.98,1.563-1.593,2.542c0.853-0.48,1.653-1.064,2.4-1.751c0.749-0.687,1.391-1.392,1.932-2.115
				c0.54-0.723,0.969-1.426,1.283-2.106c0.314-0.681,0.472-1.256,0.475-1.726C104.37,2.319,104.277,2.205,104.092,2.204z"/>
			<linearGradient id="SVGID_7_" gradientUnits="userSpaceOnUse" x1="66.0034" y1="-0.9053" x2="66.0034" y2="16.2082">
				<stop  offset="0" style="stop-color:#5592C9"/>
				<stop  offset="0.4944" style="stop-color:#CEDCE8"/>
				<stop  offset="1" style="stop-color:#5592C9"/>
			</linearGradient>
			<path style="fill:url(#SVGID_7_);" d="M109.29,13.678c-0.457,0.436-0.95,0.831-1.481,1.189c-0.535,0.357-1.089,0.647-1.67,0.869
				c-0.582,0.221-1.144,0.33-1.684,0.329c-0.91-0.002-1.363-0.411-1.359-1.225c0-0.542,0.141-1.124,0.424-1.743
				c0.282-0.62,0.647-1.2,1.092-1.741c0.446-0.542,0.931-0.991,1.454-1.349c0.524-0.357,1.037-0.535,1.539-0.534
				c0.271,0.001,0.46,0.05,0.565,0.147c0.107,0.097,0.158,0.223,0.158,0.377c0,0.233-0.074,0.484-0.218,0.754
				c-0.147,0.271-0.364,0.526-0.657,0.768c-0.288,0.242-0.663,0.443-1.116,0.606c-0.455,0.164-0.983,0.245-1.581,0.244
				c-0.098,0.173-0.205,0.448-0.323,0.824c-0.116,0.377-0.176,0.759-0.176,1.145c-0.003,0.792,0.354,1.189,1.068,1.192
				c0.446,0.001,0.906-0.103,1.38-0.315c0.473-0.211,0.934-0.476,1.378-0.793c0.446-0.318,0.857-0.665,1.236-1.041
				c0.377-0.375,0.694-0.727,0.944-1.057c0.042-0.038,0.084-0.047,0.133-0.028c0.045,0.021,0.07,0.059,0.07,0.116
				C110.137,12.822,109.745,13.242,109.29,13.678z M107.06,9.766c-0.193,0-0.394,0.072-0.597,0.216
				c-0.204,0.145-0.4,0.333-0.596,0.563c-0.195,0.231-0.377,0.482-0.553,0.752c-0.173,0.271-0.32,0.531-0.436,0.782
				c0.037,0.021,0.106,0.035,0.2,0.044c0.1,0.011,0.176,0.016,0.232,0.016c0.562,0.001,1.055-0.195,1.481-0.59
				c0.426-0.395,0.64-0.863,0.643-1.405C107.436,9.893,107.309,9.766,107.06,9.766z"/>
			<linearGradient id="SVGID_8_" gradientUnits="userSpaceOnUse" x1="66.0034" y1="-0.9053" x2="66.0034" y2="16.2082">
				<stop  offset="0" style="stop-color:#5592C9"/>
				<stop  offset="0.4944" style="stop-color:#CEDCE8"/>
				<stop  offset="1" style="stop-color:#5592C9"/>
			</linearGradient>
			<path style="fill:url(#SVGID_8_);" d="M115.467,10.606c-0.115-0.252-0.357-0.379-0.723-0.379
				c-0.274-0.001-0.545,0.075-0.817,0.23c-0.271,0.154-0.407,0.385-0.409,0.695c0,0.154,0.048,0.31,0.145,0.464
				c0.097,0.155,0.231,0.359,0.404,0.611c0.156,0.231,0.301,0.465,0.436,0.697c0.135,0.233,0.203,0.475,0.203,0.726
				c-0.004,0.503-0.119,0.914-0.355,1.233c-0.233,0.318-0.508,0.575-0.83,0.766c-0.321,0.193-0.645,0.322-0.973,0.389
				c-0.329,0.066-0.59,0.1-0.781,0.1c-1.18-0.004-1.827-0.403-1.942-1.198c0.098-0.058,0.21-0.13,0.336-0.216
				c0.124-0.087,0.219-0.169,0.275-0.247c0.039,0.001,0.066,0.039,0.088,0.117c0.095,0.348,0.277,0.648,0.547,0.9
				c0.271,0.251,0.588,0.378,0.957,0.378c0.152,0.002,0.337-0.013,0.55-0.041c0.212-0.028,0.41-0.091,0.595-0.187
				c0.185-0.097,0.343-0.247,0.479-0.449c0.136-0.203,0.206-0.469,0.206-0.798c0.002-0.251-0.048-0.483-0.143-0.696
				c-0.098-0.212-0.204-0.407-0.318-0.582c-0.115-0.194-0.229-0.387-0.347-0.581c-0.115-0.193-0.173-0.407-0.173-0.639
				c0.002-0.231,0.087-0.483,0.251-0.753c0.165-0.271,0.372-0.517,0.623-0.739c0.253-0.22,0.53-0.409,0.831-0.563
				c0.303-0.154,0.598-0.23,0.889-0.229c0.309,0.001,0.464,0.098,0.46,0.291c-0.057,0.097-0.115,0.208-0.174,0.333
				c-0.059,0.125-0.107,0.237-0.146,0.333C115.555,10.673,115.504,10.683,115.467,10.606z"/>
		</g>
	</g>
	<g>
		
			<image style="overflow:visible;opacity:0.75;" width="229" height="34" xlink:href="992020D8.png"  transform="matrix(1 0 0 1 -3 14.5806)">
		</image>
		<g>
			<g>
				<g>
					
						<image style="overflow:visible;opacity:0.75;" width="16" height="26" xlink:href="992020D9.png"  transform="matrix(1 0 0 1 0 16.5806)">
					</image>
					<g>
						<linearGradient id="SVGID_9_" gradientUnits="userSpaceOnUse" x1="7.6157" y1="21.46" x2="7.6157" y2="36.3614">
							<stop  offset="0" style="stop-color:#F6C846"/>
							<stop  offset="0.4944" style="stop-color:#F7EEB1"/>
							<stop  offset="1" style="stop-color:#F6C846"/>
						</linearGradient>
						<path style="fill:url(#SVGID_9_);" d="M4.579,37.151v-0.353c0.737-0.059,0.825-0.267,0.825-0.532V22.527
							c0-0.265-0.088-0.471-0.825-0.53v-0.354h6.074v0.354c-0.738,0.059-0.826,0.265-0.826,0.53v13.739
							c0,0.265,0.088,0.473,0.826,0.532v0.353H4.579z"/>
						<path style="fill:none;stroke:#EFA656;stroke-width:0.2924;" d="M4.579,37.151v-0.353c0.737-0.059,0.825-0.267,0.825-0.532
							V22.527c0-0.265-0.088-0.471-0.825-0.53v-0.354h6.074v0.354c-0.738,0.059-0.826,0.265-0.826,0.53v13.739
							c0,0.265,0.088,0.473,0.826,0.532v0.353H4.579z"/>
					</g>
				</g>
				<g>
					
						<image style="overflow:visible;opacity:0.75;" width="27" height="23" xlink:href="992020DF.png"  transform="matrix(1 0 0 1 14 19.5806)">
					</image>
					<g>
						<linearGradient id="SVGID_10_" gradientUnits="userSpaceOnUse" x1="26.9126" y1="21.4604" x2="26.9126" y2="36.361">
							<stop  offset="0" style="stop-color:#F6C846"/>
							<stop  offset="0.4944" style="stop-color:#F7EEB1"/>
							<stop  offset="1" style="stop-color:#F6C846"/>
						</linearGradient>
						<path style="fill:url(#SVGID_10_);" d="M22.357,36.266c0,0.412,0.353,0.5,0.825,0.532v0.353h-4.628v-0.353
							c0.325-0.032,0.68-0.12,0.68-0.532V25.063c0-0.413-0.355-0.502-0.68-0.531v-0.353h6.396v0.353
							c-0.293,0.029-0.558,0.059-0.558,0.237c0,0.294,2.181,4.568,2.416,5.158c0.945-1.916,2.595-4.776,2.595-5.158
							c0-0.178-0.265-0.208-0.561-0.237v-0.353h6.427v0.353c-0.266,0.029-0.62,0.118-0.62,0.531v11.203
							c0,0.412,0.354,0.5,0.62,0.532v0.353h-4.922v-0.353c0.411-0.032,0.765-0.12,0.765-0.532v-8.373h-0.06l-4.393,8.52l-4.246-8.52
							h-0.058V36.266z"/>
						<path style="fill:none;stroke:#EFA656;stroke-width:0.2924;" d="M22.357,36.266c0,0.412,0.353,0.5,0.825,0.532v0.353h-4.628
							v-0.353c0.325-0.032,0.68-0.12,0.68-0.532V25.063c0-0.413-0.355-0.502-0.68-0.531v-0.353h6.396v0.353
							c-0.293,0.029-0.558,0.059-0.558,0.237c0,0.294,2.181,4.568,2.416,5.158c0.945-1.916,2.595-4.776,2.595-5.158
							c0-0.178-0.265-0.208-0.561-0.237v-0.353h6.427v0.353c-0.266,0.029-0.62,0.118-0.62,0.531v11.203
							c0,0.412,0.354,0.5,0.62,0.532v0.353h-4.922v-0.353c0.411-0.032,0.765-0.12,0.765-0.532v-8.373h-0.06l-4.393,8.52l-4.246-8.52
							h-0.058V36.266z"/>
					</g>
				</g>
				<g>
					
						<image style="overflow:visible;opacity:0.75;" width="27" height="23" xlink:href="992020DA.png"  transform="matrix(1 0 0 1 37 19.5806)">
					</image>
					<g>
						<linearGradient id="SVGID_11_" gradientUnits="userSpaceOnUse" x1="50.248" y1="21.4604" x2="50.248" y2="36.361">
							<stop  offset="0" style="stop-color:#F6C846"/>
							<stop  offset="0.4944" style="stop-color:#F7EEB1"/>
							<stop  offset="1" style="stop-color:#F6C846"/>
						</linearGradient>
						<path style="fill:url(#SVGID_11_);" d="M53.905,37.151v-0.353c0.116,0,0.383,0,0.383-0.267c0-0.323-0.65-1.475-0.857-2.004
							h-6.839c-0.177,0.529-0.855,1.681-0.855,2.004c0,0.267,0.265,0.267,0.383,0.267v0.353h-4.421v-0.353
							c0.235,0,0.502-0.089,0.59-0.294c2.358-5.515,5.099-11.264,5.099-11.676c0-0.207-0.088-0.267-0.383-0.295v-0.353h6.163v0.353
							c-0.294,0.029-0.385,0.088-0.385,0.295c0,0.354,4.128,8.638,5.424,11.676c0.091,0.205,0.355,0.294,0.59,0.294v0.353H53.905z
							 M52.43,32.404l-2.477-5.159l-2.418,5.159H52.43z"/>
						<path style="fill:none;stroke:#EFA656;stroke-width:0.2924;" d="M53.905,37.151v-0.353c0.116,0,0.383,0,0.383-0.267
							c0-0.323-0.65-1.475-0.857-2.004h-6.839c-0.177,0.529-0.855,1.681-0.855,2.004c0,0.267,0.265,0.267,0.383,0.267v0.353h-4.421
							v-0.353c0.235,0,0.502-0.089,0.59-0.294c2.358-5.515,5.099-11.264,5.099-11.676c0-0.207-0.088-0.267-0.383-0.295v-0.353h6.163
							v0.353c-0.294,0.029-0.385,0.088-0.385,0.295c0,0.354,4.128,8.638,5.424,11.676c0.091,0.205,0.355,0.294,0.59,0.294v0.353
							H53.905z M52.43,32.404l-2.477-5.159l-2.418,5.159H52.43z"/>
					</g>
				</g>
				<g>
					
						<image style="overflow:visible;opacity:0.75;" width="26" height="24" xlink:href="992020DB.png"  transform="matrix(1 0 0 1 59 18.5806)">
					</image>
					<g>
						<linearGradient id="SVGID_12_" gradientUnits="userSpaceOnUse" x1="72.1538" y1="21.4595" x2="72.1538" y2="36.3616">
							<stop  offset="0" style="stop-color:#F6C846"/>
							<stop  offset="0.4944" style="stop-color:#F7EEB1"/>
							<stop  offset="1" style="stop-color:#F6C846"/>
						</linearGradient>
						<path style="fill:url(#SVGID_12_);" d="M79.229,30.075v4.04c0,0.384,0.208,0.767,0.562,0.767h0.265v0.354
							c-1.828,0.973-5.073,2.093-8.02,2.093c-4.6,0-7.785-2.063-7.785-6.663s3.775-6.663,7.785-6.663
							c1.503,0,2.743,0.207,3.685,0.441c0.944,0.237,1.562,0.443,1.77,0.443c0.295,0,0.354-0.147,0.502-0.295l0.353,0.059
							l-1.533,3.892l-0.355-0.178v-0.206c0-0.708-2.416-1.327-3.831-1.327c-2.508,0-4.483,1.09-4.483,3.833
							c0,2.8,2.005,4.009,4.571,4.009c0.973,0,1.916-0.118,2.858-0.442v-1.916h-2.476c-0.471,0-0.531,0.473-0.531,0.707h-0.354
							v-3.656h0.354c0,0.236,0.06,0.708,0.531,0.708H79.229z"/>
						<path style="fill:none;stroke:#EFA656;stroke-width:0.2924;" d="M79.229,30.075v4.04c0,0.384,0.208,0.767,0.562,0.767h0.265
							v0.354c-1.828,0.973-5.073,2.093-8.02,2.093c-4.6,0-7.785-2.063-7.785-6.663s3.775-6.663,7.785-6.663
							c1.503,0,2.743,0.207,3.685,0.441c0.944,0.237,1.562,0.443,1.77,0.443c0.295,0,0.354-0.147,0.502-0.295l0.353,0.059
							l-1.533,3.892l-0.355-0.178v-0.206c0-0.708-2.416-1.327-3.831-1.327c-2.508,0-4.483,1.09-4.483,3.833
							c0,2.8,2.005,4.009,4.571,4.009c0.973,0,1.916-0.118,2.858-0.442v-1.916h-2.476c-0.471,0-0.531,0.473-0.531,0.707h-0.354
							v-3.656h0.354c0,0.236,0.06,0.708,0.531,0.708H79.229z"/>
					</g>
				</g>
				<g>
					
						<image style="overflow:visible;opacity:0.75;" width="16" height="23" xlink:href="992020D6.png"  transform="matrix(1 0 0 1 81 19.5806)">
					</image>
					<g>
						<linearGradient id="SVGID_13_" gradientUnits="userSpaceOnUse" x1="89.0186" y1="21.4604" x2="89.0186" y2="36.361">
							<stop  offset="0" style="stop-color:#F6C846"/>
							<stop  offset="0.4944" style="stop-color:#F7EEB1"/>
							<stop  offset="1" style="stop-color:#F6C846"/>
						</linearGradient>
						<path style="fill:url(#SVGID_13_);" d="M91.938,24.179v0.353c-0.589,0.029-0.943,0.118-0.943,0.531v11.203
							c0,0.412,0.354,0.5,0.943,0.532v0.353H86.1v-0.353c0.59-0.032,0.943-0.12,0.943-0.532V25.063c0-0.413-0.353-0.502-0.943-0.531
							v-0.353H91.938z"/>
						<path style="fill:none;stroke:#EFA656;stroke-width:0.2924;" d="M91.938,24.179v0.353c-0.589,0.029-0.943,0.118-0.943,0.531
							v11.203c0,0.412,0.354,0.5,0.943,0.532v0.353H86.1v-0.353c0.59-0.032,0.943-0.12,0.943-0.532V25.063
							c0-0.413-0.353-0.502-0.943-0.531v-0.353H91.938z"/>
					</g>
				</g>
				<g>
					
						<image style="overflow:visible;opacity:0.75;" width="27" height="23" xlink:href="992020D7.png"  transform="matrix(1 0 0 1 94 19.5806)">
					</image>
					<g>
						<linearGradient id="SVGID_14_" gradientUnits="userSpaceOnUse" x1="107.4888" y1="21.4604" x2="107.4888" y2="36.361">
							<stop  offset="0" style="stop-color:#F6C846"/>
							<stop  offset="0.4944" style="stop-color:#F7EEB1"/>
							<stop  offset="1" style="stop-color:#F6C846"/>
						</linearGradient>
						<path style="fill:url(#SVGID_14_);" d="M102.934,36.266c0,0.412,0.354,0.5,0.825,0.532v0.353h-4.628v-0.353
							c0.326-0.032,0.677-0.12,0.677-0.532V25.063c0-0.413-0.351-0.502-0.677-0.531v-0.353h6.397v0.353
							c-0.294,0.029-0.56,0.059-0.56,0.237c0,0.294,2.183,4.568,2.417,5.158c0.945-1.916,2.596-4.776,2.596-5.158
							c0-0.178-0.268-0.208-0.562-0.237v-0.353h6.427v0.353c-0.264,0.029-0.618,0.118-0.618,0.531v11.203
							c0,0.412,0.354,0.5,0.618,0.532v0.353h-4.922v-0.353c0.413-0.032,0.768-0.12,0.768-0.532v-8.373h-0.06l-4.394,8.52
							l-4.246-8.52h-0.059V36.266z"/>
						<path style="fill:none;stroke:#EFA656;stroke-width:0.2924;" d="M102.934,36.266c0,0.412,0.354,0.5,0.825,0.532v0.353h-4.628
							v-0.353c0.326-0.032,0.677-0.12,0.677-0.532V25.063c0-0.413-0.351-0.502-0.677-0.531v-0.353h6.397v0.353
							c-0.294,0.029-0.56,0.059-0.56,0.237c0,0.294,2.183,4.568,2.417,5.158c0.945-1.916,2.596-4.776,2.596-5.158
							c0-0.178-0.268-0.208-0.562-0.237v-0.353h6.427v0.353c-0.264,0.029-0.618,0.118-0.618,0.531v11.203
							c0,0.412,0.354,0.5,0.618,0.532v0.353h-4.922v-0.353c0.413-0.032,0.768-0.12,0.768-0.532v-8.373h-0.06l-4.394,8.52
							l-4.246-8.52h-0.059V36.266z"/>
					</g>
				</g>
				<g>
					
						<image style="overflow:visible;opacity:0.75;" width="28" height="23" xlink:href="992020E8.png"  transform="matrix(1 0 0 1 117 19.5806)">
					</image>
					<g>
						<linearGradient id="SVGID_15_" gradientUnits="userSpaceOnUse" x1="130.8252" y1="21.4604" x2="130.8252" y2="36.361">
							<stop  offset="0" style="stop-color:#F6C846"/>
							<stop  offset="0.4944" style="stop-color:#F7EEB1"/>
							<stop  offset="1" style="stop-color:#F6C846"/>
						</linearGradient>
						<path style="fill:url(#SVGID_15_);" d="M134.483,37.151v-0.353c0.115,0,0.381,0,0.381-0.267c0-0.323-0.648-1.475-0.855-2.004
							h-6.841c-0.176,0.529-0.853,1.681-0.853,2.004c0,0.267,0.267,0.267,0.383,0.267v0.353h-4.423v-0.353
							c0.236,0,0.499-0.089,0.589-0.294c2.358-5.515,5.102-11.264,5.102-11.676c0-0.207-0.089-0.267-0.383-0.295v-0.353h6.163v0.353
							c-0.295,0.029-0.387,0.088-0.387,0.295c0,0.354,4.13,8.638,5.428,11.676c0.087,0.205,0.353,0.294,0.588,0.294v0.353H134.483z
							 M133.009,32.404l-2.479-5.159l-2.416,5.159H133.009z"/>
						<path style="fill:none;stroke:#EFA656;stroke-width:0.2924;" d="M134.483,37.151v-0.353c0.115,0,0.381,0,0.381-0.267
							c0-0.323-0.648-1.475-0.855-2.004h-6.841c-0.176,0.529-0.853,1.681-0.853,2.004c0,0.267,0.267,0.267,0.383,0.267v0.353h-4.423
							v-0.353c0.236,0,0.499-0.089,0.589-0.294c2.358-5.515,5.102-11.264,5.102-11.676c0-0.207-0.089-0.267-0.383-0.295v-0.353
							h6.163v0.353c-0.295,0.029-0.387,0.088-0.387,0.295c0,0.354,4.13,8.638,5.428,11.676c0.087,0.205,0.353,0.294,0.588,0.294
							v0.353H134.483z M133.009,32.404l-2.479-5.159l-2.416,5.159H133.009z"/>
					</g>
				</g>
				<g>
					
						<image style="overflow:visible;opacity:0.75;" width="24" height="24" xlink:href="992020EB.png"  transform="matrix(1 0 0 1 140 18.5806)">
					</image>
					<g>
						<linearGradient id="SVGID_16_" gradientUnits="userSpaceOnUse" x1="151.9053" y1="21.4604" x2="151.9053" y2="36.3609">
							<stop  offset="0" style="stop-color:#F6C846"/>
							<stop  offset="0.4944" style="stop-color:#F7EEB1"/>
							<stop  offset="1" style="stop-color:#F6C846"/>
						</linearGradient>
						<path style="fill:url(#SVGID_16_);" d="M158.097,24.179c0.235,0,0.53-0.119,0.53-0.648h0.354v4.305h-0.354
							c0-0.531-0.295-0.651-0.53-0.651h-4.217v9.082c0,0.412,0.356,0.5,0.68,0.532v0.353h-5.308v-0.353
							c0.325-0.032,0.68-0.12,0.68-0.532v-9.082h-4.218c-0.235,0-0.53,0.12-0.53,0.651h-0.354v-4.305h0.354
							c0,0.529,0.295,0.648,0.53,0.648H158.097z"/>
						<path style="fill:none;stroke:#EFA656;stroke-width:0.2924;" d="M158.097,24.179c0.235,0,0.53-0.119,0.53-0.648h0.354v4.305
							h-0.354c0-0.531-0.295-0.651-0.53-0.651h-4.217v9.082c0,0.412,0.356,0.5,0.68,0.532v0.353h-5.308v-0.353
							c0.325-0.032,0.68-0.12,0.68-0.532v-9.082h-4.218c-0.235,0-0.53,0.12-0.53,0.651h-0.354v-4.305h0.354
							c0,0.529,0.295,0.648,0.53,0.648H158.097z"/>
					</g>
				</g>
				<g>
					
						<image style="overflow:visible;opacity:0.75;" width="16" height="23" xlink:href="21A4BF87.png"  transform="matrix(1 0 0 1 160 19.5806)">
					</image>
					<g>
						<linearGradient id="SVGID_17_" gradientUnits="userSpaceOnUse" x1="167.9746" y1="21.4604" x2="167.9746" y2="36.361">
							<stop  offset="0" style="stop-color:#F6C846"/>
							<stop  offset="0.4944" style="stop-color:#F7EEB1"/>
							<stop  offset="1" style="stop-color:#F6C846"/>
						</linearGradient>
						<path style="fill:url(#SVGID_17_);" d="M170.894,24.179v0.353c-0.591,0.029-0.945,0.118-0.945,0.531v11.203
							c0,0.412,0.354,0.5,0.945,0.532v0.353h-5.837v-0.353c0.589-0.032,0.941-0.12,0.941-0.532V25.063
							c0-0.413-0.353-0.502-0.941-0.531v-0.353H170.894z"/>
						<path style="fill:none;stroke:#EFA656;stroke-width:0.2924;" d="M170.894,24.179v0.353c-0.591,0.029-0.945,0.118-0.945,0.531
							v11.203c0,0.412,0.354,0.5,0.945,0.532v0.353h-5.837v-0.353c0.589-0.032,0.941-0.12,0.941-0.532V25.063
							c0-0.413-0.353-0.502-0.941-0.531v-0.353H170.894z"/>
					</g>
				</g>
				<g>
					
						<image style="overflow:visible;opacity:0.75;" width="26" height="24" xlink:href="21A4BF85.png"  transform="matrix(1 0 0 1 172 18.5806)">
					</image>
					<g>
						<linearGradient id="SVGID_18_" gradientUnits="userSpaceOnUse" x1="184.8086" y1="21.4595" x2="184.8086" y2="36.3616">
							<stop  offset="0" style="stop-color:#F6C846"/>
							<stop  offset="0.4944" style="stop-color:#F7EEB1"/>
							<stop  offset="1" style="stop-color:#F6C846"/>
						</linearGradient>
						<path style="fill:url(#SVGID_18_);" d="M192.681,30.665c0,4.658-4.187,6.663-7.872,6.663c-3.684,0-7.871-2.005-7.871-6.663
							s4.188-6.663,7.871-6.663C188.494,24.002,192.681,26.007,192.681,30.665z M180.771,30.665c0,2.181,1.798,3.538,4.038,3.538
							c2.241,0,4.04-1.357,4.04-3.538s-1.799-3.538-4.04-3.538C182.568,27.127,180.771,28.484,180.771,30.665z"/>
						<path style="fill:none;stroke:#EFA656;stroke-width:0.2924;" d="M192.681,30.665c0,4.658-4.187,6.663-7.872,6.663
							c-3.684,0-7.871-2.005-7.871-6.663s4.188-6.663,7.871-6.663C188.494,24.002,192.681,26.007,192.681,30.665z M180.771,30.665
							c0,2.181,1.798,3.538,4.038,3.538c2.241,0,4.04-1.357,4.04-3.538s-1.799-3.538-4.04-3.538
							C182.568,27.127,180.771,28.484,180.771,30.665z"/>
					</g>
				</g>
				<g>
					
						<image style="overflow:visible;opacity:0.75;" width="26" height="23" xlink:href="21A4BF83.png"  transform="matrix(1 0 0 1 194 19.5806)">
					</image>
					<g>
						<linearGradient id="SVGID_19_" gradientUnits="userSpaceOnUse" x1="206.626" y1="21.4604" x2="206.626" y2="36.361">
							<stop  offset="0" style="stop-color:#F6C846"/>
							<stop  offset="0.4944" style="stop-color:#F7EEB1"/>
							<stop  offset="1" style="stop-color:#F6C846"/>
						</linearGradient>
						<path style="fill:url(#SVGID_19_);" d="M213.85,36.266c0,0.412,0.354,0.5,0.825,0.532v0.353h-5.453v-0.353
							c0.294,0,0.854-0.032,0.854-0.384c0-0.677-3.775-4.04-7.106-7.93l-0.058,0.058v7.724c0,0.412,0.354,0.5,0.766,0.532v0.353
							h-5.041v-0.353c0.383-0.032,0.737-0.12,0.737-0.532V25.063c0-0.413-0.354-0.502-0.797-0.531v-0.353h7.018v0.353
							c-0.265,0.029-0.62,0.118-0.62,0.531c0,0.207,2.859,3.125,5.337,5.808v-5.808c0-0.413-0.354-0.502-0.825-0.531v-0.353h5.188
							v0.353c-0.472,0.029-0.825,0.118-0.825,0.531V36.266z"/>
						<path style="fill:none;stroke:#EFA656;stroke-width:0.2924;" d="M213.85,36.266c0,0.412,0.354,0.5,0.825,0.532v0.353h-5.453
							v-0.353c0.294,0,0.854-0.032,0.854-0.384c0-0.677-3.775-4.04-7.106-7.93l-0.058,0.058v7.724c0,0.412,0.354,0.5,0.766,0.532
							v0.353h-5.041v-0.353c0.383-0.032,0.737-0.12,0.737-0.532V25.063c0-0.413-0.354-0.502-0.797-0.531v-0.353h7.018v0.353
							c-0.265,0.029-0.62,0.118-0.62,0.531c0,0.207,2.859,3.125,5.337,5.808v-5.808c0-0.413-0.354-0.502-0.825-0.531v-0.353h5.188
							v0.353c-0.472,0.029-0.825,0.118-0.825,0.531V36.266z"/>
					</g>
				</g>
			</g>
		</g>
	</g>
	<g>
		<linearGradient id="SVGID_20_" gradientUnits="userSpaceOnUse" x1="129.4268" y1="46.6094" x2="129.4268" y2="57.5781">
			<stop  offset="0" style="stop-color:#5592C9"/>
			<stop  offset="0.4944" style="stop-color:#CEDCE8"/>
			<stop  offset="1" style="stop-color:#5592C9"/>
		</linearGradient>
		<path style="fill:url(#SVGID_20_);stroke:#006461;stroke-width:0.2924;" d="M125.041,53.216l0.205,0.101
			c-0.041,0.103-0.041,0.245-0.041,0.43c0,0.55,2.182,1.468,4.303,1.468c2.036,0,2.956-0.49,2.956-1.387
			c0-1.509-8.399,0.164-8.399-3.771c0-2.04,1.956-3.447,4.951-3.447c2.795,0,4.814,0.857,5.364,0.857
			c0.265,0,0.407-0.143,0.551-0.307l0.224,0.082l-1.405,2.835l-0.245-0.123v-0.225c0-0.51-2.325-1.08-4.241-1.08
			c-1.774,0-2.386,0.489-2.386,0.957c0,1.816,8.442-0.407,8.442,4.283c0,1.753-1.328,3.689-5.751,3.689
			c-3.404,0-4.915-0.937-5.382-0.937c-0.165,0-0.288,0.143-0.407,0.264l-0.245-0.06L125.041,53.216z"/>
		<linearGradient id="SVGID_21_" gradientUnits="userSpaceOnUse" x1="144.0029" y1="48.0366" x2="144.0029" y2="57.457">
			<stop  offset="0" style="stop-color:#5592C9"/>
			<stop  offset="0.4944" style="stop-color:#CEDCE8"/>
			<stop  offset="1" style="stop-color:#5592C9"/>
		</linearGradient>
		<path style="fill:url(#SVGID_21_);stroke:#006461;stroke-width:0.2924;" d="M148.284,48.485c0.164,0,0.369-0.081,0.369-0.448
			h0.242v2.977h-0.242c0-0.366-0.205-0.449-0.369-0.449h-2.914v6.282c0,0.286,0.242,0.345,0.469,0.366v0.245h-3.669v-0.245
			c0.222-0.021,0.467-0.081,0.467-0.366v-6.282h-2.915c-0.164,0-0.367,0.083-0.367,0.449h-0.244v-2.977h0.244
			c0,0.368,0.203,0.448,0.367,0.448H148.284z"/>
		<linearGradient id="SVGID_22_" gradientUnits="userSpaceOnUse" x1="158.501" y1="48.4849" x2="158.501" y2="57.5781">
			<stop  offset="0" style="stop-color:#5592C9"/>
			<stop  offset="0.4944" style="stop-color:#CEDCE8"/>
			<stop  offset="1" style="stop-color:#5592C9"/>
		</linearGradient>
		<path style="fill:url(#SVGID_22_);stroke:#006461;stroke-width:0.2924;" d="M153.729,49.098c0-0.286-0.265-0.348-0.591-0.367
			v-0.246h3.669v0.246c-0.122,0.019-0.346,0.081-0.346,0.367v4.954c0,1.039,0.855,1.448,2.039,1.448
			c1.182,0,2.038-0.409,2.038-1.448v-4.954c0-0.286-0.226-0.348-0.348-0.367v-0.246h3.672v0.246
			c-0.326,0.019-0.592,0.081-0.592,0.367v4.485c0,2.16-1.182,3.995-4.771,3.995c-3.588,0-4.771-1.835-4.771-3.995V49.098z"/>
		<linearGradient id="SVGID_23_" gradientUnits="userSpaceOnUse" x1="173.7715" y1="48.4849" x2="173.7715" y2="57.457">
			<stop  offset="0" style="stop-color:#5592C9"/>
			<stop  offset="0.4944" style="stop-color:#CEDCE8"/>
			<stop  offset="1" style="stop-color:#5592C9"/>
		</linearGradient>
		<path style="fill:url(#SVGID_23_);stroke:#006461;stroke-width:0.2924;" d="M169.124,49.098c0-0.286-0.246-0.348-0.53-0.367
			v-0.246h6.117c3.017,0,4.238,2.079,4.238,4.486c0,2.405-1.222,4.486-4.238,4.486h-6.117v-0.245c0.284-0.021,0.53-0.081,0.53-0.366
			V49.098z M171.855,55.5h1.469c2.078,0,2.974-0.693,2.974-2.528c0-1.834-0.896-2.528-2.974-2.528h-1.469V55.5z"/>
		<linearGradient id="SVGID_24_" gradientUnits="userSpaceOnUse" x1="185.251" y1="48.4849" x2="185.251" y2="57.457">
			<stop  offset="0" style="stop-color:#5592C9"/>
			<stop  offset="0.4944" style="stop-color:#CEDCE8"/>
			<stop  offset="1" style="stop-color:#5592C9"/>
		</linearGradient>
		<path style="fill:url(#SVGID_24_);stroke:#006461;stroke-width:0.2924;" d="M187.27,48.485v0.246
			c-0.408,0.019-0.653,0.081-0.653,0.367v7.748c0,0.286,0.245,0.345,0.653,0.366v0.245h-4.037v-0.245
			c0.407-0.021,0.651-0.081,0.651-0.366v-7.748c0-0.286-0.244-0.348-0.651-0.367v-0.246H187.27z"/>
		<linearGradient id="SVGID_25_" gradientUnits="userSpaceOnUse" x1="196.8926" y1="48.3638" x2="196.8926" y2="57.5781">
			<stop  offset="0" style="stop-color:#5592C9"/>
			<stop  offset="0.4944" style="stop-color:#CEDCE8"/>
			<stop  offset="1" style="stop-color:#5592C9"/>
		</linearGradient>
		<path style="fill:url(#SVGID_25_);stroke:#006461;stroke-width:0.2924;" d="M202.338,52.971c0,3.222-2.897,4.607-5.445,4.607
			c-2.549,0-5.444-1.385-5.444-4.607c0-3.222,2.896-4.607,5.444-4.607C199.44,48.364,202.338,49.75,202.338,52.971z M194.098,52.971
			c0,1.508,1.245,2.447,2.795,2.447c1.551,0,2.794-0.939,2.794-2.447s-1.243-2.448-2.794-2.448
			C195.343,50.523,194.098,51.463,194.098,52.971z"/>
		<linearGradient id="SVGID_26_" gradientUnits="userSpaceOnUse" x1="210.7373" y1="48.3638" x2="210.7373" y2="57.5781">
			<stop  offset="0" style="stop-color:#5592C9"/>
			<stop  offset="0.4944" style="stop-color:#CEDCE8"/>
			<stop  offset="1" style="stop-color:#5592C9"/>
		</linearGradient>
		<path style="fill:url(#SVGID_26_);stroke:#006461;stroke-width:0.2924;" d="M206.782,54.338l0.265,0.122
			c0,0.062-0.021,0.121-0.021,0.224c0,0.531,2.345,1.059,3.998,1.059c0.508,0,1.854-0.081,1.854-0.874
			c0-1.592-6.667-0.042-6.667-3.467c0-1.266,1.203-3.038,4.525-3.038c1.937,0,3.61,0.53,4.057,0.53c0.226,0,0.347-0.163,0.45-0.245
			l0.226,0.082l-1.226,2.568l-0.264-0.122c0-0.062,0.02-0.144,0.02-0.225c0-0.203-1.449-0.754-2.815-0.754
			c-0.507,0-2.322,0-2.322,0.896c0,1.449,6.667-0.041,6.667,3.508c0,1.59-1.366,2.975-4.484,2.975c-1.958,0-4.242-0.732-4.404-0.732
			c-0.185,0-0.326,0.142-0.47,0.286l-0.224-0.063L206.782,54.338z"/>
	</g>
</g>
</svg>
